<?xml version="1.0" standalone="no"?>
<!DOCTYPE svg PUBLIC "-//W3C//DTD SVG 1.1//EN" "http://www.w3.org/Graphics/SVG/1.1/DTD/svg11.dtd" >
<svg xmlns="http://www.w3.org/2000/svg" xmlns:xlink="http://www.w3.org/1999/xlink" version="1.1">
<metadata>
Created by FontForge 20150824 at Tue Dec  8 03:18:38 2015
 By Everything Fonts
Copyright (c) 2007 by The Font Bureau, Inc.. All rights reserved.
</metadata>
<defs>
<font id="eyinterstatei" horiz-adv-x="1270" >
  <font-face 
    font-family="eyinterstatei"
    font-weight="400"
    font-style="italic"
    font-stretch="normal"
    units-per-em="2048"
    panose-1="2 0 5 3 3 0 0 9 0 4"
    ascent="1638"
    descent="-410"
    x-height="1075"
    cap-height="1434"
    bbox="-344 -491 2723.06 2181"
    underline-thickness="41"
    underline-position="-312"
    slope="-10"
    unicode-range="U+0020-FB02"
  />
<missing-glyph horiz-adv-x="1024" 
 />
    <glyph glyph-name="fi" unicode="fi" horiz-adv-x="1276" 
d="M1274 1350q0 -28 -10.5 -52.5t-28.5 -43t-41.5 -29.5t-50.5 -11q-28 0 -52 11t-42 29.5t-28.5 43t-10.5 52.5t10.5 53t28.5 43.5t42 29.5t52 11q27 0 50.5 -11t41.5 -29.5t28.5 -43.5t10.5 -53zM786 1276q-20 11 -49.5 19t-66.5 8q-57 0 -82 -27.5t-35 -85.5l-21 -115
h191l-35 -196h-190l-156 -879h-211l156 879h-140l35 196h140l24 137q13 76 39 129t63 85t86.5 46.5t112.5 14.5q28 0 54 -3t47 -8t38 -11t31 -13zM1016 0h-211l188 1075h211z" />
    <glyph glyph-name="fl" unicode="fl" horiz-adv-x="1276" 
d="M1016 0h-211l244 1382l231 111zM786 1276q-20 11 -49.5 19t-66.5 8q-57 0 -82 -27.5t-35 -85.5l-21 -115h191l-35 -196h-190l-156 -879h-211l156 879h-140l35 196h140l24 137q13 76 39 129t63 85t86.5 46.5t112.5 14.5q28 0 54 -3t47 -8t38 -11t31 -13z" />
    <glyph glyph-name=".notdef" horiz-adv-x="1024" 
 />
    <glyph glyph-name=".null" horiz-adv-x="0" 
 />
    <glyph glyph-name="nonmarkingreturn" horiz-adv-x="594" 
 />
    <glyph glyph-name="space" unicode=" " horiz-adv-x="555" 
 />
    <glyph glyph-name="space" unicode="&#xa0;" horiz-adv-x="555" 
 />
    <glyph glyph-name="exclam" unicode="!" horiz-adv-x="610" 
d="M461 797l-109 -383h-135l27 383l112 637h217zM385 131q0 -32 -12.5 -60t-33.5 -49t-49 -33t-59 -12q-32 0 -59.5 12t-48.5 33t-33 49t-12 60q0 31 12 59.5t33 50t48.5 34t59.5 12.5q31 0 59 -12.5t49 -34t33.5 -50t12.5 -59.5z" />
    <glyph glyph-name="quotedbl" unicode="&#x22;" horiz-adv-x="1004" 
d="M864 764h-154l68 670h256zM411 764h-153l67 670h256z" />
    <glyph glyph-name="numbersign" unicode="#" 
d="M264 338h-185l31 172h184l72 416h-184l33 172h184l57 336h178l-57 -336h270l60 336h178l-57 -336h184l-33 -172h-184l-72 -416h184l-30 -172h-185l-59 -338h-178l59 338h-270l-62 -338h-178zM747 508l74 420h-279l-73 -420h278z" />
    <glyph glyph-name="dollar" unicode="$" 
d="M560 180q64 0 115.5 14.5t88 43t56 70t19.5 95.5q0 29 -8.5 57.5t-31.5 55.5t-63.5 53t-103.5 51q-100 39 -170.5 83t-115.5 95.5t-65.5 110.5t-20.5 127q0 91 32 161.5t88 120.5t131 79t162 37l35 194h199l-35 -201q98 -17 171 -55t134 -98l-149 -150q-24 25 -53 48
t-65.5 41t-82 28.5t-101.5 10.5q-69 0 -116 -14.5t-75.5 -40t-41 -60.5t-12.5 -76q0 -37 9 -67.5t31 -56.5t58.5 -49t90.5 -44q105 -42 180 -85.5t122.5 -93t69.5 -108t22 -129.5q0 -96 -32 -171t-90.5 -129t-140 -86t-179.5 -42l-35 -195h-198l34 199q-118 17 -204.5 67
t-151.5 119l156 150q65 -77 148.5 -118t188.5 -42z" />
    <glyph glyph-name="percent" unicode="%" 
d="M317 647q-58 0 -99 28.5t-63.5 82.5t-26.5 131.5t13 175.5q18 99 48 172.5t69 122t85.5 72.5t96.5 24q57 0 99 -28t65.5 -81.5t28 -131.5t-12.5 -177q-18 -98 -48 -171.5t-69.5 -122.5t-87 -73t-98.5 -24zM1030 1434h131l-901 -1434h-127zM845 -23q-57 0 -98.5 28
t-64.5 82t-27 131.5t14 176.5q18 98 47.5 171.5t68.5 122t85.5 73t97.5 24.5q58 0 99.5 -28.5t65 -82t27.5 -131t-14 -175.5q-17 -99 -46.5 -173t-69 -122.5t-86.5 -72.5t-99 -24zM333 774q22 0 41.5 11.5t37 42.5t33 84.5t30.5 136.5q15 82 17.5 136t-5 86t-23 45t-36.5 13
q-22 0 -41.5 -11.5t-37 -42t-33 -83.5t-30.5 -135t-17 -136.5t5.5 -87t22.5 -46t36 -13.5zM860 104q21 0 40.5 12t37.5 42.5t34 83.5t31 135t17 136.5t-5.5 86.5t-22.5 45.5t-36 13.5t-41 -11.5t-38 -42t-34 -83.5t-30 -135t-16 -136.5t5.5 -87t22.5 -46t35 -13.5z" />
    <glyph glyph-name="ampersand" unicode="&#x26;" horiz-adv-x="1384" 
d="M760 1456q82 0 147.5 -20.5t111 -57t69.5 -88t24 -114.5q0 -77 -30.5 -141.5t-81 -118.5t-115 -98.5t-131.5 -82.5l192 -307q37 51 72 111.5t67 126.5l168 -68q-44 -96 -95.5 -179.5t-110.5 -154.5l161 -264h-235l-76 117q-88 -68 -187 -104t-210 -36q-96 0 -173.5 23.5
t-132.5 68t-84.5 108.5t-29.5 145q0 84 27 155t77 129.5t121 107t160 87.5l-31 49q-51 81 -65.5 138t-14.5 124q0 79 30.5 142.5t84.5 108.5t128.5 69t162.5 24zM559 651q-63 -26 -112 -57t-84.5 -70t-51.5 -80.5t-16 -87.5q0 -81 63.5 -133.5t180.5 -52.5q71 0 135.5 28
t126.5 74zM565 1112q0 -33 12 -72t39 -84l46 -73q37 21 78 45.5t75.5 55.5t57 70t22.5 89q0 63 -34.5 96t-100.5 33q-43 0 -79 -12.5t-61.5 -34t-40 -50.5t-14.5 -63z" />
    <glyph glyph-name="quotesingle" unicode="'" horiz-adv-x="551" 
d="M419 764h-166l66 670h268z" />
    <glyph glyph-name="parenleft" unicode="(" horiz-adv-x="723" 
d="M352 -223q-62 59 -128 135.5t-120 168.5t-88.5 199.5t-34.5 229.5t28.5 227t77.5 195.5t114.5 168t139.5 143.5t152 123t153 106l97 -113q-111 -81 -206.5 -169t-166.5 -192.5t-111.5 -228t-40.5 -274.5q0 -102 20 -188.5t54.5 -162.5t80.5 -143t97 -131z" />
    <glyph glyph-name="parenright" unicode=")" horiz-adv-x="723" 
d="M-19 -111q111 81 206.5 169t166 192.5t111 228t40.5 275.5q0 102 -20 188.5t-54.5 162t-80 142.5t-97.5 131l119 95q62 -59 128 -135.5t120 -169t88.5 -200.5t34.5 -229q0 -122 -28.5 -227t-77.5 -195.5t-114.5 -167.5t-139.5 -143.5t-152.5 -123t-153.5 -105.5z" />
    <glyph glyph-name="asterisk" unicode="*" horiz-adv-x="1024" 
d="M848 827l-221 160l28 -272h-155l24 274l-221 -162l-80 138l248 110l-248 113l80 135l221 -162l-24 273h155l-28 -271l221 160l80 -135l-254 -113l254 -110z" />
    <glyph glyph-name="plus" unicode="+" 
d="M536 602h-383v205h383v397h215v-397h381v-205h-381v-397h-215v397z" />
    <glyph glyph-name="comma" unicode="," horiz-adv-x="635" 
d="M184 -258h-146l127 543h269z" />
    <glyph glyph-name="hyphen" unicode="-" horiz-adv-x="737" 
d="M643 645h-512l37 209h512z" />
    <glyph glyph-name="hyphen" unicode="&#xad;" horiz-adv-x="737" 
d="M643 645h-512l37 209h512z" />
    <glyph glyph-name="period" unicode="." horiz-adv-x="635" 
d="M499 139q0 -34 -12.5 -63.5t-34.5 -51.5t-51.5 -34.5t-63.5 -12.5t-63.5 12.5t-51 34.5t-34 51.5t-12.5 63.5t12.5 63.5t34 52t51 35.5t63.5 13t63.5 -13t51.5 -35.5t34.5 -52t12.5 -63.5z" />
    <glyph glyph-name="slash" unicode="/" horiz-adv-x="913" 
d="M117 -184h-211l956 1802h211z" />
    <glyph glyph-name="zero" unicode="0" 
d="M1210 901q0 -203 -48 -372.5t-134.5 -292t-206.5 -191t-263 -68.5q-110 0 -197 36.5t-147.5 108t-92.5 176.5t-32 242q0 200 48.5 368.5t134.5 290.5t205 189.5t259 67.5q113 0 201 -36t148.5 -106.5t92.5 -174.5t32 -238zM983 880q0 86 -14.5 155.5t-47 119t-83 76.5
t-122.5 26q-90 0 -163.5 -53.5t-126 -147t-82 -221.5t-29.5 -278q0 -88 15 -158t47.5 -119.5t83 -76t122.5 -26.5q89 0 163 54t126.5 148.5t81.5 223t29 277.5z" />
    <glyph glyph-name="one" unicode="1" 
d="M200 178h284l160 922h-287l27 149q75 4 133.5 15t103 32.5t75 55t50.5 82.5h175l-222 -1256h299l-32 -178h-799z" />
    <glyph glyph-name="two" unicode="2" 
d="M29 0q28 151 80 265t126 203.5t169.5 160t211.5 132.5q99 53 163 93.5t101 77.5t51.5 74.5t14.5 85.5q0 82 -62.5 126.5t-175.5 44.5q-97 0 -184 -34t-165 -93l-106 158q98 80 217.5 121t270.5 41q99 0 178 -23t134.5 -66.5t85 -106.5t29.5 -143q0 -78 -22.5 -142.5
t-73.5 -123.5t-132.5 -116.5t-200.5 -119.5q-110 -57 -184 -109.5t-122.5 -102.5t-75.5 -100t-42 -108h728l-35 -195h-979z" />
    <glyph glyph-name="three" unicode="3" 
d="M1151 1115q0 -80 -21.5 -139.5t-57.5 -102.5t-82 -72.5t-95 -49.5q87 -32 140.5 -104.5t53.5 -183.5q0 -110 -41 -199.5t-115.5 -153.5t-179.5 -98.5t-232 -34.5q-82 0 -153.5 18t-131 49t-107 73.5t-79.5 90.5l164 129q59 -82 136.5 -123.5t199.5 -41.5q77 0 136 20.5
t99.5 58t61 90t20.5 117.5q0 94 -61 145t-186 51h-129l33 186h127q66 0 117 17.5t86.5 49.5t53.5 76.5t18 98.5q0 87 -56 134.5t-171 47.5q-88 0 -165 -33t-149 -89l-110 146q40 36 89 67t106 53.5t122 35t138 12.5q99 0 177.5 -24t132.5 -68.5t82.5 -107.5t28.5 -141z" />
    <glyph glyph-name="four" unicode="4" 
d="M771 324h-725l29 165l867 945h220l-164 -932h178l-32 -180h-178l-57 -322h-195zM803 502l116 662l-606 -662h490z" />
    <glyph glyph-name="five" unicode="5" 
d="M1176 1241h-663l-91 -378q28 18 59.5 31t66.5 22t73 14t78 5q205 0 317 -105t112 -306q0 -127 -45 -228.5t-123 -172t-184 -108.5t-228 -38q-82 0 -154.5 13.5t-134.5 37t-114.5 56.5t-95.5 72l140 157q81 -71 168.5 -107t203.5 -36q86 0 151 25.5t108.5 70.5t65.5 106
t22 132q0 121 -64.5 182t-197.5 61q-84 0 -151 -26.5t-120 -75.5l-183 72l165 717h850z" />
    <glyph glyph-name="six" unicode="6" 
d="M1159 494q0 -116 -44 -211t-120.5 -163t-179 -105.5t-219.5 -37.5q-116 0 -207.5 31t-155.5 90t-97.5 144t-33.5 193q0 132 33 255.5t95 233t150.5 202.5t200 162.5t243 113.5t279.5 55l-15 -192q-125 -15 -236.5 -53t-204.5 -99.5t-164.5 -146t-115.5 -193.5
q31 28 69.5 50.5t82.5 38t94 23.5t106 8q103 0 185 -25.5t138.5 -76.5t86.5 -125.5t30 -171.5zM939 471q0 111 -71.5 175.5t-217.5 64.5q-73 0 -134.5 -22t-106 -61.5t-69 -94.5t-24.5 -121q0 -119 77 -183.5t219 -64.5q76 0 137 25.5t103 66t64.5 96t22.5 119.5z" />
    <glyph glyph-name="seven" unicode="7" 
d="M1208 1245q-136 -128 -247 -264t-198 -288t-150 -323t-102 -370h-227q40 191 104 363t148.5 325.5t188.5 290.5t229 260h-704l32 195h961z" />
    <glyph glyph-name="eight" unicode="8" 
d="M1196 1099q0 -67 -19.5 -120t-53.5 -94.5t-80.5 -72t-100.5 -51.5q43 -18 81 -46t66.5 -67t44.5 -89.5t16 -114.5q0 -113 -43.5 -200t-119 -146.5t-177 -90t-217.5 -30.5q-124 0 -219 28t-160 79.5t-98.5 124.5t-33.5 163q0 81 24.5 146.5t67 115.5t100 86t123.5 58
q-77 39 -118.5 107.5t-41.5 159.5q0 88 36.5 163.5t102.5 130.5t158 86t202 31q116 0 202.5 -27t143.5 -75t85.5 -113t28.5 -142zM981 1082q0 43 -15.5 78t-47.5 60.5t-80.5 39.5t-113.5 14q-70 0 -121 -18t-85 -49t-50.5 -71.5t-16.5 -84.5t15.5 -80.5t46.5 -62.5t78 -41
t110 -15q64 0 115.5 16.5t88.5 46.5t56.5 72.5t19.5 94.5zM933 437q0 50 -18.5 93.5t-56 75t-94.5 49.5t-135 18q-79 0 -141 -20.5t-104.5 -57t-65 -88t-22.5 -113.5q0 -55 21 -97.5t61.5 -72.5t95.5 -45t127 -15q81 0 142.5 19.5t104 57t64 87.5t21.5 109z" />
    <glyph glyph-name="nine" unicode="9" 
d="M143 941q0 116 44 211t120.5 163t179.5 105t220 37q116 0 207.5 -31t155 -89.5t97 -144t33.5 -193.5q0 -131 -33 -254.5t-94.5 -233.5t-150.5 -202.5t-200.5 -162t-243 -114t-279.5 -55.5l15 193q125 15 237 53t204.5 99.5t164 146t116.5 193.5q-32 -28 -70 -50.5
t-82.5 -38t-94.5 -23.5t-105 -8q-104 0 -186 25.5t-138.5 76.5t-86.5 125.5t-30 171.5zM363 964q0 -115 73 -177.5t216 -62.5q73 0 134.5 21.5t106 61t69.5 94.5t25 122q0 116 -76.5 180t-220.5 64q-76 0 -136.5 -23.5t-103 -64.5t-65 -96t-22.5 -119z" />
    <glyph glyph-name="colon" unicode=":" horiz-adv-x="635" 
d="M517 934q0 -33 -13 -62.5t-35 -51.5t-51.5 -35t-62.5 -13t-62.5 13t-51.5 35t-35 51.5t-13 62.5t13 62.5t35 52t51.5 36t62.5 13.5t62.5 -13.5t51.5 -36t35 -52t13 -62.5zM375 139q0 -33 -13 -62.5t-35 -51.5t-51.5 -35t-62.5 -13t-62.5 13t-51 35t-34.5 51.5t-13 62.5
t13 62.5t34.5 52t51 36t62.5 13.5t62.5 -13.5t51.5 -36t35 -52t13 -62.5z" />
    <glyph glyph-name="semicolon" unicode=";" horiz-adv-x="635" 
d="M517 934q0 -33 -13 -62.5t-35 -51.5t-51.5 -35t-62.5 -13t-62.5 13t-51.5 35t-35 51.5t-13 62.5t13 62.5t35 52t51.5 36t62.5 13.5t62.5 -13.5t51.5 -36t35 -52t13 -62.5zM132 -258h-146l127 543h268z" />
    <glyph glyph-name="less" unicode="&#x3c;" 
d="M186 610v197l942 573v-231l-735 -438l735 -439v-237z" />
    <glyph glyph-name="equal" unicode="=" 
d="M184 840v200h942v-200h-942zM184 369v200h942v-200h-942z" />
    <glyph glyph-name="greater" unicode="&#x3e;" 
d="M182 35v233l735 437l-735 438v237l942 -573v-197z" />
    <glyph glyph-name="question" unicode="?" horiz-adv-x="1161" 
d="M1137 1108q0 -80 -19 -140.5t-56.5 -108t-93 -85.5t-128.5 -74q-50 -24 -90 -46.5t-70.5 -52.5t-50.5 -73t-29 -110h-211q12 100 36 167t62.5 114.5t93.5 81t128 65.5q48 21 86.5 43t65.5 48.5t42 58.5t15 73t-17 73t-48.5 54.5t-76.5 34.5t-100 12q-100 0 -196 -37.5
t-189 -109.5l-111 172q109 88 238 138t278 50q105 0 187.5 -26.5t138.5 -73.5t85.5 -110.5t29.5 -137.5zM602 131q0 -32 -12 -60t-33 -49t-49 -33t-59 -12q-32 0 -60 12t-49 33t-33 49t-12 60q0 31 12 59.5t33 50t49 34t60 12.5q31 0 59 -12.5t49 -34t33 -50t12 -59.5z" />
    <glyph glyph-name="at" unicode="@" horiz-adv-x="1712" 
d="M1604 737q0 -116 -23.5 -196.5t-65 -130.5t-98.5 -72.5t-125 -22.5q-34 0 -68 8t-64.5 26.5t-51.5 41.5t-35 51q-45 -56 -120 -91.5t-142 -35.5q-59 0 -115 17t-99.5 52t-70 88t-26.5 124q0 66 26.5 115t72 81t105 48t125.5 16q62 0 115.5 -16.5t87.5 -36.5v104
q0 65 -48.5 93t-141.5 28q-57 0 -105.5 -10.5t-93.5 -38.5l-57 100q57 34 125 52t139 18q72 0 131 -15t100.5 -45.5t64.5 -77t23 -108.5v-344q0 -24 6.5 -47t24 -41t44 -26.5t61.5 -8.5q95 0 137.5 78t42.5 225q0 122 -47 231t-130 191t-196.5 130t-247.5 48t-248 -47
t-196.5 -129.5t-129 -196.5t-46.5 -247q0 -135 46.5 -249t129 -197t196.5 -130t248 -47q69 0 133 13t133 47l50 -109q-44 -20 -82.5 -33.5t-75.5 -21.5t-75.5 -11.5t-82.5 -3.5q-107 0 -203.5 25t-178.5 71.5t-148 113t-112.5 148.5t-71.5 178.5t-25 203.5t25 203.5
t71.5 178.5t112.5 148t148 112.5t178.5 71.5t203.5 25q109 0 206 -26t179.5 -73.5t148 -114t111.5 -146.5t70.5 -171t24.5 -188zM1032 678q-31 23 -86.5 42t-124.5 19q-88 0 -138 -35.5t-50 -103.5q0 -74 50.5 -118t147.5 -44q58 0 114.5 32t86.5 83v125z" />
    <glyph glyph-name="A" unicode="A" horiz-adv-x="1448" 
d="M1030 0l-59 342h-557l-178 -342h-234l770 1434h217l266 -1434h-225zM837 1145l-329 -613h434z" />
    <glyph glyph-name="B" unicode="B" horiz-adv-x="1374" 
d="M1282 1108q0 -69 -17 -123.5t-48.5 -97t-75.5 -73.5t-97 -52q90 -40 138.5 -114t48.5 -177q0 -114 -40 -201.5t-113 -147.5t-174 -91t-222 -31h-590l254 1434h500q101 0 182 -22t137.5 -64t86.5 -102.5t30 -137.5zM1061 1075q0 74 -55.5 118t-178.5 44h-313l-65 -371h374
q114 0 176 57t62 152zM1010 465q0 99 -62 153t-190 54h-344l-84 -475h385q67 0 122 18t93 52.5t59 84.5t21 113z" />
    <glyph glyph-name="C" unicode="C" horiz-adv-x="1333" 
d="M1112 1057q-23 46 -47.5 77.5t-59.5 57t-79.5 39.5t-102.5 14q-96 0 -181.5 -48.5t-149 -134.5t-101 -204.5t-37.5 -259.5q0 -98 22 -174t63 -128.5t99 -80t130 -27.5q103 0 185 50.5t155 138.5l155 -135q-47 -63 -97.5 -109t-117.5 -83t-139 -55t-154 -18
q-114 0 -209.5 37.5t-165 111.5t-108.5 184.5t-39 256.5q0 134 26 251.5t73 216.5t112.5 177t145 132.5t170.5 83t188 28.5q88 0 161.5 -21t132 -60.5t102 -95.5t71.5 -126z" />
    <glyph glyph-name="D" unicode="D" horiz-adv-x="1382" 
d="M1315 841q0 -120 -28 -243.5t-90 -228.5t-143.5 -175t-175.5 -113t-186 -62t-190 -19h-410l254 1434h285q172 0 305 -41t219.5 -123t123 -191.5t36.5 -237.5zM1092 822q0 75 -19 148.5t-75 133t-149 90.5t-228 31h-97l-180 -1016h182q107 0 205.5 34t181 107.5t131 193.5
t48.5 278z" />
    <glyph glyph-name="E" unicode="E" horiz-adv-x="1251" 
d="M92 0l252 1434h916l-37 -209h-701l-61 -355h565l-37 -208h-565l-80 -453h731l-37 -209h-946z" />
    <glyph glyph-name="F" unicode="F" horiz-adv-x="1184" 
d="M1225 1223h-701l-65 -375h403l-37 -211h-403l-113 -637h-215l252 1434h916z" />
    <glyph glyph-name="G" unicode="G" horiz-adv-x="1380" 
d="M1114 1040q-27 56 -50.5 88.5t-59.5 60.5t-81 42t-98 14q-95 0 -181 -47.5t-151 -134t-103 -206.5t-38 -265q0 -101 25.5 -177t70.5 -127t106 -76.5t132 -25.5q139 0 227.5 83t122.5 239l2 12h-237l35 207h454l-24 -135q-27 -161 -80.5 -277t-130.5 -192t-175.5 -112
t-215.5 -36q-118 0 -215.5 40t-167.5 117.5t-109 191t-39 260.5q0 131 26.5 246.5t74 212.5t113.5 173.5t145.5 130t169.5 81.5t186 28q176 0 294.5 -82t176.5 -244z" />
    <glyph glyph-name="H" unicode="H" horiz-adv-x="1454" 
d="M1174 0h-216l113 639h-651l-113 -639h-215l252 1434h215l-102 -580h651l102 580h215z" />
    <glyph glyph-name="I" unicode="I" horiz-adv-x="608" 
d="M317 0h-215l254 1434h215z" />
    <glyph glyph-name="J" unicode="J" horiz-adv-x="1239" 
d="M1057 565q-36 -204 -104.5 -333t-180.5 -192q-115 -63 -274 -63q-112 0 -195 31.5t-140.5 86.5t-91 128t-46.5 156l206 53q12 -55 34 -100t55 -77t79 -49.5t107 -17.5q70 0 125 21.5t96 68.5t70 120t47 177l151 859h215z" />
    <glyph glyph-name="K" unicode="K" horiz-adv-x="1395" 
d="M870 913l344 -913h-227l-280 741l-336 -340l-70 -401h-209l252 1434h209l-125 -725l692 725h254z" />
    <glyph glyph-name="L" unicode="L" horiz-adv-x="1210" 
d="M1014 0h-922l252 1434h215l-215 -1223h707z" />
    <glyph glyph-name="M" unicode="M" horiz-adv-x="1647" 
d="M1366 0h-211l174 954l-606 -989l-249 989l-171 -954h-211l252 1434h221l235 -995l593 995h225z" />
    <glyph glyph-name="N" unicode="N" horiz-adv-x="1454" 
d="M1174 0h-197l-488 1071l-186 -1071h-211l254 1434h207l478 -1066l186 1066h210z" />
    <glyph glyph-name="O" unicode="O" horiz-adv-x="1448" 
d="M1382 875q0 -115 -25.5 -237t-70.5 -220t-101 -172.5t-134 -136.5t-174.5 -97t-204.5 -35q-147 0 -258.5 57t-180.5 160t-85.5 207t-16.5 174q1 97 26 218t70 220t99 170.5t128 132.5t177 100.5t221 39.5q144 0 253 -57.5t170.5 -150.5t83.5 -188.5t23 -184.5zM1158 810
q2 76 -10.5 145.5t-52 139t-110.5 112t-166 42.5q-97 0 -185.5 -52.5t-154.5 -156t-94 -223t-30 -197.5q-2 -53 9 -130t52.5 -150t110.5 -114.5t159 -41.5q101 0 191 51.5t155.5 151.5t95.5 222t30 201z" />
    <glyph glyph-name="P" unicode="P" horiz-adv-x="1329" 
d="M1307 1044q0 -111 -44 -218t-129 -172.5t-184 -92t-211 -26.5h-342l-94 -535h-211l254 1434h488q107 0 197.5 -27.5t153 -80.5t92.5 -123t30 -159zM1084 1015q0 42 -14 83.5t-48 71t-86 45.5t-121 16h-295l-86 -494h324q72 0 130.5 17.5t103 53.5t68.5 90.5t24 116.5z
" />
    <glyph glyph-name="Q" unicode="Q" horiz-adv-x="1444" 
d="M1159 -29l-180 -104l-84 153q-110 -40 -223 -40q-147 0 -258.5 56.5t-180.5 159t-85.5 205.5t-16.5 172q1 88 25 212t70 225t100 173t127 132.5t176.5 100.5t222.5 40q144 0 254 -57.5t175 -157.5t83 -201t18 -178q0 -88 -17.5 -183.5t-49 -185.5t-89 -185t-153.5 -179z
M705 373l180 102l88 -164q86 91 135.5 234.5t49.5 284.5q1 55 -10.5 125t-53 141.5t-112.5 112t-163 40.5q-96 0 -184 -52t-155.5 -156t-96 -228.5t-28.5 -203.5q0 -48 9 -121t52 -147t112.5 -115.5t159.5 -41.5q28 0 56 4t55 13z" />
    <glyph glyph-name="R" unicode="R" horiz-adv-x="1413" 
d="M1360 1051q0 -89 -24 -164.5t-72.5 -134.5t-121 -100.5t-169.5 -63.5l198 -588h-229l-192 567h-347l-100 -567h-211l254 1434h549q109 0 195.5 -23.5t146.5 -71t91.5 -119.5t31.5 -169zM1137 1036q0 91 -62 143t-196 52h-359l-80 -461h400q138 0 217.5 65.5t79.5 200.5z
" />
    <glyph glyph-name="S" unicode="S" horiz-adv-x="1282" 
d="M1051 1087q-32 36 -67 66t-77.5 51.5t-93.5 34t-113 12.5q-60 0 -104.5 -14.5t-74.5 -39t-47.5 -60.5t-17.5 -75q0 -33 10.5 -59t40.5 -53t86 -55.5t146 -63.5q89 -35 163 -75t125.5 -93t73 -113.5t21.5 -134.5q0 -93 -39 -179.5t-114.5 -145t-170 -86t-204.5 -27.5
q-101 0 -185 21.5t-151.5 58t-119 84t-85.5 99.5l172 139q39 -50 76.5 -82.5t92.5 -60t111 -40t118 -12.5q56 0 105.5 13.5t88 40t61.5 67t23 89.5q1 43 -14.5 75.5t-48 61t-91.5 58.5t-147 64q-94 36 -163.5 75t-109.5 80.5t-63.5 95.5t-23.5 141q0 103 43 183t110 129
t154 74t188 25q86 0 158 -16.5t131.5 -45.5t108 -70t88.5 -89z" />
    <glyph glyph-name="T" unicode="T" horiz-adv-x="1235" 
d="M1260 1223h-414l-215 -1223h-215l215 1223h-414l37 211h1042z" />
    <glyph glyph-name="U" unicode="U" horiz-adv-x="1434" 
d="M1266 580q-26 -144 -71.5 -256t-117.5 -189t-172.5 -117.5t-234.5 -40.5q-117 0 -209 31.5t-156 92t-97.5 149.5t-33.5 205q2 35 6.5 79t12.5 89l143 811h215l-143 -811q-7 -38 -11 -73.5t-4 -66.5q0 -147 75.5 -222t219.5 -75q83 0 143 27t104 79t70.5 119.5t49.5 184.5
l147 838h215z" />
    <glyph glyph-name="V" unicode="V" horiz-adv-x="1409" 
d="M721 0h-229l-238 1434h223l172 -1148l580 1148h229z" />
    <glyph glyph-name="W" unicode="W" horiz-adv-x="1759" 
d="M1278 0h-229l-69 1077l-456 -1077h-219l-39 1434h219l5 -1059l448 1059h205l70 -1060l384 1060h220z" />
    <glyph glyph-name="X" unicode="X" horiz-adv-x="1341" 
d="M262 0h-244l580 750l-295 684h232l212 -491l377 491h244l-534 -695l317 -739h-229l-236 550z" />
    <glyph glyph-name="Y" unicode="Y" horiz-adv-x="1403" 
d="M813 565l-98 -565h-215l100 567l-356 867h239l258 -651l488 651h250z" />
    <glyph glyph-name="Z" unicode="Z" horiz-adv-x="1352" 
d="M1309 1237l-975 -1038h813l-35 -199h-1081l32 195l981 1040h-753l35 199h1015z" />
    <glyph glyph-name="bracketleft" unicode="[" horiz-adv-x="770" 
d="M768 1260h-244l-229 -1311h244l-31 -174h-447l291 1659h447z" />
    <glyph glyph-name="backslash" unicode="\" horiz-adv-x="913" 
d="M541 -184l-318 1802h211l318 -1802h-211z" />
    <glyph glyph-name="bracketright" unicode="]" horiz-adv-x="770" 
d="M442 -225h-446l31 174h243l230 1311h-244l31 174h446z" />
    <glyph glyph-name="asciicircum" unicode="^" horiz-adv-x="1184" 
d="M905 782l-186 428l-338 -428h-242l529 652h163l299 -652h-225z" />
    <glyph glyph-name="underscore" unicode="_" horiz-adv-x="1024" 
d="M864 -362h-1024l35 194h1024z" />
    <glyph glyph-name="grave" unicode="`" horiz-adv-x="1024" 
d="M662 1219l-281 327h287l161 -327h-167z" />
    <glyph glyph-name="a" unicode="a" horiz-adv-x="1110" 
d="M1012 803q0 -22 -2.5 -43.5t-5.5 -44.5l-125 -715h-207l16 96q-50 -49 -121.5 -84t-163.5 -35q-74 0 -138.5 22t-111.5 65.5t-68 101t-21 124.5q1 113 44.5 192t106.5 123t140 65.5t161 21.5q67 0 138.5 -13t127.5 -40l15 78q3 15 4.5 32t1.5 29q0 69 -47.5 100
t-149.5 31q-75 0 -143.5 -18t-130.5 -49l-60 168q82 41 177.5 64.5t181.5 23.5q87 0 157 -17.5t120 -53.5t77 -91.5t27 -132.5zM754 465q-42 23 -104.5 38t-143.5 15q-47 0 -89.5 -11.5t-75 -36t-52 -63t-19.5 -91.5q0 -75 49 -115.5t138 -40.5q40 0 78.5 11t73 29
t63.5 41.5t51 49.5z" />
    <glyph glyph-name="b" unicode="b" horiz-adv-x="1159" 
d="M1065 649q0 -155 -39.5 -279.5t-107 -211.5t-156 -134t-187.5 -47q-46 0 -89.5 9t-81 27t-65.5 39.5t-52 49.5l-17 -102h-209l244 1384l227 109l-90 -508q54 53 120 83t147 30q76 0 141 -28.5t113 -85t75 -140.5t27 -195zM850 637q0 130 -55 198t-152 68q-41 0 -78 -13.5
t-68.5 -33t-55.5 -40t-38 -34.5l-81 -467q13 -22 38 -47t57.5 -46.5t70.5 -35.5t79 -14q69 0 121.5 39.5t88.5 104.5t54.5 148.5t18.5 172.5z" />
    <glyph glyph-name="c" unicode="c" horiz-adv-x="1061" 
d="M856 748q-46 72 -105 110.5t-135 38.5q-58 0 -111 -25.5t-98 -80.5t-73 -142t-28 -194q0 -127 63 -202t178 -75q65 0 122 29.5t117 85.5l113 -143q-87 -85 -180.5 -129t-198.5 -44q-104 0 -187 38.5t-138.5 107.5t-79 153t-23.5 167q0 151 46 278t127 213t176.5 125
t191.5 39q77 0 136 -17.5t104 -46.5t79 -67t60 -78z" />
    <glyph glyph-name="d" unicode="d" horiz-adv-x="1159" 
d="M94 426q0 155 39.5 279.5t107 211.5t156.5 134t187 47q47 0 91.5 -9.5t81.5 -27.5t64.5 -39.5t50.5 -48.5l72 411l230 109l-265 -1493h-209l17 90q-54 -53 -120 -83t-146 -30q-76 0 -141.5 28.5t-113.5 85t-75 140.5t-27 195zM309 438q0 -130 55 -198t152 -68
q41 0 78.5 13.5t68.5 33t55 40t38 34.5l82 467q-14 22 -39 47t-57.5 46.5t-71 35.5t-78.5 14q-68 0 -121 -39.5t-89 -104.5t-54.5 -149t-18.5 -172z" />
    <glyph glyph-name="e" unicode="e" horiz-adv-x="1116" 
d="M1006 664q0 -53 -7.5 -103.5t-19.5 -95.5h-682q-6 -70 10 -125t49 -93.5t81.5 -58.5t107.5 -20q66 0 123.5 23.5t117.5 60.5l93 -148q-84 -63 -172 -95t-191 -32q-104 0 -187 37.5t-138.5 106t-77 153.5t-21.5 170q0 144 45 273.5t122 215.5t168.5 125.5t188.5 39.5
t170 -33t122 -91t73.5 -137.5t24.5 -172.5zM805 635q5 58 -4.5 108t-35.5 86.5t-68.5 57t-102.5 20.5q-54 0 -97.5 -20.5t-77 -56.5t-57.5 -86t-38 -109h481z" />
    <glyph glyph-name="f" unicode="f" horiz-adv-x="733" 
d="M786 1276q-20 11 -49.5 19t-66.5 8q-57 0 -82 -27.5t-35 -85.5l-21 -115h191l-35 -196h-190l-156 -879h-211l156 879h-140l35 196h140l24 137q12 76 37 128.5t62.5 85t88 47t113.5 14.5q28 0 54 -3t47 -8t38 -11t31 -13z" />
    <glyph glyph-name="g" unicode="g" horiz-adv-x="1159" 
d="M453 -23q-76 0 -141.5 28.5t-113.5 85t-75 140.5t-27 195q0 155 39.5 279.5t107 211.5t156.5 134t187 47q52 0 94 -9.5t80.5 -29t64.5 -40t49 -46.5l17 102h211l-164 -940q-23 -130 -64 -228t-114 -165t-185 -103t-276 -42l-31 176q121 1 201 21.5t130 58t76 92t40 125.5
l4 20q-54 -53 -120 -83t-146 -30zM311 438q0 -130 55 -198t152 -68q41 0 78.5 13.5t68.5 33t55 40t38 34.5l82 467q-14 22 -39 47t-57.5 46.5t-71 35.5t-78.5 14q-68 0 -121 -39.5t-89 -104.5t-54.5 -149t-18.5 -172z" />
    <glyph glyph-name="h" unicode="h" horiz-adv-x="1159" 
d="M1040 764q0 -31 -4 -66.5t-10 -70.5l-111 -627h-210l104 600q5 28 7.5 55t2.5 50q0 102 -40 150t-134 48q-50 0 -93 -19.5t-77.5 -57.5t-60 -95t-39.5 -133l-105 -598h-211l244 1382l232 111l-91 -510q51 53 118 84t149 31t143.5 -22.5t103 -65t62 -106.5t20.5 -140z" />
    <glyph glyph-name="i" unicode="i" horiz-adv-x="543" 
d="M541 1350q0 -28 -10.5 -52.5t-28.5 -43t-41.5 -29.5t-50.5 -11q-28 0 -52.5 11t-42.5 29.5t-28.5 43t-10.5 52.5t10.5 53t28.5 43.5t42.5 29.5t52.5 11q27 0 50.5 -11t41.5 -29.5t28.5 -43.5t10.5 -53zM283 0h-211l188 1075h211z" />
    <glyph glyph-name="j" unicode="j" horiz-adv-x="543" 
d="M543 1350q0 -28 -11 -52.5t-29 -43t-41.5 -29.5t-49.5 -11q-28 0 -52.5 11t-43 29.5t-29.5 43t-11 52.5t11 53t29.5 43.5t43 29.5t52.5 11q26 0 49.5 -11t41.5 -29.5t29 -43.5t11 -53zM289 39q-18 -103 -47 -178t-79.5 -127t-128 -83t-192.5 -46l-47 182q72 14 121 30.5
t81.5 44.5t51.5 72t31 113l180 1028h211z" />
    <glyph glyph-name="k" unicode="k" horiz-adv-x="1075" 
d="M707 717l190 -717h-213l-143 541l-211 -224l-58 -317h-211l244 1382l232 111l-155 -873l419 455h243z" />
    <glyph glyph-name="l" unicode="l" horiz-adv-x="543" 
d="M283 0h-211l243 1382l232 111z" />
    <glyph glyph-name="m" unicode="m" horiz-adv-x="1755" 
d="M1638 770q0 -32 -4 -72t-12 -77l-109 -621h-210l106 600q5 29 8.5 62.5t3.5 56.5q0 91 -40 135.5t-128 44.5q-97 0 -163.5 -75.5t-92.5 -225.5l-104 -598h-211l104 600q5 29 10 61.5t5 57.5q0 41 -9 75.5t-29 58.5t-52 37t-80 13q-97 0 -162.5 -78t-91.5 -227l-105 -598
h-211l189 1075h211l-17 -96q22 24 48 45.5t57.5 38t68.5 26t82 9.5q107 0 172.5 -42t102.5 -120q31 34 66.5 63.5t77.5 51.5t92 34.5t110 12.5q150 0 233.5 -85t83.5 -243z" />
    <glyph glyph-name="n" unicode="n" horiz-adv-x="1159" 
d="M1040 764q0 -31 -4 -66.5t-10 -70.5l-111 -627h-210l104 600q5 28 7.5 55t2.5 50q0 102 -40 150t-134 48q-47 0 -90 -18.5t-77 -54.5t-60 -90t-43 -142l-105 -598h-211l191 1075h211l-17 -92q55 56 120.5 85.5t146.5 29.5q159 0 244 -84.5t85 -249.5z" />
    <glyph glyph-name="o" unicode="o" horiz-adv-x="1159" 
d="M92 451q0 136 47 265t128 214.5t174 126.5t188 41q106 0 191.5 -39.5t141 -108t80 -151.5t24.5 -164q0 -158 -48 -283t-128.5 -209.5t-174 -125t-191.5 -40.5q-104 0 -187.5 39t-140.5 109t-80.5 154.5t-23.5 171.5zM306 470q-1 -60 11.5 -111t42 -92.5t75.5 -65
t108 -23.5q64 0 118.5 30.5t97 87t68.5 139.5t26 179q0 51 -11.5 101t-42 92.5t-78 66t-111.5 23.5q-61 0 -115 -29.5t-97 -87.5t-67.5 -141t-24.5 -169z" />
    <glyph glyph-name="p" unicode="p" horiz-adv-x="1159" 
d="M1065 649q0 -155 -39.5 -279.5t-107 -211.5t-156 -134t-187.5 -47q-41 0 -84.5 8t-82.5 26t-68.5 41t-52.5 50l-68 -389l-229 -108l260 1470h209l-17 -90q54 53 120 83t147 30q76 0 141 -28.5t113 -85t75 -140.5t27 -195zM850 637q0 130 -55 198t-152 68q-41 0 -78 -13.5
t-68.5 -33t-55.5 -40t-38 -34.5l-81 -467q13 -22 38 -47t57.5 -46.5t70.5 -35.5t79 -14q69 0 121.5 39.5t88.5 104.5t54.5 148.5t18.5 172.5z" />
    <glyph glyph-name="q" unicode="q" horiz-adv-x="1159" 
d="M94 426q0 155 39.5 279.5t107 211.5t156.5 134t187 47q47 0 91 -9.5t81.5 -27.5t64.5 -39.5t51 -48.5l17 102h211l-240 -1362l-227 -108l84 485q-54 -53 -120 -83t-146 -30q-76 0 -141.5 28.5t-113.5 85t-75 140.5t-27 195zM309 438q0 -130 55 -198t152 -68
q41 0 78.5 13.5t68.5 33t55 40t38 34.5l82 467q-14 22 -39 47t-57.5 46.5t-71 35.5t-78.5 14q-68 0 -121 -39.5t-89 -104.5t-54.5 -149t-18.5 -172z" />
    <glyph glyph-name="r" unicode="r" horiz-adv-x="848" 
d="M791 834q-25 20 -63 35.5t-89 15.5q-48 0 -90 -14.5t-76 -49t-58.5 -91.5t-39.5 -142l-103 -588h-211l191 1075h211l-19 -98q47 54 111 87.5t141 33.5q65 0 110 -17.5t73 -42.5z" />
    <glyph glyph-name="s" unicode="s" horiz-adv-x="1014" 
d="M836 801q-33 25 -64 43t-70 34t-81.5 24.5t-88.5 8.5q-70 0 -108.5 -28t-38.5 -79q0 -26 7.5 -41.5t26 -32t58.5 -38.5t107 -53q70 -32 125 -64.5t91.5 -72t53 -89t10.5 -116.5q-7 -91 -44.5 -152t-93.5 -98.5t-124.5 -53.5t-136.5 -16q-125 0 -234.5 40.5t-197.5 119.5
l112 156q68 -57 150 -93t188 -36q79 0 125.5 32t48.5 101q0 23 -8 40t-26 34t-54.5 37.5t-93.5 44.5q-80 34 -139 68t-95.5 73t-50.5 81.5t-14 87.5q0 157 99 246t276 89q66 0 123.5 -11t106.5 -29t90 -41.5t73 -47.5z" />
    <glyph glyph-name="t" unicode="t" horiz-adv-x="817" 
d="M743 883h-254l-100 -576q-3 -15 -4.5 -30t-1.5 -27q0 -42 25 -60t71 -18q50 0 85 12t69 35l-62 -201q-40 -21 -85.5 -31t-84.5 -10q-117 0 -176 56.5t-59 159.5q0 22 8 73l109 617h-154l35 192h153l54 303l227 115l-74 -418h254z" />
    <glyph glyph-name="u" unicode="u" horiz-adv-x="1159" 
d="M117 311q0 31 4 66.5t10 71.5l111 626h211l-105 -600q-5 -28 -7.5 -54.5t-2.5 -49.5q0 -102 40 -150.5t134 -48.5q49 0 92.5 19t79 57t60.5 95t38 134l105 598h211l-191 -1075h-211l17 92q-66 -65 -129 -90t-138 -25q-158 0 -243.5 84.5t-85.5 249.5z" />
    <glyph glyph-name="v" unicode="v" horiz-adv-x="1098" 
d="M551 0h-199l-190 1075h219l115 -794l401 794h227z" />
    <glyph glyph-name="w" unicode="w" horiz-adv-x="1509" 
d="M1049 0h-193l-63 745l-330 -745h-193l-96 1075h213l42 -724l329 724h180l66 -724l305 724h217z" />
    <glyph glyph-name="x" unicode="x" horiz-adv-x="1081" 
d="M883 0h-224l-165 383l-295 -383h-232l445 569l-222 506h224l138 -325l251 325h231l-399 -512z" />
    <glyph glyph-name="y" unicode="y" horiz-adv-x="1128" 
d="M381 -379h-225l211 385l-205 1069h223l128 -801l417 801h225z" />
    <glyph glyph-name="z" unicode="z" horiz-adv-x="1055" 
d="M989 915l-661 -731h551l-33 -184h-819l26 160l671 731h-509l29 184h772z" />
    <glyph glyph-name="braceleft" unicode="{" horiz-adv-x="866" 
d="M887 1286q-77 -3 -128.5 -18.5t-85.5 -47t-53.5 -81t-31.5 -121.5l-21 -115q-13 -74 -31 -126t-42.5 -87t-57.5 -55t-76 -31q39 -14 64.5 -34.5t37.5 -55t11.5 -85.5t-12.5 -126l-17 -92q-11 -68 -6.5 -116t28.5 -81t68.5 -52.5t112.5 -29.5l-29 -157q-110 7 -191 35.5
t-130.5 81t-66 131t2.5 186.5l31 160q14 81 -7 114t-89 33h-47l33 182h45q37 0 62 7.5t41.5 25t26.5 45.5t17 70l35 184q21 115 59 196t101 131.5t154 71t218 15.5z" />
    <glyph glyph-name="bar" unicode="|" horiz-adv-x="606" 
d="M221 -379h-194l356 2017h195z" />
    <glyph glyph-name="braceright" unicode="}" horiz-adv-x="866" 
d="M733 520h-41q-37 0 -62 -7.5t-41.5 -25t-26.5 -45.5t-17 -69l-35 -185q-21 -115 -60 -196t-102.5 -131t-155.5 -71t-219 -15l27 157q78 3 130 18t86 46.5t53.5 81.5t31.5 123l23 114q12 75 29.5 127.5t42 87t57 54t75.5 30.5q-38 14 -63 34.5t-37.5 55t-12 85.5t12.5 126
l18 93q12 67 6.5 115.5t-30 81.5t-69.5 52t-113 29l28 158q109 -8 190.5 -36.5t131.5 -81t67 -131t-2 -185.5l-28 -160q-14 -82 7 -115t89 -33h43z" />
    <glyph glyph-name="asciitilde" unicode="~" horiz-adv-x="1143" 
d="M1114 868q-40 -71 -79.5 -124.5t-81 -90t-86 -55t-93.5 -18.5q-60 0 -108.5 22t-92.5 50q-23 15 -44.5 29t-42.5 25t-41.5 18t-41.5 7q-19 0 -36 -7.5t-35.5 -25.5t-40.5 -48t-51 -75l-136 76q46 80 86.5 132t82 87.5t84 52.5t87.5 17q54 0 100 -19.5t87 -45.5
q25 -17 81.5 -52t100.5 -35q20 0 37.5 7.5t36.5 25.5t41.5 48t52.5 75z" />
    <glyph glyph-name="exclamdown" unicode="&#xa1;" horiz-adv-x="610" 
d="M600 1303q0 -32 -12.5 -60t-33.5 -49.5t-49 -34t-59 -12.5q-32 0 -59.5 12.5t-48.5 34t-33 49.5t-12 60q0 31 12 59t33 49t48.5 33t59.5 12q31 0 59 -12t49 -33t33.5 -49t12.5 -59zM434 637l-112 -637h-218l113 637l109 383h135z" />
    <glyph glyph-name="cent" unicode="&#xa2;" 
d="M415 635q0 -141 63.5 -212.5t191.5 -71.5q76 0 133.5 26t113.5 84l123 -131q-72 -69 -155.5 -110.5t-186.5 -49.5l-35 -193h-203l37 211q-147 42 -225 158t-78 281q0 134 38.5 247t105 198.5t157 139.5t195.5 70l32 186h205l-35 -190q69 -12 134 -50t124 -108l-157 -131
q-37 53 -93.5 86t-132.5 33q-89 0 -156.5 -40t-111 -108t-64 -154t-20.5 -171z" />
    <glyph glyph-name="sterling" unicode="&#xa3;" 
d="M583 580q-17 -116 -73 -213.5t-144 -178.5h660l-33 -188h-905l30 170q45 37 87.5 80t78 93.5t60.5 109t34 127.5h-186l29 176h153q-7 38 -17.5 74.5t-20 73.5t-16.5 76t-7 83q0 97 36.5 171t100.5 123t150.5 74t187.5 25q147 0 252 -49t168 -131l-141 -139
q-57 70 -128 102.5t-169 32.5q-125 0 -183.5 -59.5t-58.5 -159.5q0 -35 6.5 -70t15.5 -72t18.5 -75.5t14.5 -79.5h283l-31 -176h-252z" />
    <glyph glyph-name="currency" unicode="&#xa4;" horiz-adv-x="1249" 
d="M358 799q-8 -37 -13.5 -75.5t-8.5 -80.5h514l-31 -168h-479q22 -140 98.5 -214.5t200.5 -74.5q48 0 90.5 14.5t81 39.5t73.5 59.5t70 73.5l154 -133q-48 -60 -101.5 -108.5t-114 -83t-128.5 -53t-146 -18.5q-117 0 -209 44t-155 120.5t-96 180.5t-33 225q0 136 24 256
t67.5 221t105 181t136.5 136t162.5 85.5t182.5 29.5q90 0 159.5 -22.5t123 -65t92 -103.5t65.5 -137l-192 -90q-21 49 -46 88t-57 66t-73.5 41t-96.5 14q-53 0 -104.5 -19t-99 -55t-88.5 -88t-72 -118h493l-30 -168h-519z" />
    <glyph glyph-name="yen" unicode="&#xa5;" 
d="M452 250h-280l32 178h281l24 143l-251 863h229l167 -660l392 660h240l-555 -859l-27 -147h281l-31 -178h-281l-45 -250h-219z" />
    <glyph glyph-name="brokenbar" unicode="&#xa6;" horiz-adv-x="633" 
d="M381 1638h197l-154 -874h-197zM180 496h197l-154 -875h-197z" />
    <glyph glyph-name="section" unicode="&#xa7;" horiz-adv-x="1352" 
d="M423 956q-38 60 -38 146q0 82 30 147.5t85.5 111.5t133.5 70.5t174 24.5q138 0 250.5 -44.5t188.5 -125.5l-144 -162q-36 32 -68 52.5t-72 38t-86.5 27t-94.5 9.5q-34 0 -65 -7t-55 -22.5t-38 -40.5t-14 -61q0 -32 17.5 -55.5t51 -45t83 -43.5t114.5 -50
q99 -44 170.5 -86.5t117 -89t67.5 -99t22 -116.5q0 -72 -26 -129t-67.5 -102t-92 -77.5t-99.5 -54.5q20 -31 29.5 -65.5t9.5 -79.5q0 -83 -30.5 -148.5t-86 -111.5t-133.5 -70.5t-174 -24.5q-137 0 -250 45t-188 125l143 162q36 -33 67 -52.5t73 -38t87.5 -27.5t94.5 -9
q79 0 125.5 33t46.5 98q0 31 -17.5 55t-51 45.5t-83.5 43.5t-114 51q-99 43 -170.5 86t-117.5 89.5t-67.5 99t-21.5 116.5q0 71 26 128.5t67 102t91.5 77t99.5 54.5zM827 291q109 53 155 106t46 109q0 34 -12.5 62t-42 54.5t-78 53.5t-119.5 59q-65 29 -117.5 54.5
t-95.5 48.5q-101 -49 -150 -103t-49 -112q0 -35 12.5 -63t42 -54.5t78 -53.5t119.5 -59q65 -29 117 -54t94 -48z" />
    <glyph glyph-name="dieresis" unicode="&#xa8;" horiz-adv-x="1024" 
d="M993 1356q0 -28 -11 -53t-30 -43.5t-43.5 -29.5t-52.5 -11q-29 0 -54 11t-44 29.5t-30 43.5t-11 53t11 53.5t30 44.5t44 30t54 11q28 0 52.5 -11t43.5 -30t30 -44.5t11 -53.5zM594 1356q0 -28 -11 -53t-30 -43.5t-44 -29.5t-52 -11q-29 0 -54 11t-44.5 29.5t-30.5 43.5
t-11 53t11 53.5t30.5 44.5t44.5 30t54 11q27 0 52 -11t44 -30t30 -44.5t11 -53.5z" />
    <glyph glyph-name="copyright" unicode="&#xa9;" horiz-adv-x="1712" 
d="M1603 717q0 -158 -56.5 -293t-155.5 -234.5t-234 -156t-293 -56.5t-293 56.5t-234 156t-155.5 234.5t-56.5 293t56.5 293t155.5 234.5t235.5 155.5t291.5 56q156 0 292 -56t235 -155.5t155.5 -234.5t56.5 -293zM1485 717q0 132 -47.5 245.5t-131 196.5t-197 130.5
t-245.5 47.5t-245.5 -47.5t-196.5 -130.5t-130.5 -196.5t-47.5 -245.5t47.5 -245.5t130.5 -197t196.5 -131t245.5 -47.5t245.5 47.5t197 131t131 197t47.5 245.5zM1030 901q-32 51 -67 74.5t-93 23.5q-50 0 -87.5 -19.5t-62.5 -55.5t-37.5 -87.5t-12.5 -115.5t12.5 -116
t37.5 -88.5t62.5 -56.5t87.5 -20q59 0 97.5 26.5t72.5 80.5l115 -78q-48 -82 -120 -124t-165 -42q-78 0 -141 30.5t-107.5 86t-69 132.5t-24.5 169t24.5 168.5t69 131.5t107.5 85.5t141 30.5q100 0 168 -40t113 -120z" />
    <glyph glyph-name="ordfeminine" unicode="&#xaa;" horiz-adv-x="934" 
d="M909 1225q0 -16 -2.5 -32.5t-5.5 -33.5l-102 -588h-174l14 72q-40 -37 -96 -63.5t-125 -26.5q-55 0 -104.5 15.5t-87.5 47t-60.5 79t-22.5 112.5q0 79 28 139.5t76.5 101t115 61.5t143.5 21q62 0 115.5 -10.5t93.5 -27.5l14 67q1 5 2.5 14.5t1.5 21.5q0 44 -32.5 71.5
t-120.5 27.5q-59 0 -113 -15t-107 -40l-49 141q52 29 134 52.5t155 23.5q147 0 228 -56.5t81 -174.5zM692 946q-34 17 -79.5 29t-110.5 12q-85 0 -134 -41.5t-49 -122.5q0 -54 34.5 -86t105.5 -32q33 0 62.5 8.5t56 23t49 33t41.5 39.5z" />
    <glyph glyph-name="guillemotleft" unicode="&#xab;" horiz-adv-x="1204" 
d="M754 539l274 -539h-227l-285 537l473 538h228zM299 539l274 -539h-227l-285 537l474 538h227z" />
    <glyph glyph-name="logicalnot" unicode="&#xac;" 
d="M1129 203h-211v399h-778v205h989v-604z" />
    <glyph glyph-name="registered" unicode="&#xae;" horiz-adv-x="1712" 
d="M1603 717q0 -158 -56.5 -293t-155.5 -234.5t-234 -156t-293 -56.5t-293 56.5t-234 156t-155.5 234.5t-56.5 293t56.5 293t155.5 234.5t235.5 155.5t291.5 56q156 0 292 -56t235 -155.5t155.5 -234.5t56.5 -293zM1485 717q0 132 -47.5 245.5t-131 196.5t-197 130.5
t-245.5 47.5t-245.5 -47.5t-196.5 -130.5t-130.5 -196.5t-47.5 -245.5t47.5 -245.5t130.5 -197t196.5 -131t245.5 -47.5t245.5 47.5t197 131t131 197t47.5 245.5zM1202 891q0 -96 -47 -155.5t-125 -82.5l166 -325h-162l-158 311h-155v-311h-138v807h355q54 0 102 -14.5
t84 -44.5t57 -76t21 -109zM1063 887q0 57 -37 85.5t-92 28.5h-213v-229h213q55 0 92 27.5t37 87.5z" />
    <glyph glyph-name="macron" unicode="&#xaf;" horiz-adv-x="1024" 
d="M924 1249h-574l31 185h573z" />
    <glyph glyph-name="macron" unicode="&#x2c9;" horiz-adv-x="1024" 
d="M924 1249h-574l31 185h573z" />
    <glyph glyph-name="degree" unicode="&#xb0;" horiz-adv-x="995" 
d="M923 1053q0 -87 -31 -161.5t-85.5 -129.5t-128.5 -86t-160 -31t-160 31t-128.5 86t-86 129.5t-31.5 161.5q0 84 31.5 157.5t86 128t128.5 86t160 31.5t160 -31.5t128.5 -86t85.5 -128t31 -157.5zM739 1053q0 45 -17 85.5t-46.5 70.5t-70 47.5t-87.5 17.5
q-46 0 -86.5 -17.5t-70.5 -47.5t-47.5 -70.5t-17.5 -85.5q0 -48 17.5 -89t47.5 -71.5t70.5 -48t86.5 -17.5q47 0 87.5 17.5t70 48t46.5 71.5t17 89z" />
    <glyph glyph-name="plusminus" unicode="&#xb1;" 
d="M749 705v-379h-211v379h-389v204h389v379h211v-379h389v-204h-389zM149 59v189h989v-189h-989z" />
    <glyph glyph-name="twosuperior" unicode="&#xb2;" horiz-adv-x="868" 
d="M23 532q22 103 60 177t90 130.5t118 101.5t146 91q79 44 126 86t47 98q0 37 -29 58.5t-86 21.5q-68 0 -124.5 -27t-115.5 -70l-84 129q82 60 168 94t180 34q61 0 110.5 -13t85 -39t55 -65t19.5 -91q0 -66 -22 -116.5t-60 -91t-89 -74t-110 -67.5q-57 -32 -99 -59.5
t-72.5 -52.5t-50.5 -47t-32 -44h449l-29 -164h-651z" />
    <glyph glyph-name="threesuperior" unicode="&#xb3;" horiz-adv-x="817" 
d="M731 1240q0 -33 -9.5 -66t-28 -63t-46 -55t-64.5 -42q57 -16 85 -58.5t28 -111.5q0 -68 -26.5 -127t-76.5 -102.5t-123.5 -68.5t-167.5 -25q-101 0 -177.5 40.5t-128.5 102.5l127 115q40 -45 89.5 -73t112.5 -28q50 0 87 12t61.5 33t36.5 49t12 60q0 48 -37.5 73
t-104.5 25h-99l26 147h91q34 0 63 9.5t49.5 26t32 40t11.5 52.5q0 44 -28 68t-96 24q-57 0 -104.5 -22.5t-95.5 -58.5l-85 119q29 22 63 43.5t73 38.5t82 27t90 10q60 0 111 -12.5t88 -38.5t58 -66.5t21 -96.5z" />
    <glyph glyph-name="acute" unicode="&#xb4;" horiz-adv-x="1024" 
d="M600 1219h-168l277 327h286z" />
    <glyph glyph-name="mu" unicode="&#xb5;" horiz-adv-x="1167" 
d="M915 0h-210l16 92q-22 -23 -49 -44t-60 -36.5t-72 -25t-85 -9.5q-58 0 -103.5 10.5t-79.5 29.5l-53 -304l-229 -108l260 1470h211l-105 -600q-5 -28 -7.5 -54.5t-2.5 -49.5q0 -102 40 -150.5t134 -48.5q49 0 92.5 19t79 57t61 95t38.5 134l104 598h211z" />
    <glyph glyph-name="paragraph" unicode="&#xb6;" horiz-adv-x="1475" 
d="M1133 -379h-203l284 1616h-161l-285 -1616h-203l160 914h-78q-111 0 -203 28t-155.5 83t-95.5 136.5t-23 188.5t52.5 193t114 146t165 92t205.5 32h745z" />
    <glyph glyph-name="periodcentered" unicode="&#xb7;" horiz-adv-x="520" 
d="M457 752q0 -33 -13 -62.5t-35 -51.5t-51.5 -35t-62.5 -13t-62.5 13t-51.5 35t-35 51.5t-13 62.5t13 62.5t35 52t51.5 35.5t62.5 13t62.5 -13t51.5 -35.5t35 -52t13 -62.5z" />
    <glyph glyph-name="periodcentered" unicode="&#x2219;" horiz-adv-x="520" 
d="M457 752q0 -33 -13 -62.5t-35 -51.5t-51.5 -35t-62.5 -13t-62.5 13t-51.5 35t-35 51.5t-13 62.5t13 62.5t35 52t51.5 35.5t62.5 13t62.5 -13t51.5 -35.5t35 -52t13 -62.5z" />
    <glyph glyph-name="cedilla" unicode="&#xb8;" horiz-adv-x="1024" 
d="M633 -208q0 -47 -20 -83t-51.5 -58.5t-74.5 -34t-94 -11.5q-86 0 -157.5 27t-120.5 65l55 67q43 -30 91.5 -47.5t107.5 -17.5q51 0 82.5 17.5t33.5 56.5q3 30 -12 45.5t-49 15.5q-23 0 -41 -5.5t-37 -16.5l-70 28l89 199h100l-57 -133q17 8 37.5 13t48.5 5q65 0 102 -35
t37 -97z" />
    <glyph glyph-name="onesuperior" unicode="&#xb9;" horiz-adv-x="670" 
d="M322 1188h-154l22 129q42 3 74 9t57 18.5t42.5 33.5t31.5 54h146l-161 -910h-176z" />
    <glyph glyph-name="ordmasculine" unicode="&#xba;" horiz-adv-x="985" 
d="M971 1083q0 -114 -36.5 -211.5t-98.5 -168t-143.5 -110.5t-170.5 -40q-77 0 -139.5 26.5t-106.5 75.5t-68 117.5t-24 151.5q0 111 34 208t94.5 169t143 113.5t179.5 41.5q75 0 136.5 -27t106 -76t69 -118t24.5 -152zM791 1075q0 97 -48.5 155t-136.5 58q-54 0 -98 -27.5
t-76 -75.5t-49.5 -113t-17.5 -140q0 -100 47 -155.5t129 -55.5q52 0 97.5 28.5t79.5 76.5t53.5 112.5t19.5 136.5z" />
    <glyph glyph-name="guillemotright" unicode="&#xbb;" horiz-adv-x="1204" 
d="M670 0h-228l463 537l-274 538h227l285 -536zM215 0h-227l463 537l-275 538h227l285 -536z" />
    <glyph glyph-name="onequarter" unicode="&#xbc;" horiz-adv-x="1905" 
d="M444 1188h-154l22 129q42 3 74 9t57 18.5t42.5 33.5t31.5 54h146l-161 -910h-176zM447 0h-238l1215 1434h237zM1389 199h-465l23 129l565 583h168l-98 -559h117l-27 -155h-117l-35 -195h-166zM1416 352l57 323l-311 -323h254z" />
    <glyph glyph-name="onehalf" unicode="&#xbd;" horiz-adv-x="1905" 
d="M397 1188h-154l22 129q42 3 74 9t57 18.5t42.5 33.5t31.5 54h146l-161 -910h-176zM368 0h-238l1215 1434h237zM976 2q22 103 60 177t90 130.5t118 101.5t146 91q79 44 126 86t47 98q0 37 -29 58.5t-86 21.5q-68 0 -124.5 -27t-115.5 -70l-84 129q82 60 168 94t180 34
q61 0 110.5 -13t85 -39t55 -65t19.5 -91q0 -66 -22 -116.5t-60 -91t-89 -74t-110 -67.5q-57 -32 -99 -59.5t-72.5 -52.5t-50.5 -47t-32 -44h449l-29 -164h-651z" />
    <glyph glyph-name="threequarters" unicode="&#xbe;" horiz-adv-x="1905" 
d="M870 1240q0 -33 -9.5 -66t-28 -63t-46 -55t-64.5 -42q57 -16 85 -58.5t28 -111.5q0 -68 -26.5 -127t-76.5 -102.5t-123.5 -68.5t-167.5 -25q-101 0 -177.5 40.5t-128.5 102.5l127 115q40 -45 89.5 -73t112.5 -28q50 0 87 12t61.5 33t36.5 49t12 60q0 48 -37.5 73
t-104.5 25h-99l26 147h91q34 0 63 9.5t49.5 26t32 40t11.5 52.5q0 44 -28 68t-96 24q-57 0 -104.5 -22.5t-95.5 -58.5l-85 119q29 22 63 43.5t73 38.5t82 27t90 10q60 0 111 -12.5t88 -38.5t58 -66.5t21 -96.5zM588 0h-238l1215 1434h237zM1461 199h-465l23 129l565 583h168
l-98 -559h117l-27 -155h-117l-35 -195h-166zM1488 352l57 323l-311 -323h254z" />
    <glyph glyph-name="questiondown" unicode="&#xbf;" horiz-adv-x="1161" 
d="M74 326q0 80 19 140.5t56.5 108t93 85.5t128.5 73q50 24 90 46t70 52.5t50 74t29 110.5h211q-11 -100 -35 -167t-63 -114.5t-93.5 -81t-127.5 -65.5q-48 -21 -86.5 -43.5t-65.5 -48.5t-42 -58.5t-15 -72.5q0 -80 64.5 -127.5t177.5 -47.5q50 0 99 9.5t98 28.5t88.5 42
t99.5 68l110 -172q-108 -88 -237 -138.5t-279 -50.5q-105 0 -187 27t-138.5 74t-85.5 110.5t-29 137.5zM608 1303q0 31 12 59t33 49t49 33t60 12q31 0 59 -12t49 -33t33 -49t12 -59q0 -32 -12 -60t-33 -49.5t-49 -34t-59 -12.5q-32 0 -60 12.5t-49 34t-33 49.5t-12 60z" />
    <glyph glyph-name="Agrave" unicode="&#xc0;" horiz-adv-x="1448" 
d="M1030 0l-59 342h-557l-178 -342h-234l770 1434h217l266 -1434h-225zM837 1145l-329 -613h434zM832 1526l-281 327h287l161 -327h-167z" />
    <glyph glyph-name="Aacute" unicode="&#xc1;" horiz-adv-x="1448" 
d="M1030 0l-59 342h-557l-178 -342h-234l770 1434h217l266 -1434h-225zM837 1145l-329 -613h434zM917 1526h-168l277 327h286z" />
    <glyph glyph-name="Acircumflex" unicode="&#xc2;" horiz-adv-x="1448" 
d="M1030 0l-59 342h-557l-178 -342h-234l770 1434h217l266 -1434h-225zM837 1145l-329 -613h434zM1064 1506l-163 180l-226 -180h-174l297 327h246l182 -327h-162z" />
    <glyph glyph-name="Atilde" unicode="&#xc3;" horiz-adv-x="1448" 
d="M1030 0l-59 342h-557l-178 -342h-234l770 1434h217l266 -1434h-225zM837 1145l-329 -613h434zM1321 1798q-16 -85 -37 -131t-50.5 -79t-68 -51t-88.5 -18q-52 0 -96.5 18t-83.5 41t-75 41.5t-64 18.5q-34 0 -58 -24.5t-43 -87.5h-145q14 76 37 126t52.5 83.5t68.5 51
t86 17.5q48 0 93 -17.5t84 -39.5q41 -24 78 -43t66 -19q34 0 57 25t42 88h145z" />
    <glyph glyph-name="Adieresis" unicode="&#xc4;" horiz-adv-x="1448" 
d="M1030 0l-59 342h-557l-178 -342h-234l770 1434h217l266 -1434h-225zM837 1145l-329 -613h434zM1249 1663q0 -28 -11 -53t-30 -43.5t-43.5 -29.5t-52.5 -11q-29 0 -54 11t-44 29.5t-30 43.5t-11 53t11 53.5t30 44.5t44 30t54 11q28 0 52.5 -11t43.5 -30t30 -44.5t11 -53.5
zM850 1663q0 -28 -11 -53t-30 -43.5t-44 -29.5t-52 -11q-29 0 -54 11t-44.5 29.5t-30.5 43.5t-11 53t11 53.5t30.5 44.5t44.5 30t54 11q27 0 52 -11t44 -30t30 -44.5t11 -53.5z" />
    <glyph glyph-name="Aring" unicode="&#xc5;" horiz-adv-x="1448" 
d="M1030 0l-59 342h-557l-178 -342h-234l729 1358q-42 34 -65 84.5t-23 111.5q0 55 19.5 102.5t54 82t82 54t102.5 19.5t102.5 -19.5t82 -54t54 -82t19.5 -102.5q0 -80 -39.5 -141t-105.5 -92l246 -1321h-230zM837 1145l-329 -613h434zM1026 1554q0 28 -9.5 51t-26 40
t-39.5 26.5t-50 9.5t-50 -9.5t-39.5 -26.5t-26 -40t-9.5 -51q0 -27 9.5 -50.5t26 -40.5t39.5 -26.5t50 -9.5t50 9.5t39.5 26.5t26 40.5t9.5 50.5z" />
    <glyph glyph-name="AE" unicode="&#xc6;" horiz-adv-x="2085" 
d="M1178 209h731l-37 -209h-948l55 309h-537l-260 -309h-254l1205 1434h960l-37 -209h-700l-62 -355h566l-37 -208h-566zM600 508h414l108 622z" />
    <glyph glyph-name="Ccedilla" unicode="&#xc7;" horiz-adv-x="1333" 
d="M1112 1057q-23 46 -47.5 77.5t-59.5 57t-79.5 39.5t-102.5 14q-96 0 -181.5 -48.5t-149 -134.5t-101 -204.5t-37.5 -259.5q0 -98 22 -174t63 -128.5t99 -80t130 -27.5q103 0 185 50.5t155 138.5l155 -135q-47 -63 -97.5 -109t-117.5 -83t-139 -55t-154 -18
q-114 0 -209.5 37.5t-165 111.5t-108.5 184.5t-39 256.5q0 134 26 251.5t73 216.5t112.5 177t145 132.5t170.5 83t188 28.5q88 0 161.5 -21t132 -60.5t102 -95.5t71.5 -126zM835 -208q0 -47 -20 -83t-51.5 -58.5t-74.5 -34t-94 -11.5q-86 0 -157.5 27t-120.5 65l55 67
q43 -30 91.5 -47.5t107.5 -17.5q51 0 82.5 17.5t33.5 56.5q3 30 -12 45.5t-49 15.5q-23 0 -41 -5.5t-37 -16.5l-70 28l89 199h100l-57 -133q17 8 37.5 13t48.5 5q65 0 102 -35t37 -97z" />
    <glyph glyph-name="Egrave" unicode="&#xc8;" horiz-adv-x="1251" 
d="M92 0l252 1434h916l-37 -209h-701l-61 -355h565l-37 -208h-565l-80 -453h731l-37 -209h-946zM746 1526l-281 327h287l161 -327h-167z" />
    <glyph glyph-name="Eacute" unicode="&#xc9;" horiz-adv-x="1251" 
d="M92 0l252 1434h916l-37 -209h-701l-61 -355h565l-37 -208h-565l-80 -453h731l-37 -209h-946zM823 1526h-168l277 327h286z" />
    <glyph glyph-name="Ecircumflex" unicode="&#xca;" horiz-adv-x="1251" 
d="M92 0l252 1434h916l-37 -209h-701l-61 -355h565l-37 -208h-565l-80 -453h731l-37 -209h-946zM1008 1526l-163 180l-226 -180h-174l297 327h246l182 -327h-162z" />
    <glyph glyph-name="Edieresis" unicode="&#xcb;" horiz-adv-x="1251" 
d="M92 0l252 1434h916l-37 -209h-701l-61 -355h565l-37 -208h-565l-80 -453h731l-37 -209h-946zM1165 1663q0 -28 -11 -53t-30 -43.5t-43.5 -29.5t-52.5 -11q-29 0 -54 11t-44 29.5t-30 43.5t-11 53t11 53.5t30 44.5t44 30t54 11q28 0 52.5 -11t43.5 -30t30 -44.5t11 -53.5z
M766 1663q0 -28 -11 -53t-30 -43.5t-44 -29.5t-52 -11q-29 0 -54 11t-44.5 29.5t-30.5 43.5t-11 53t11 53.5t30.5 44.5t44.5 30t54 11q27 0 52 -11t44 -30t30 -44.5t11 -53.5z" />
    <glyph glyph-name="Igrave" unicode="&#xcc;" horiz-adv-x="608" 
d="M317 0h-215l254 1434h215zM396 1526l-281 327h287l161 -327h-167z" />
    <glyph glyph-name="Iacute" unicode="&#xcd;" horiz-adv-x="608" 
d="M317 0h-215l254 1434h215zM547 1526h-168l277 327h286z" />
    <glyph glyph-name="Icircumflex" unicode="&#xce;" horiz-adv-x="608" 
d="M317 0h-215l254 1434h215zM667 1512l-163 180l-226 -180h-174l297 327h246l182 -327h-162z" />
    <glyph glyph-name="Idieresis" unicode="&#xcf;" horiz-adv-x="608" 
d="M317 0h-215l254 1434h215zM837 1661q0 -28 -11 -53t-30 -43.5t-43.5 -29.5t-52.5 -11q-29 0 -54 11t-44 29.5t-30 43.5t-11 53t11 53.5t30 44.5t44 30t54 11q28 0 52.5 -11t43.5 -30t30 -44.5t11 -53.5zM438 1661q0 -28 -11 -53t-30 -43.5t-44 -29.5t-52 -11
q-29 0 -54 11t-44.5 29.5t-30.5 43.5t-11 53t11 53.5t30.5 44.5t44.5 30t54 11q27 0 52 -11t44 -30t30 -44.5t11 -53.5z" />
    <glyph glyph-name="Eth" unicode="&#xd0;" horiz-adv-x="1423" 
d="M1347 848q1 -164 -39 -298t-107 -227.5t-145.5 -153t-165.5 -97t-179 -55t-181 -17.5h-407l115 647h-136l35 205h135l103 582h284q171 0 304.5 -41t222.5 -124.5t125 -191.5t36 -229zM1124 814q0 112 -29 185t-88.5 124t-150 75.5t-207.5 24.5h-102l-66 -371h252
l-35 -205h-252l-77 -436h188q88 0 167 22t141.5 59.5t110 89.5t78 111t48.5 129.5t22 191.5z" />
    <glyph glyph-name="Ntilde" unicode="&#xd1;" horiz-adv-x="1454" 
d="M1174 0h-197l-488 1071l-186 -1071h-211l254 1434h207l478 -1066l186 1066h210zM1311 1802q-16 -85 -37 -131t-50.5 -79t-68 -51t-88.5 -18q-52 0 -96.5 18t-83.5 41t-75 41.5t-64 18.5q-34 0 -58 -24.5t-43 -87.5h-145q14 76 37 126t52.5 83.5t68.5 51t86 17.5
q48 0 93 -17.5t84 -39.5q41 -24 78 -43t66 -19q34 0 57 25t42 88h145z" />
    <glyph glyph-name="Ograve" unicode="&#xd2;" horiz-adv-x="1448" 
d="M1382 875q0 -115 -25.5 -237t-70.5 -220t-101 -172.5t-134 -136.5t-174.5 -97t-204.5 -35q-147 0 -258.5 57t-180.5 160t-85.5 207t-16.5 174q1 97 26 218t70 220t99 170.5t128 132.5t177 100.5t221 39.5q144 0 253 -57.5t170.5 -150.5t83.5 -188.5t23 -184.5zM1158 810
q2 76 -10.5 145.5t-52 139t-110.5 112t-166 42.5q-97 0 -185.5 -52.5t-154.5 -156t-94 -223t-30 -197.5q-2 -53 9 -130t52.5 -150t110.5 -114.5t159 -41.5q101 0 191 51.5t155.5 151.5t95.5 222t30 201zM818 1526l-281 327h287l161 -327h-167z" />
    <glyph glyph-name="Oacute" unicode="&#xd3;" horiz-adv-x="1448" 
d="M1382 875q0 -115 -25.5 -237t-70.5 -220t-101 -172.5t-134 -136.5t-174.5 -97t-204.5 -35q-147 0 -258.5 57t-180.5 160t-85.5 207t-16.5 174q1 97 26 218t70 220t99 170.5t128 132.5t177 100.5t221 39.5q144 0 253 -57.5t170.5 -150.5t83.5 -188.5t23 -184.5zM1158 810
q2 76 -10.5 145.5t-52 139t-110.5 112t-166 42.5q-97 0 -185.5 -52.5t-154.5 -156t-94 -223t-30 -197.5q-2 -53 9 -130t52.5 -150t110.5 -114.5t159 -41.5q101 0 191 51.5t155.5 151.5t95.5 222t30 201zM899 1526h-168l277 327h286z" />
    <glyph glyph-name="Ocircumflex" unicode="&#xd4;" horiz-adv-x="1448" 
d="M1382 875q0 -115 -25.5 -237t-70.5 -220t-101 -172.5t-134 -136.5t-174.5 -97t-204.5 -35q-147 0 -258.5 57t-180.5 160t-85.5 207t-16.5 174q1 97 26 218t70 220t99 170.5t128 132.5t177 100.5t221 39.5q144 0 253 -57.5t170.5 -150.5t83.5 -188.5t23 -184.5zM1158 810
q2 76 -10.5 145.5t-52 139t-110.5 112t-166 42.5q-97 0 -185.5 -52.5t-154.5 -156t-94 -223t-30 -197.5q-2 -53 9 -130t52.5 -150t110.5 -114.5t159 -41.5q101 0 191 51.5t155.5 151.5t95.5 222t30 201zM1081 1516l-163 180l-226 -180h-174l297 327h246l182 -327h-162z" />
    <glyph glyph-name="Otilde" unicode="&#xd5;" horiz-adv-x="1448" 
d="M1382 875q0 -115 -25.5 -237t-70.5 -220t-101 -172.5t-134 -136.5t-174.5 -97t-204.5 -35q-147 0 -258.5 57t-180.5 160t-85.5 207t-16.5 174q1 97 26 218t70 220t99 170.5t128 132.5t177 100.5t221 39.5q144 0 253 -57.5t170.5 -150.5t83.5 -188.5t23 -184.5zM1158 810
q2 76 -10.5 145.5t-52 139t-110.5 112t-166 42.5q-97 0 -185.5 -52.5t-154.5 -156t-94 -223t-30 -197.5q-2 -53 9 -130t52.5 -150t110.5 -114.5t159 -41.5q101 0 191 51.5t155.5 151.5t95.5 222t30 201zM1319 1798q-16 -85 -37 -131t-50.5 -79t-68 -51t-88.5 -18
q-52 0 -96.5 18t-83.5 41t-75 41.5t-64 18.5q-34 0 -58 -24.5t-43 -87.5h-145q14 76 37 126t52.5 83.5t68.5 51t86 17.5q48 0 93 -17.5t84 -39.5q41 -24 78 -43t66 -19q34 0 57 25t42 88h145z" />
    <glyph glyph-name="Odieresis" unicode="&#xd6;" horiz-adv-x="1448" 
d="M1382 875q0 -115 -25.5 -237t-70.5 -220t-101 -172.5t-134 -136.5t-174.5 -97t-204.5 -35q-147 0 -258.5 57t-180.5 160t-85.5 207t-16.5 174q1 97 26 218t70 220t99 170.5t128 132.5t177 100.5t221 39.5q144 0 253 -57.5t170.5 -150.5t83.5 -188.5t23 -184.5zM1158 810
q2 76 -10.5 145.5t-52 139t-110.5 112t-166 42.5q-97 0 -185.5 -52.5t-154.5 -156t-94 -223t-30 -197.5q-2 -53 9 -130t52.5 -150t110.5 -114.5t159 -41.5q101 0 191 51.5t155.5 151.5t95.5 222t30 201zM1243 1663q0 -28 -11 -53t-30 -43.5t-43.5 -29.5t-52.5 -11
q-29 0 -54 11t-44 29.5t-30 43.5t-11 53t11 53.5t30 44.5t44 30t54 11q28 0 52.5 -11t43.5 -30t30 -44.5t11 -53.5zM844 1663q0 -28 -11 -53t-30 -43.5t-44 -29.5t-52 -11q-29 0 -54 11t-44.5 29.5t-30.5 43.5t-11 53t11 53.5t30.5 44.5t44.5 30t54 11q27 0 52 -11t44 -30
t30 -44.5t11 -53.5z" />
    <glyph glyph-name="multiply" unicode="&#xd7;" 
d="M1019 207l-364 371l-365 -371l-133 133l371 365l-371 364l133 133l365 -371l364 371l134 -133l-371 -364l371 -365z" />
    <glyph glyph-name="Oslash" unicode="&#xd8;" horiz-adv-x="1448" 
d="M289 125q-81 83 -119 196t-38 237q0 126 25.5 242t70.5 214.5t101 173t136 137t179.5 97t207.5 34.5q138 0 244 -53l84 133h200l-147 -236q71 -77 109.5 -188t38.5 -237t-25 -242.5t-70 -214.5t-101 -172.5t-134 -136.5t-174.5 -97t-204.5 -35q-144 1 -244 50l-82 -129
h-201zM975 1212q-69 37 -149 37q-100 0 -185 -48t-152 -146t-100.5 -224.5t-33.5 -235.5q-1 -148 65 -261zM547 215q64 -31 139 -31q98 0 184 47t154 144t101.5 224.5t33.5 236.5q1 144 -59 254z" />
    <glyph glyph-name="Ugrave" unicode="&#xd9;" horiz-adv-x="1434" 
d="M1266 580q-26 -144 -71.5 -256t-117.5 -189t-172.5 -117.5t-234.5 -40.5q-117 0 -209 31.5t-156 92t-97.5 149.5t-33.5 205q2 35 6.5 79t12.5 89l143 811h215l-143 -811q-7 -38 -11 -73.5t-4 -66.5q0 -147 75.5 -222t219.5 -75q83 0 143 27t104 79t70.5 119.5t49.5 184.5
l147 838h215zM844 1495l-281 327h287l161 -327h-167z" />
    <glyph glyph-name="Uacute" unicode="&#xda;" horiz-adv-x="1434" 
d="M1266 580q-26 -144 -71.5 -256t-117.5 -189t-172.5 -117.5t-234.5 -40.5q-117 0 -209 31.5t-156 92t-97.5 149.5t-33.5 205q2 35 6.5 79t12.5 89l143 811h215l-143 -811q-7 -38 -11 -73.5t-4 -66.5q0 -147 75.5 -222t219.5 -75q83 0 143 27t104 79t70.5 119.5t49.5 184.5
l147 838h215zM897 1495h-168l277 327h286z" />
    <glyph glyph-name="Ucircumflex" unicode="&#xdb;" horiz-adv-x="1434" 
d="M1266 580q-26 -144 -71.5 -256t-117.5 -189t-172.5 -117.5t-234.5 -40.5q-117 0 -209 31.5t-156 92t-97.5 149.5t-33.5 205q2 35 6.5 79t12.5 89l143 811h215l-143 -811q-7 -38 -11 -73.5t-4 -66.5q0 -147 75.5 -222t219.5 -75q83 0 143 27t104 79t70.5 119.5t49.5 184.5
l147 838h215zM1091 1526l-163 180l-226 -180h-174l297 327h246l182 -327h-162z" />
    <glyph glyph-name="Udieresis" unicode="&#xdc;" horiz-adv-x="1434" 
d="M1266 580q-26 -144 -71.5 -256t-117.5 -189t-172.5 -117.5t-234.5 -40.5q-117 0 -209 31.5t-156 92t-97.5 149.5t-33.5 205q2 35 6.5 79t12.5 89l143 811h215l-143 -811q-7 -38 -11 -73.5t-4 -66.5q0 -147 75.5 -222t219.5 -75q83 0 143 27t104 79t70.5 119.5t49.5 184.5
l147 838h215zM1249 1663q0 -28 -11 -53t-30 -43.5t-43.5 -29.5t-52.5 -11q-29 0 -54 11t-44 29.5t-30 43.5t-11 53t11 53.5t30 44.5t44 30t54 11q28 0 52.5 -11t43.5 -30t30 -44.5t11 -53.5zM850 1663q0 -28 -11 -53t-30 -43.5t-44 -29.5t-52 -11q-29 0 -54 11t-44.5 29.5
t-30.5 43.5t-11 53t11 53.5t30.5 44.5t44.5 30t54 11q27 0 52 -11t44 -30t30 -44.5t11 -53.5z" />
    <glyph glyph-name="Yacute" unicode="&#xdd;" horiz-adv-x="1403" 
d="M813 565l-98 -565h-215l100 567l-356 867h239l258 -651l488 651h250zM870 1498h-168l277 327h286z" />
    <glyph glyph-name="Thorn" unicode="&#xde;" horiz-adv-x="1313" 
d="M1262 764q-10 -127 -57 -216t-122.5 -145.5t-174 -82t-212.5 -25.5h-338l-51 -295h-215l252 1434h215l-43 -240h275q106 0 196.5 -27.5t154.5 -81.5t96.5 -134.5t23.5 -186.5zM1040 760q3 57 -14 99.5t-52 71t-87 42.5t-119 14h-287l-86 -485h322q145 0 230 66.5
t93 191.5z" />
    <glyph glyph-name="germandbls" unicode="&#xdf;" horiz-adv-x="1176" 
d="M1077 1165q0 -70 -18.5 -128.5t-51.5 -104t-78 -76.5t-98 -45q44 -12 87 -36.5t77 -62.5t55 -92t21 -126q0 -131 -42 -224t-115.5 -152.5t-174 -87.5t-217.5 -28q-40 0 -82 4l31 193q32 -2 61 -2q155 0 240.5 74.5t85.5 211.5q0 109 -71.5 170.5t-202.5 61.5h-19l33 190
h31q55 0 98.5 17t74 47.5t46.5 72t16 91.5q0 71 -49 115t-131 44q-100 0 -151.5 -57t-69.5 -158l-240 -1360l-229 -112l258 1472q38 212 147 311t295 99q87 0 157.5 -23t121 -65.5t77.5 -102t27 -131.5z" />
    <glyph glyph-name="agrave" unicode="&#xe0;" horiz-adv-x="1110" 
d="M1012 803q0 -22 -2.5 -43.5t-5.5 -44.5l-125 -715h-207l16 96q-50 -49 -121.5 -84t-163.5 -35q-74 0 -138.5 22t-111.5 65.5t-68 101t-21 124.5q1 113 44.5 192t106.5 123t140 65.5t161 21.5q67 0 138.5 -13t127.5 -40l15 78q3 15 4.5 32t1.5 29q0 69 -47.5 100
t-149.5 31q-75 0 -143.5 -18t-130.5 -49l-60 168q82 41 177.5 64.5t181.5 23.5q87 0 157 -17.5t120 -53.5t77 -91.5t27 -132.5zM754 465q-42 23 -104.5 38t-143.5 15q-47 0 -89.5 -11.5t-75 -36t-52 -63t-19.5 -91.5q0 -75 49 -115.5t138 -40.5q40 0 78.5 11t73 29
t63.5 41.5t51 49.5zM646 1219l-281 327h287l161 -327h-167z" />
    <glyph glyph-name="aacute" unicode="&#xe1;" horiz-adv-x="1110" 
d="M1012 803q0 -22 -2.5 -43.5t-5.5 -44.5l-125 -715h-207l16 96q-50 -49 -121.5 -84t-163.5 -35q-74 0 -138.5 22t-111.5 65.5t-68 101t-21 124.5q1 113 44.5 192t106.5 123t140 65.5t161 21.5q67 0 138.5 -13t127.5 -40l15 78q3 15 4.5 32t1.5 29q0 69 -47.5 100
t-149.5 31q-75 0 -143.5 -18t-130.5 -49l-60 168q82 41 177.5 64.5t181.5 23.5q87 0 157 -17.5t120 -53.5t77 -91.5t27 -132.5zM754 465q-42 23 -104.5 38t-143.5 15q-47 0 -89.5 -11.5t-75 -36t-52 -63t-19.5 -91.5q0 -75 49 -115.5t138 -40.5q40 0 78.5 11t73 29
t63.5 41.5t51 49.5zM715 1219h-168l277 327h286z" />
    <glyph glyph-name="acircumflex" unicode="&#xe2;" horiz-adv-x="1110" 
d="M1012 803q0 -22 -2.5 -43.5t-5.5 -44.5l-125 -715h-207l16 96q-50 -49 -121.5 -84t-163.5 -35q-74 0 -138.5 22t-111.5 65.5t-68 101t-21 124.5q1 113 44.5 192t106.5 123t140 65.5t161 21.5q67 0 138.5 -13t127.5 -40l15 78q3 15 4.5 32t1.5 29q0 69 -47.5 100
t-149.5 31q-75 0 -143.5 -18t-130.5 -49l-60 168q82 41 177.5 64.5t181.5 23.5q87 0 157 -17.5t120 -53.5t77 -91.5t27 -132.5zM754 465q-42 23 -104.5 38t-143.5 15q-47 0 -89.5 -11.5t-75 -36t-52 -63t-19.5 -91.5q0 -75 49 -115.5t138 -40.5q40 0 78.5 11t73 29
t63.5 41.5t51 49.5zM880 1211l-163 180l-226 -180h-174l297 327h246l182 -327h-162z" />
    <glyph glyph-name="atilde" unicode="&#xe3;" horiz-adv-x="1110" 
d="M1012 803q0 -22 -2.5 -43.5t-5.5 -44.5l-125 -715h-207l16 96q-50 -49 -121.5 -84t-163.5 -35q-74 0 -138.5 22t-111.5 65.5t-68 101t-21 124.5q1 113 44.5 192t106.5 123t140 65.5t161 21.5q67 0 138.5 -13t127.5 -40l15 78q3 15 4.5 32t1.5 29q0 69 -47.5 100
t-149.5 31q-75 0 -143.5 -18t-130.5 -49l-60 168q82 41 177.5 64.5t181.5 23.5q87 0 157 -17.5t120 -53.5t77 -91.5t27 -132.5zM754 465q-42 23 -104.5 38t-143.5 15q-47 0 -89.5 -11.5t-75 -36t-52 -63t-19.5 -91.5q0 -75 49 -115.5t138 -40.5q40 0 78.5 11t73 29
t63.5 41.5t51 49.5zM1094 1491q-16 -85 -37 -131t-50.5 -79t-68 -51t-88.5 -18q-52 0 -96.5 18t-83.5 41t-75 41.5t-64 18.5q-34 0 -58 -24.5t-43 -87.5h-145q14 76 37 126t52.5 83.5t68.5 51t86 17.5q48 0 93 -17.5t84 -39.5q41 -24 78 -43t66 -19q34 0 57 25t42 88h145z
" />
    <glyph glyph-name="adieresis" unicode="&#xe4;" horiz-adv-x="1110" 
d="M1012 803q0 -22 -2.5 -43.5t-5.5 -44.5l-125 -715h-207l16 96q-50 -49 -121.5 -84t-163.5 -35q-74 0 -138.5 22t-111.5 65.5t-68 101t-21 124.5q1 113 44.5 192t106.5 123t140 65.5t161 21.5q67 0 138.5 -13t127.5 -40l15 78q3 15 4.5 32t1.5 29q0 69 -47.5 100
t-149.5 31q-75 0 -143.5 -18t-130.5 -49l-60 168q82 41 177.5 64.5t181.5 23.5q87 0 157 -17.5t120 -53.5t77 -91.5t27 -132.5zM754 465q-42 23 -104.5 38t-143.5 15q-47 0 -89.5 -11.5t-75 -36t-52 -63t-19.5 -91.5q0 -75 49 -115.5t138 -40.5q40 0 78.5 11t73 29
t63.5 41.5t51 49.5zM1040 1348q0 -28 -11 -53t-30 -43.5t-43.5 -29.5t-52.5 -11q-29 0 -54 11t-44 29.5t-30 43.5t-11 53t11 53.5t30 44.5t44 30t54 11q28 0 52.5 -11t43.5 -30t30 -44.5t11 -53.5zM641 1348q0 -28 -11 -53t-30 -43.5t-44 -29.5t-52 -11q-29 0 -54 11
t-44.5 29.5t-30.5 43.5t-11 53t11 53.5t30.5 44.5t44.5 30t54 11q27 0 52 -11t44 -30t30 -44.5t11 -53.5z" />
    <glyph glyph-name="aring" unicode="&#xe5;" horiz-adv-x="1110" 
d="M1012 803q0 -22 -2.5 -43.5t-5.5 -44.5l-125 -715h-207l16 96q-50 -49 -121.5 -84t-163.5 -35q-74 0 -138.5 22t-111.5 65.5t-68 101t-21 124.5q1 113 44.5 192t106.5 123t140 65.5t161 21.5q67 0 138.5 -13t127.5 -40l15 78q3 15 4.5 32t1.5 29q0 69 -47.5 100
t-149.5 31q-75 0 -143.5 -18t-130.5 -49l-60 168q82 41 177.5 64.5t181.5 23.5q87 0 157 -17.5t120 -53.5t77 -91.5t27 -132.5zM754 465q-42 23 -104.5 38t-143.5 15q-47 0 -89.5 -11.5t-75 -36t-52 -63t-19.5 -91.5q0 -75 49 -115.5t138 -40.5q40 0 78.5 11t73 29
t63.5 41.5t51 49.5zM987 1475q0 -56 -19.5 -102.5t-54 -81t-82 -53.5t-102.5 -19q-56 0 -103 19t-81.5 53.5t-54 81t-19.5 102.5q0 55 19.5 102.5t54 82t81.5 54t103 19.5q55 0 102.5 -19.5t82 -54t54 -82t19.5 -102.5zM854 1475q0 27 -9.5 50.5t-26.5 40.5t-39.5 26.5
t-49.5 9.5t-50 -9.5t-39.5 -26.5t-26 -40.5t-9.5 -50.5q0 -28 9.5 -51t26 -40t39.5 -26.5t50 -9.5t49.5 9.5t39.5 26.5t26.5 40t9.5 51z" />
    <glyph glyph-name="ae" unicode="&#xe6;" horiz-adv-x="1747" 
d="M1636 662q0 -57 -7 -108t-19 -89h-674q-6 -69 9.5 -122.5t48 -90t80 -55.5t106.5 -19q58 0 114 20t113 58l102 -152q-85 -66 -173.5 -96.5t-178.5 -30.5q-121 0 -209 48t-141 127q-92 -84 -191 -129.5t-210 -45.5q-78 0 -143.5 23t-111.5 67.5t-68.5 110.5t-16.5 152
q7 93 46 161t101.5 113t142.5 66.5t168 21.5q67 0 130.5 -14.5t113.5 -38.5l16 90q2 11 3 23.5t1 23.5q0 66 -43 102.5t-133 36.5q-75 0 -142.5 -16.5t-135.5 -50.5l-60 162q76 39 172 63.5t189 24.5q115 0 192 -34t115 -110q60 66 138.5 105t172.5 39q100 0 172.5 -35.5
t119 -95.5t69 -139t22.5 -166zM1436 635q5 57 -4.5 107t-35 86.5t-67 57.5t-100.5 21q-52 0 -95 -20.5t-76 -57t-56.5 -86.5t-36.5 -108h471zM737 299q-2 7 -4.5 35.5t0.5 68.5l6 62q-43 23 -97.5 38t-135.5 15q-46 0 -87 -11t-73 -36t-49.5 -60t-20.5 -83q-2 -79 43 -123.5
t138 -44.5q73 0 146.5 38t133.5 101z" />
    <glyph glyph-name="ccedilla" unicode="&#xe7;" horiz-adv-x="1061" 
d="M856 748q-46 72 -105 110.5t-135 38.5q-58 0 -111 -25.5t-98 -80.5t-73 -142t-28 -194q0 -127 63 -202t178 -75q65 0 122 29.5t117 85.5l113 -143q-87 -85 -180.5 -129t-198.5 -44q-104 0 -187 38.5t-138.5 107.5t-79 153t-23.5 167q0 151 46 278t127 213t176.5 125
t191.5 39q77 0 136 -17.5t104 -46.5t79 -67t60 -78zM680 -208q0 -47 -20 -83t-51.5 -58.5t-74.5 -34t-94 -11.5q-86 0 -157.5 27t-120.5 65l55 67q43 -30 91.5 -47.5t107.5 -17.5q51 0 82.5 17.5t33.5 56.5q3 30 -12 45.5t-49 15.5q-23 0 -41 -5.5t-37 -16.5l-70 28l89 199
h100l-57 -133q17 8 37.5 13t48.5 5q65 0 102 -35t37 -97z" />
    <glyph glyph-name="egrave" unicode="&#xe8;" horiz-adv-x="1116" 
d="M1006 664q0 -53 -7.5 -103.5t-19.5 -95.5h-682q-6 -70 10 -125t49 -93.5t81.5 -58.5t107.5 -20q66 0 123.5 23.5t117.5 60.5l93 -148q-84 -63 -172 -95t-191 -32q-104 0 -187 37.5t-138.5 106t-77 153.5t-21.5 170q0 144 45 273.5t122 215.5t168.5 125.5t188.5 39.5
t170 -33t122 -91t73.5 -137.5t24.5 -172.5zM805 635q5 58 -4.5 108t-35.5 86.5t-68.5 57t-102.5 20.5q-54 0 -97.5 -20.5t-77 -56.5t-57.5 -86t-38 -109h481zM621 1219l-281 327h287l161 -327h-167z" />
    <glyph glyph-name="eacute" unicode="&#xe9;" horiz-adv-x="1116" 
d="M1006 664q0 -53 -7.5 -103.5t-19.5 -95.5h-682q-6 -70 10 -125t49 -93.5t81.5 -58.5t107.5 -20q66 0 123.5 23.5t117.5 60.5l93 -148q-84 -63 -172 -95t-191 -32q-104 0 -187 37.5t-138.5 106t-77 153.5t-21.5 170q0 144 45 273.5t122 215.5t168.5 125.5t188.5 39.5
t170 -33t122 -91t73.5 -137.5t24.5 -172.5zM805 635q5 58 -4.5 108t-35.5 86.5t-68.5 57t-102.5 20.5q-54 0 -97.5 -20.5t-77 -56.5t-57.5 -86t-38 -109h481zM711 1219h-168l277 327h286z" />
    <glyph glyph-name="ecircumflex" unicode="&#xea;" horiz-adv-x="1116" 
d="M1006 664q0 -53 -7.5 -103.5t-19.5 -95.5h-682q-6 -70 10 -125t49 -93.5t81.5 -58.5t107.5 -20q66 0 123.5 23.5t117.5 60.5l93 -148q-84 -63 -172 -95t-191 -32q-104 0 -187 37.5t-138.5 106t-77 153.5t-21.5 170q0 144 45 273.5t122 215.5t168.5 125.5t188.5 39.5
t170 -33t122 -91t73.5 -137.5t24.5 -172.5zM805 635q5 58 -4.5 108t-35.5 86.5t-68.5 57t-102.5 20.5q-54 0 -97.5 -20.5t-77 -56.5t-57.5 -86t-38 -109h481zM876 1201l-163 180l-226 -180h-174l297 327h246l182 -327h-162z" />
    <glyph glyph-name="edieresis" unicode="&#xeb;" horiz-adv-x="1116" 
d="M1006 664q0 -53 -7.5 -103.5t-19.5 -95.5h-682q-6 -70 10 -125t49 -93.5t81.5 -58.5t107.5 -20q66 0 123.5 23.5t117.5 60.5l93 -148q-84 -63 -172 -95t-191 -32q-104 0 -187 37.5t-138.5 106t-77 153.5t-21.5 170q0 144 45 273.5t122 215.5t168.5 125.5t188.5 39.5
t170 -33t122 -91t73.5 -137.5t24.5 -172.5zM805 635q5 58 -4.5 108t-35.5 86.5t-68.5 57t-102.5 20.5q-54 0 -97.5 -20.5t-77 -56.5t-57.5 -86t-38 -109h481zM1038 1348q0 -28 -11 -53t-30 -43.5t-43.5 -29.5t-52.5 -11q-29 0 -54 11t-44 29.5t-30 43.5t-11 53t11 53.5
t30 44.5t44 30t54 11q28 0 52.5 -11t43.5 -30t30 -44.5t11 -53.5zM639 1348q0 -28 -11 -53t-30 -43.5t-44 -29.5t-52 -11q-29 0 -54 11t-44.5 29.5t-30.5 43.5t-11 53t11 53.5t30.5 44.5t44.5 30t54 11q27 0 52 -11t44 -30t30 -44.5t11 -53.5z" />
    <glyph glyph-name="igrave" unicode="&#xec;" horiz-adv-x="543" 
d="M283 0h-211l188 1075h211zM330 1219l-281 327h287l161 -327h-167z" />
    <glyph glyph-name="iacute" unicode="&#xed;" horiz-adv-x="543" 
d="M283 0h-211l188 1075h211zM452 1219h-168l277 327h286z" />
    <glyph glyph-name="icircumflex" unicode="&#xee;" horiz-adv-x="543" 
d="M283 0h-211l188 1075h211zM591 1190l-163 180l-226 -180h-174l297 327h246l182 -327h-162z" />
    <glyph glyph-name="idieresis" unicode="&#xef;" horiz-adv-x="543" 
d="M283 0h-211l188 1075h211zM753 1338q0 -28 -11 -53t-30 -43.5t-43.5 -29.5t-52.5 -11q-29 0 -54 11t-44 29.5t-30 43.5t-11 53t11 53.5t30 44.5t44 30t54 11q28 0 52.5 -11t43.5 -30t30 -44.5t11 -53.5zM354 1338q0 -28 -11 -53t-30 -43.5t-44 -29.5t-52 -11
q-29 0 -54 11t-44.5 29.5t-30.5 43.5t-11 53t11 53.5t30.5 44.5t44.5 30t54 11q27 0 52 -11t44 -30t30 -44.5t11 -53.5z" />
    <glyph glyph-name="eth" unicode="&#xf0;" horiz-adv-x="1159" 
d="M1085 782q0 -146 -22.5 -262.5t-62.5 -206t-94.5 -153.5t-118 -104.5t-132.5 -59.5t-139 -19q-98 0 -177 31t-135.5 86.5t-87 133.5t-30.5 171q0 134 47 247.5t124.5 188.5t165 110.5t173.5 35.5q117 0 191.5 -36.5t117.5 -96.5q-9 91 -35 170t-86 141l-120 -108
l-103 106l96 86q-79 33 -157 45l28 172q156 -21 277 -86l92 82l102 -106l-75 -68q78 -83 119.5 -206t41.5 -294zM840 553q0 55 -17.5 99t-49.5 75t-77.5 47.5t-101.5 16.5q-63 0 -116.5 -28.5t-92 -79.5t-60.5 -122t-22 -155q0 -112 58.5 -174t173.5 -62q64 0 120 29.5
t97 81t64.5 121.5t23.5 151z" />
    <glyph glyph-name="ntilde" unicode="&#xf1;" horiz-adv-x="1159" 
d="M1040 764q0 -31 -4 -66.5t-10 -70.5l-111 -627h-210l104 600q5 28 7.5 55t2.5 50q0 102 -40 150t-134 48q-47 0 -90 -18.5t-77 -54.5t-60 -90t-43 -142l-105 -598h-211l191 1075h211l-17 -92q55 56 120.5 85.5t146.5 29.5q159 0 244 -84.5t85 -249.5zM1126 1491
q-16 -85 -37 -131t-50.5 -79t-68 -51t-88.5 -18q-52 0 -96.5 18t-83.5 41t-75 41.5t-64 18.5q-34 0 -58 -24.5t-43 -87.5h-145q14 76 37 126t52.5 83.5t68.5 51t86 17.5q48 0 93 -17.5t84 -39.5q41 -24 78 -43t66 -19q34 0 57 25t42 88h145z" />
    <glyph glyph-name="ograve" unicode="&#xf2;" horiz-adv-x="1159" 
d="M92 451q0 136 47 265t128 214.5t174 126.5t188 41q106 0 191.5 -39.5t141 -108t80 -151.5t24.5 -164q0 -158 -48 -283t-128.5 -209.5t-174 -125t-191.5 -40.5q-104 0 -187.5 39t-140.5 109t-80.5 154.5t-23.5 171.5zM306 470q-1 -60 11.5 -111t42 -92.5t75.5 -65
t108 -23.5q64 0 118.5 30.5t97 87t68.5 139.5t26 179q0 51 -11.5 101t-42 92.5t-78 66t-111.5 23.5q-61 0 -115 -29.5t-97 -87.5t-67.5 -141t-24.5 -169zM633 1219l-281 327h287l161 -327h-167z" />
    <glyph glyph-name="oacute" unicode="&#xf3;" horiz-adv-x="1159" 
d="M92 451q0 136 47 265t128 214.5t174 126.5t188 41q106 0 191.5 -39.5t141 -108t80 -151.5t24.5 -164q0 -158 -48 -283t-128.5 -209.5t-174 -125t-191.5 -40.5q-104 0 -187.5 39t-140.5 109t-80.5 154.5t-23.5 171.5zM306 470q-1 -60 11.5 -111t42 -92.5t75.5 -65
t108 -23.5q64 0 118.5 30.5t97 87t68.5 139.5t26 179q0 51 -11.5 101t-42 92.5t-78 66t-111.5 23.5q-61 0 -115 -29.5t-97 -87.5t-67.5 -141t-24.5 -169zM723 1219h-168l277 327h286z" />
    <glyph glyph-name="ocircumflex" unicode="&#xf4;" horiz-adv-x="1159" 
d="M92 451q0 136 47 265t128 214.5t174 126.5t188 41q106 0 191.5 -39.5t141 -108t80 -151.5t24.5 -164q0 -158 -48 -283t-128.5 -209.5t-174 -125t-191.5 -40.5q-104 0 -187.5 39t-140.5 109t-80.5 154.5t-23.5 171.5zM306 470q-1 -60 11.5 -111t42 -92.5t75.5 -65
t108 -23.5q64 0 118.5 30.5t97 87t68.5 139.5t26 179q0 51 -11.5 101t-42 92.5t-78 66t-111.5 23.5q-61 0 -115 -29.5t-97 -87.5t-67.5 -141t-24.5 -169zM882 1201l-163 180l-226 -180h-174l297 327h246l182 -327h-162z" />
    <glyph glyph-name="otilde" unicode="&#xf5;" horiz-adv-x="1159" 
d="M92 451q0 136 47 265t128 214.5t174 126.5t188 41q106 0 191.5 -39.5t141 -108t80 -151.5t24.5 -164q0 -158 -48 -283t-128.5 -209.5t-174 -125t-191.5 -40.5q-104 0 -187.5 39t-140.5 109t-80.5 154.5t-23.5 171.5zM306 470q-1 -60 11.5 -111t42 -92.5t75.5 -65
t108 -23.5q64 0 118.5 30.5t97 87t68.5 139.5t26 179q0 51 -11.5 101t-42 92.5t-78 66t-111.5 23.5q-61 0 -115 -29.5t-97 -87.5t-67.5 -141t-24.5 -169zM1114 1491q-16 -85 -37 -131t-50.5 -79t-68 -51t-88.5 -18q-52 0 -96.5 18t-83.5 41t-75 41.5t-64 18.5
q-34 0 -58 -24.5t-43 -87.5h-145q14 76 37 126t52.5 83.5t68.5 51t86 17.5q48 0 93 -17.5t84 -39.5q41 -24 78 -43t66 -19q34 0 57 25t42 88h145z" />
    <glyph glyph-name="odieresis" unicode="&#xf6;" horiz-adv-x="1159" 
d="M92 451q0 136 47 265t128 214.5t174 126.5t188 41q106 0 191.5 -39.5t141 -108t80 -151.5t24.5 -164q0 -158 -48 -283t-128.5 -209.5t-174 -125t-191.5 -40.5q-104 0 -187.5 39t-140.5 109t-80.5 154.5t-23.5 171.5zM306 470q-1 -60 11.5 -111t42 -92.5t75.5 -65
t108 -23.5q64 0 118.5 30.5t97 87t68.5 139.5t26 179q0 51 -11.5 101t-42 92.5t-78 66t-111.5 23.5q-61 0 -115 -29.5t-97 -87.5t-67.5 -141t-24.5 -169zM1044 1338q0 -28 -11 -53t-30 -43.5t-43.5 -29.5t-52.5 -11q-29 0 -54 11t-44 29.5t-30 43.5t-11 53t11 53.5t30 44.5
t44 30t54 11q28 0 52.5 -11t43.5 -30t30 -44.5t11 -53.5zM645 1338q0 -28 -11 -53t-30 -43.5t-44 -29.5t-52 -11q-29 0 -54 11t-44.5 29.5t-30.5 43.5t-11 53t11 53.5t30.5 44.5t44.5 30t54 11q27 0 52 -11t44 -30t30 -44.5t11 -53.5z" />
    <glyph glyph-name="divide" unicode="&#xf7;" 
d="M804 1133q0 -32 -12 -59t-32.5 -47.5t-47.5 -32t-57 -11.5q-32 0 -59 11.5t-47.5 32t-32 47.5t-11.5 59q0 31 12 59t32.5 49t47.5 33t58 12q30 0 57 -12t47.5 -33t32.5 -49t12 -59zM161 610v189h989v-189h-989zM804 272q0 -32 -12 -59t-32.5 -47t-47.5 -31.5t-57 -11.5
q-32 0 -59 11.5t-47.5 31.5t-32 47t-11.5 59q0 31 12 59t32.5 49t47.5 33.5t58 12.5q30 0 57 -12.5t47.5 -33.5t32.5 -49t12 -59z" />
    <glyph glyph-name="oslash" unicode="&#xf8;" horiz-adv-x="1159" 
d="M205 113q-59 70 -85.5 154t-26.5 177q0 155 47 277.5t124 206t172 127t193 43.5q54 0 103.5 -10.5t105.5 -36.5l86 127h188l-151 -226q53 -64 79 -148t26 -169q0 -158 -48 -283t-128.5 -209.5t-174 -125t-191.5 -40.5q-54 0 -102.5 10.5t-91.5 30.5l-82 -120h-189z
M723 883q-24 12 -51 18.5t-58 7.5q-66 0 -120.5 -32.5t-97 -93t-66.5 -144.5t-24 -177t28 -157zM442 186q52 -20 101 -20q64 0 118.5 32.5t98 93t68.5 142.5t25 175q0 84 -26 149z" />
    <glyph glyph-name="ugrave" unicode="&#xf9;" horiz-adv-x="1159" 
d="M117 311q0 31 4 66.5t10 71.5l111 626h211l-105 -600q-5 -28 -7.5 -54.5t-2.5 -49.5q0 -102 40 -150.5t134 -48.5q49 0 92.5 19t79 57t60.5 95t38 134l105 598h211l-191 -1075h-211l17 92q-66 -65 -129 -90t-138 -25q-158 0 -243.5 84.5t-85.5 249.5zM656 1219l-281 327
h287l161 -327h-167z" />
    <glyph glyph-name="uacute" unicode="&#xfa;" horiz-adv-x="1159" 
d="M117 311q0 31 4 66.5t10 71.5l111 626h211l-105 -600q-5 -28 -7.5 -54.5t-2.5 -49.5q0 -102 40 -150.5t134 -48.5q49 0 92.5 19t79 57t60.5 95t38 134l105 598h211l-191 -1075h-211l17 92q-66 -65 -129 -90t-138 -25q-158 0 -243.5 84.5t-85.5 249.5zM741 1219h-168
l277 327h286z" />
    <glyph glyph-name="ucircumflex" unicode="&#xfb;" horiz-adv-x="1159" 
d="M117 311q0 31 4 66.5t10 71.5l111 626h211l-105 -600q-5 -28 -7.5 -54.5t-2.5 -49.5q0 -102 40 -150.5t134 -48.5q49 0 92.5 19t79 57t60.5 95t38 134l105 598h211l-191 -1075h-211l17 92q-66 -65 -129 -90t-138 -25q-158 0 -243.5 84.5t-85.5 249.5zM905 1219l-163 180
l-226 -180h-174l297 327h246l182 -327h-162z" />
    <glyph glyph-name="udieresis" unicode="&#xfc;" horiz-adv-x="1159" 
d="M117 311q0 31 4 66.5t10 71.5l111 626h211l-105 -600q-5 -28 -7.5 -54.5t-2.5 -49.5q0 -102 40 -150.5t134 -48.5q49 0 92.5 19t79 57t60.5 95t38 134l105 598h211l-191 -1075h-211l17 92q-66 -65 -129 -90t-138 -25q-158 0 -243.5 84.5t-85.5 249.5zM1067 1356
q0 -28 -11 -53t-30 -43.5t-43.5 -29.5t-52.5 -11q-29 0 -54 11t-44 29.5t-30 43.5t-11 53t11 53.5t30 44.5t44 30t54 11q28 0 52.5 -11t43.5 -30t30 -44.5t11 -53.5zM668 1356q0 -28 -11 -53t-30 -43.5t-44 -29.5t-52 -11q-29 0 -54 11t-44.5 29.5t-30.5 43.5t-11 53
t11 53.5t30.5 44.5t44.5 30t54 11q27 0 52 -11t44 -30t30 -44.5t11 -53.5z" />
    <glyph glyph-name="yacute" unicode="&#xfd;" horiz-adv-x="1128" 
d="M381 -379h-225l211 385l-205 1069h223l128 -801l417 801h225zM702 1201h-168l277 327h286z" />
    <glyph glyph-name="thorn" unicode="&#xfe;" horiz-adv-x="1159" 
d="M1063 580q-10 -142 -53 -254t-109.5 -189.5t-152 -118.5t-179.5 -41q-41 0 -83 8.5t-79.5 26.5t-66.5 41t-51 49l-68 -389l-229 -108l313 1779l227 109l-90 -508q54 53 121 83t148 30q82 0 151.5 -32.5t118 -97t71.5 -161.5t11 -227zM852 637q1 124 -53.5 195t-153.5 71
q-33 0 -65.5 -10t-63 -27t-58.5 -39t-52 -45l-82 -467q13 -22 39 -47t59 -46.5t71 -35.5t76 -14q57 0 109 29.5t91 89t61 145.5t22 201z" />
    <glyph glyph-name="ydieresis" unicode="&#xff;" horiz-adv-x="1128" 
d="M381 -379h-225l211 385l-205 1069h223l128 -801l417 801h225zM1040 1338q0 -28 -11 -53t-30 -43.5t-43.5 -29.5t-52.5 -11q-29 0 -54 11t-44 29.5t-30 43.5t-11 53t11 53.5t30 44.5t44 30t54 11q28 0 52.5 -11t43.5 -30t30 -44.5t11 -53.5zM641 1338q0 -28 -11 -53
t-30 -43.5t-44 -29.5t-52 -11q-29 0 -54 11t-44.5 29.5t-30.5 43.5t-11 53t11 53.5t30.5 44.5t44.5 30t54 11q27 0 52 -11t44 -30t30 -44.5t11 -53.5z" />
    <glyph glyph-name="Amacron" unicode="&#x100;" horiz-adv-x="1448" 
d="M1030 0l-59 342h-557l-178 -342h-234l770 1434h217l266 -1434h-225zM837 1145l-329 -613h434zM1176 1556h-574l31 185h573z" />
    <glyph glyph-name="amacron" unicode="&#x101;" horiz-adv-x="1110" 
d="M1012 803q0 -22 -2.5 -43.5t-5.5 -44.5l-125 -715h-207l16 96q-50 -49 -121.5 -84t-163.5 -35q-74 0 -138.5 22t-111.5 65.5t-68 101t-21 124.5q1 113 44.5 192t106.5 123t140 65.5t161 21.5q67 0 138.5 -13t127.5 -40l15 78q3 15 4.5 32t1.5 29q0 69 -47.5 100
t-149.5 31q-75 0 -143.5 -18t-130.5 -49l-60 168q82 41 177.5 64.5t181.5 23.5q87 0 157 -17.5t120 -53.5t77 -91.5t27 -132.5zM754 465q-42 23 -104.5 38t-143.5 15q-47 0 -89.5 -11.5t-75 -36t-52 -63t-19.5 -91.5q0 -75 49 -115.5t138 -40.5q40 0 78.5 11t73 29
t63.5 41.5t51 49.5zM967 1249h-574l31 185h573z" />
    <glyph glyph-name="Abreve" unicode="&#x102;" horiz-adv-x="1448" 
d="M1030 0l-59 342h-557l-178 -342h-234l770 1434h217l266 -1434h-225zM837 1145l-329 -613h434zM1289 1853q-38 -156 -140 -241.5t-266 -85.5q-77 0 -139 22t-104.5 64t-62.5 102.5t-13 138.5h145q-3 -88 47.5 -130t147.5 -42q94 0 152 41t89 131h144z" />
    <glyph glyph-name="abreve" unicode="&#x103;" horiz-adv-x="1110" 
d="M1012 803q0 -22 -2.5 -43.5t-5.5 -44.5l-125 -715h-207l16 96q-50 -49 -121.5 -84t-163.5 -35q-74 0 -138.5 22t-111.5 65.5t-68 101t-21 124.5q1 113 44.5 192t106.5 123t140 65.5t161 21.5q67 0 138.5 -13t127.5 -40l15 78q3 15 4.5 32t1.5 29q0 69 -47.5 100
t-149.5 31q-75 0 -143.5 -18t-130.5 -49l-60 168q82 41 177.5 64.5t181.5 23.5q87 0 157 -17.5t120 -53.5t77 -91.5t27 -132.5zM754 465q-42 23 -104.5 38t-143.5 15q-47 0 -89.5 -11.5t-75 -36t-52 -63t-19.5 -91.5q0 -75 49 -115.5t138 -40.5q40 0 78.5 11t73 29
t63.5 41.5t51 49.5zM1094 1546q-38 -156 -140 -241.5t-266 -85.5q-77 0 -139 22t-104.5 64t-62.5 102.5t-13 138.5h145q-3 -88 47.5 -130t147.5 -42q94 0 152 41t89 131h144z" />
    <glyph glyph-name="Aogonek" unicode="&#x104;" horiz-adv-x="1448" 
d="M1030 0l-59 342h-557l-178 -342h-234l770 1434h217l266 -1434h-225zM837 1145l-329 -613h434zM1241 0q-21 -5 -59.5 -24t-76.5 -46.5t-66 -60t-28 -64.5q0 -17 9.5 -29t29.5 -12q17 0 32 10.5t26 22.5l94 -73q-36 -60 -89 -97t-126 -37q-71 0 -121 40t-50 113
q0 45 20.5 84t52 71.5t69 58t72.5 43.5h211z" />
    <glyph glyph-name="aogonek" unicode="&#x105;" horiz-adv-x="1110" 
d="M1012 803q0 -22 -2.5 -43.5t-5.5 -44.5l-125 -715h-207l16 96q-50 -49 -121.5 -84t-163.5 -35q-74 0 -138.5 22t-111.5 65.5t-68 101t-21 124.5q1 113 44.5 192t106.5 123t140 65.5t161 21.5q67 0 138.5 -13t127.5 -40l15 78q3 15 4.5 32t1.5 29q0 69 -47.5 100
t-149.5 31q-75 0 -143.5 -18t-130.5 -49l-60 168q82 41 177.5 64.5t181.5 23.5q87 0 157 -17.5t120 -53.5t77 -91.5t27 -132.5zM754 465q-42 23 -104.5 38t-143.5 15q-47 0 -89.5 -11.5t-75 -36t-52 -63t-19.5 -91.5q0 -75 49 -115.5t138 -40.5q40 0 78.5 11t73 29
t63.5 41.5t51 49.5zM883 0q-21 -5 -59.5 -24t-76.5 -46.5t-66 -60t-28 -64.5q0 -17 9.5 -29t29.5 -12q17 0 32 10.5t26 22.5l94 -73q-36 -60 -89 -97t-126 -37q-71 0 -121 40t-50 113q0 45 20.5 84t52 71.5t69 58t72.5 43.5h211z" />
    <glyph glyph-name="Cacute" unicode="&#x106;" horiz-adv-x="1333" 
d="M1112 1057q-23 46 -47.5 77.5t-59.5 57t-79.5 39.5t-102.5 14q-96 0 -181.5 -48.5t-149 -134.5t-101 -204.5t-37.5 -259.5q0 -98 22 -174t63 -128.5t99 -80t130 -27.5q103 0 185 50.5t155 138.5l155 -135q-47 -63 -97.5 -109t-117.5 -83t-139 -55t-154 -18
q-114 0 -209.5 37.5t-165 111.5t-108.5 184.5t-39 256.5q0 134 26 251.5t73 216.5t112.5 177t145 132.5t170.5 83t188 28.5q88 0 161.5 -21t132 -60.5t102 -95.5t71.5 -126zM899 1526h-168l277 327h286z" />
    <glyph glyph-name="cacute" unicode="&#x107;" horiz-adv-x="1061" 
d="M856 748q-46 72 -105 110.5t-135 38.5q-58 0 -111 -25.5t-98 -80.5t-73 -142t-28 -194q0 -127 63 -202t178 -75q65 0 122 29.5t117 85.5l113 -143q-87 -85 -180.5 -129t-198.5 -44q-104 0 -187 38.5t-138.5 107.5t-79 153t-23.5 167q0 151 46 278t127 213t176.5 125
t191.5 39q77 0 136 -17.5t104 -46.5t79 -67t60 -78zM723 1219h-168l277 327h286z" />
    <glyph glyph-name="Ccircumflex" unicode="&#x108;" horiz-adv-x="1333" 
d="M1112 1057q-23 46 -47.5 77.5t-59.5 57t-79.5 39.5t-102.5 14q-96 0 -181.5 -48.5t-149 -134.5t-101 -204.5t-37.5 -259.5q0 -98 22 -174t63 -128.5t99 -80t130 -27.5q103 0 185 50.5t155 138.5l155 -135q-47 -63 -97.5 -109t-117.5 -83t-139 -55t-154 -18
q-114 0 -209.5 37.5t-165 111.5t-108.5 184.5t-39 256.5q0 134 26 251.5t73 216.5t112.5 177t145 132.5t170.5 83t188 28.5q88 0 161.5 -21t132 -60.5t102 -95.5t71.5 -126zM1081 1516l-163 180l-226 -180h-174l297 327h246l182 -327h-162z" />
    <glyph glyph-name="ccircumflex" unicode="&#x109;" horiz-adv-x="1061" 
d="M856 748q-46 72 -105 110.5t-135 38.5q-58 0 -111 -25.5t-98 -80.5t-73 -142t-28 -194q0 -127 63 -202t178 -75q65 0 122 29.5t117 85.5l113 -143q-87 -85 -180.5 -129t-198.5 -44q-104 0 -187 38.5t-138.5 107.5t-79 153t-23.5 167q0 151 46 278t127 213t176.5 125
t191.5 39q77 0 136 -17.5t104 -46.5t79 -67t60 -78zM882 1201l-163 180l-226 -180h-174l297 327h246l182 -327h-162z" />
    <glyph glyph-name="Cdotaccent" unicode="&#x10a;" horiz-adv-x="1333" 
d="M1112 1057q-23 46 -47.5 77.5t-59.5 57t-79.5 39.5t-102.5 14q-96 0 -181.5 -48.5t-149 -134.5t-101 -204.5t-37.5 -259.5q0 -98 22 -174t63 -128.5t99 -80t130 -27.5q103 0 185 50.5t155 138.5l155 -135q-47 -63 -97.5 -109t-117.5 -83t-139 -55t-154 -18
q-114 0 -209.5 37.5t-165 111.5t-108.5 184.5t-39 256.5q0 134 26 251.5t73 216.5t112.5 177t145 132.5t170.5 83t188 28.5q88 0 161.5 -21t132 -60.5t102 -95.5t71.5 -126zM1045 1663q0 -28 -11 -53t-30 -43.5t-44 -29.5t-53 -11t-53.5 11t-44.5 29.5t-30 43.5t-11 53
t11 53.5t30 44.5t44.5 30t53.5 11t53 -11t44 -30t30 -44.5t11 -53.5z" />
    <glyph glyph-name="cdotaccent" unicode="&#x10b;" horiz-adv-x="1061" 
d="M856 748q-46 72 -105 110.5t-135 38.5q-58 0 -111 -25.5t-98 -80.5t-73 -142t-28 -194q0 -127 63 -202t178 -75q65 0 122 29.5t117 85.5l113 -143q-87 -85 -180.5 -129t-198.5 -44q-104 0 -187 38.5t-138.5 107.5t-79 153t-23.5 167q0 151 46 278t127 213t176.5 125
t191.5 39q77 0 136 -17.5t104 -46.5t79 -67t60 -78zM848 1356q0 -28 -11 -53t-30 -43.5t-44 -29.5t-53 -11t-53.5 11t-44.5 29.5t-30 43.5t-11 53t11 53.5t30 44.5t44.5 30t53.5 11t53 -11t44 -30t30 -44.5t11 -53.5z" />
    <glyph glyph-name="Ccaron" unicode="&#x10c;" horiz-adv-x="1333" 
d="M1112 1057q-23 46 -47.5 77.5t-59.5 57t-79.5 39.5t-102.5 14q-96 0 -181.5 -48.5t-149 -134.5t-101 -204.5t-37.5 -259.5q0 -98 22 -174t63 -128.5t99 -80t130 -27.5q103 0 185 50.5t155 138.5l155 -135q-47 -63 -97.5 -109t-117.5 -83t-139 -55t-154 -18
q-114 0 -209.5 37.5t-165 111.5t-108.5 184.5t-39 256.5q0 134 26 251.5t73 216.5t112.5 177t145 132.5t170.5 83t188 28.5q88 0 161.5 -21t132 -60.5t102 -95.5t71.5 -126zM990 1526h-246l-182 327h161l164 -180l226 180h174z" />
    <glyph glyph-name="ccaron" unicode="&#x10d;" horiz-adv-x="1061" 
d="M856 748q-46 72 -105 110.5t-135 38.5q-58 0 -111 -25.5t-98 -80.5t-73 -142t-28 -194q0 -127 63 -202t178 -75q65 0 122 29.5t117 85.5l113 -143q-87 -85 -180.5 -129t-198.5 -44q-104 0 -187 38.5t-138.5 107.5t-79 153t-23.5 167q0 151 46 278t127 213t176.5 125
t191.5 39q77 0 136 -17.5t104 -46.5t79 -67t60 -78zM807 1219h-246l-182 327h161l164 -180l226 180h174z" />
    <glyph glyph-name="Dcaron" unicode="&#x10e;" horiz-adv-x="1382" 
d="M1315 841q0 -120 -28 -243.5t-90 -228.5t-143.5 -175t-175.5 -113t-186 -62t-190 -19h-410l254 1434h285q172 0 305 -41t219.5 -123t123 -191.5t36.5 -237.5zM1092 822q0 75 -19 148.5t-75 133t-149 90.5t-228 31h-97l-180 -1016h182q107 0 205.5 34t181 107.5t131 193.5
t48.5 278zM932 1526h-246l-182 327h161l164 -180l226 180h174z" />
    <glyph glyph-name="dcaron" unicode="&#x10f;" horiz-adv-x="1303" 
d="M1342.18 971.653h-126.146l107.358 460.73h240.662zM94 426q0 155 39.5 279.5t107 211.5t156.5 134t187 47q47 0 91.5 -9.5t81.5 -27.5t64.5 -39.5t50.5 -48.5l72 411l230 109l-265 -1493h-209l17 90q-54 -53 -120 -83t-146 -30q-76 0 -141.5 28.5t-113.5 85t-75 140.5
t-27 195zM309 438q0 -130 55 -198t152 -68q41 0 78.5 13.5t68.5 33t55 40t38 34.5l82 467q-14 22 -39 47t-57.5 46.5t-71 35.5t-78.5 14q-68 0 -121 -39.5t-89 -104.5t-54.5 -149t-18.5 -172z" />
    <glyph glyph-name="Dcroat" unicode="&#x110;" horiz-adv-x="1423" 
d="M1347 848q1 -164 -39 -298t-107 -227.5t-145.5 -153t-165.5 -97t-179 -55t-181 -17.5h-407l115 647h-136l35 205h135l103 582h284q171 0 304.5 -41t222.5 -124.5t125 -191.5t36 -229zM1124 814q0 112 -29 185t-88.5 124t-150 75.5t-207.5 24.5h-102l-66 -371h252
l-35 -205h-252l-77 -436h188q88 0 167 22t141.5 59.5t110 89.5t78 111t48.5 129.5t22 191.5z" />
    <glyph glyph-name="dcroat" unicode="&#x111;" horiz-adv-x="1176" 
d="M838 760q-14 22 -39 47t-57.5 46.5t-71 35.5t-78.5 14q-68 0 -121 -39.5t-89 -104.5t-54.5 -149t-18.5 -172q0 -130 55 -198t152 -68q41 0 78.5 13.5t68.5 33t55 40t38 34.5zM1313 1288l-31 -184h-178l-195 -1104h-209l17 90q-29 -29 -55 -47.5t-62 -34.5t-72.5 -23.5
t-76.5 -7.5q-76 0 -141.5 28.5t-113.5 85t-75 140.5t-27 195q0 155 39.5 279.5t107 211.5t156.5 134t187 47q43 0 88 -9t84 -28t66 -40.5t50 -47.5l23 131h-186l30 184h189l16 96l230 109l-37 -205h176z" />
    <glyph glyph-name="Emacron" unicode="&#x112;" horiz-adv-x="1251" 
d="M92 0l252 1434h916l-37 -209h-701l-61 -355h565l-37 -208h-565l-80 -453h731l-37 -209h-946zM1094 1556h-574l31 185h573z" />
    <glyph glyph-name="emacron" unicode="&#x113;" horiz-adv-x="1116" 
d="M1006 664q0 -53 -7.5 -103.5t-19.5 -95.5h-682q-6 -70 10 -125t49 -93.5t81.5 -58.5t107.5 -20q66 0 123.5 23.5t117.5 60.5l93 -148q-84 -63 -172 -95t-191 -32q-104 0 -187 37.5t-138.5 106t-77 153.5t-21.5 170q0 144 45 273.5t122 215.5t168.5 125.5t188.5 39.5
t170 -33t122 -91t73.5 -137.5t24.5 -172.5zM805 635q5 58 -4.5 108t-35.5 86.5t-68.5 57t-102.5 20.5q-54 0 -97.5 -20.5t-77 -56.5t-57.5 -86t-38 -109h481zM969 1249h-574l31 185h573z" />
    <glyph glyph-name="Ebreve" unicode="&#x114;" horiz-adv-x="1251" 
d="M92 0l252 1434h916l-37 -209h-701l-61 -355h565l-37 -208h-565l-80 -453h731l-37 -209h-946zM1164 1853q-38 -156 -140 -241.5t-266 -85.5q-77 0 -139 22t-104.5 64t-62.5 102.5t-13 138.5h145q-3 -88 47.5 -130t147.5 -42q94 0 152 41t89 131h144z" />
    <glyph glyph-name="ebreve" unicode="&#x115;" horiz-adv-x="1116" 
d="M1006 664q0 -53 -7.5 -103.5t-19.5 -95.5h-682q-6 -70 10 -125t49 -93.5t81.5 -58.5t107.5 -20q66 0 123.5 23.5t117.5 60.5l93 -148q-84 -63 -172 -95t-191 -32q-104 0 -187 37.5t-138.5 106t-77 153.5t-21.5 170q0 144 45 273.5t122 215.5t168.5 125.5t188.5 39.5
t170 -33t122 -91t73.5 -137.5t24.5 -172.5zM805 635q5 58 -4.5 108t-35.5 86.5t-68.5 57t-102.5 20.5q-54 0 -97.5 -20.5t-77 -56.5t-57.5 -86t-38 -109h481zM1096 1546q-38 -156 -140 -241.5t-266 -85.5q-77 0 -139 22t-104.5 64t-62.5 102.5t-13 138.5h145
q-3 -88 47.5 -130t147.5 -42q94 0 152 41t89 131h144z" />
    <glyph glyph-name="Edotaccent" unicode="&#x116;" horiz-adv-x="1251" 
d="M92 0l252 1434h916l-37 -209h-701l-61 -355h565l-37 -208h-565l-80 -453h731l-37 -209h-946zM959 1663q0 -28 -11 -53t-30 -43.5t-44 -29.5t-53 -11t-53.5 11t-44.5 29.5t-30 43.5t-11 53t11 53.5t30 44.5t44.5 30t53.5 11t53 -11t44 -30t30 -44.5t11 -53.5z" />
    <glyph glyph-name="edotaccent" unicode="&#x117;" horiz-adv-x="1116" 
d="M1006 664q0 -53 -7.5 -103.5t-19.5 -95.5h-682q-6 -70 10 -125t49 -93.5t81.5 -58.5t107.5 -20q66 0 123.5 23.5t117.5 60.5l93 -148q-84 -63 -172 -95t-191 -32q-104 0 -187 37.5t-138.5 106t-77 153.5t-21.5 170q0 144 45 273.5t122 215.5t168.5 125.5t188.5 39.5
t170 -33t122 -91t73.5 -137.5t24.5 -172.5zM805 635q5 58 -4.5 108t-35.5 86.5t-68.5 57t-102.5 20.5q-54 0 -97.5 -20.5t-77 -56.5t-57.5 -86t-38 -109h481zM838 1356q0 -28 -11 -53t-30 -43.5t-44 -29.5t-53 -11t-53.5 11t-44.5 29.5t-30 43.5t-11 53t11 53.5t30 44.5
t44.5 30t53.5 11t53 -11t44 -30t30 -44.5t11 -53.5z" />
    <glyph glyph-name="Eogonek" unicode="&#x118;" horiz-adv-x="1251" 
d="M92 0l252 1434h916l-37 -209h-701l-61 -355h565l-37 -208h-565l-80 -453h731l-37 -209h-946zM1025 0q-21 -5 -59.5 -24t-76.5 -46.5t-66 -60t-28 -64.5q0 -17 9.5 -29t29.5 -12q17 0 32 10.5t26 22.5l94 -73q-36 -60 -89 -97t-126 -37q-71 0 -121 40t-50 113
q0 45 20.5 84t52 71.5t69 58t72.5 43.5h211z" />
    <glyph glyph-name="eogonek" unicode="&#x119;" horiz-adv-x="1116" 
d="M805 635q6 77 -8.5 126.5t-42 81t-66.5 48t-94 16.5q-54 0 -97.5 -20.5t-77.5 -57t-57.5 -86t-37.5 -108.5h481zM451 -196q0 -17 9 -28.5t29 -11.5q17 0 32 10.5t26 22.5l94 -73q-36 -60 -89.5 -97t-125.5 -37q-36 0 -67 10.5t-54 30t-36.5 48t-13.5 64.5q0 40 17.5 76
t44 66.5t59 55.5t62.5 43q-80 12 -144.5 49t-109.5 95.5t-69 136.5t-24 173q0 147 47 280.5t121 215t164.5 123t192.5 41.5q97 0 170 -33t122 -91t73.5 -137.5t24.5 -172.5q0 -54 -7.5 -104t-19.5 -95h-682q-6 -82 14.5 -138.5t53.5 -90t79 -51t101 -17.5q66 0 123.5 23.5
t117.5 60.5l93 -148q-45 -34 -101 -63t-111 -55q-29 -14 -66.5 -32t-70.5 -40.5t-56 -49.5t-23 -60z" />
    <glyph glyph-name="Ecaron" unicode="&#x11a;" horiz-adv-x="1251" 
d="M92 0l252 1434h916l-37 -209h-701l-61 -355h565l-37 -208h-565l-80 -453h731l-37 -209h-946zM928 1526h-246l-182 327h161l164 -180l226 180h174z" />
    <glyph glyph-name="ecaron" unicode="&#x11b;" horiz-adv-x="1116" 
d="M1006 664q0 -53 -7.5 -103.5t-19.5 -95.5h-682q-6 -70 10 -125t49 -93.5t81.5 -58.5t107.5 -20q66 0 123.5 23.5t117.5 60.5l93 -148q-84 -63 -172 -95t-191 -32q-104 0 -187 37.5t-138.5 106t-77 153.5t-21.5 170q0 144 45 273.5t122 215.5t168.5 125.5t188.5 39.5
t170 -33t122 -91t73.5 -137.5t24.5 -172.5zM805 635q5 58 -4.5 108t-35.5 86.5t-68.5 57t-102.5 20.5q-54 0 -97.5 -20.5t-77 -56.5t-57.5 -86t-38 -109h481zM799 1219h-246l-182 327h161l164 -180l226 180h174z" />
    <glyph glyph-name="Gcircumflex" unicode="&#x11c;" horiz-adv-x="1380" 
d="M1114 1040q-27 56 -50.5 88.5t-59.5 60.5t-81 42t-98 14q-95 0 -181 -47.5t-151 -134t-103 -206.5t-38 -265q0 -101 25.5 -177t70.5 -127t106 -76.5t132 -25.5q139 0 227.5 83t122.5 239l2 12h-237l35 207h454l-24 -135q-27 -161 -80.5 -277t-130.5 -192t-175.5 -112
t-215.5 -36q-118 0 -215.5 40t-167.5 117.5t-109 191t-39 260.5q0 131 26.5 246.5t74 212.5t113.5 173.5t145.5 130t169.5 81.5t186 28q176 0 294.5 -82t176.5 -244zM1081 1516l-163 180l-226 -180h-174l297 327h246l182 -327h-162z" />
    <glyph glyph-name="gcircumflex" unicode="&#x11d;" horiz-adv-x="1159" 
d="M453 -23q-76 0 -141.5 28.5t-113.5 85t-75 140.5t-27 195q0 155 39.5 279.5t107 211.5t156.5 134t187 47q52 0 94 -9.5t80.5 -29t64.5 -40t49 -46.5l17 102h211l-164 -940q-23 -130 -64 -228t-114 -165t-185 -103t-276 -42l-31 176q121 1 201 21.5t130 58t76 92t40 125.5
l4 20q-54 -53 -120 -83t-146 -30zM311 438q0 -130 55 -198t152 -68q41 0 78.5 13.5t68.5 33t55 40t38 34.5l82 467q-14 22 -39 47t-57.5 46.5t-71 35.5t-78.5 14q-68 0 -121 -39.5t-89 -104.5t-54.5 -149t-18.5 -172zM878 1219l-163 180l-226 -180h-174l297 327h246
l182 -327h-162z" />
    <glyph glyph-name="Gbreve" unicode="&#x11e;" horiz-adv-x="1380" 
d="M1114 1040q-27 56 -50.5 88.5t-59.5 60.5t-81 42t-98 14q-95 0 -181 -47.5t-151 -134t-103 -206.5t-38 -265q0 -101 25.5 -177t70.5 -127t106 -76.5t132 -25.5q139 0 227.5 83t122.5 239l2 12h-237l35 207h454l-24 -135q-27 -161 -80.5 -277t-130.5 -192t-175.5 -112
t-215.5 -36q-118 0 -215.5 40t-167.5 117.5t-109 191t-39 260.5q0 131 26.5 246.5t74 212.5t113.5 173.5t145.5 130t169.5 81.5t186 28q176 0 294.5 -82t176.5 -244zM1289 1853q-38 -156 -140 -241.5t-266 -85.5q-77 0 -139 22t-104.5 64t-62.5 102.5t-13 138.5h145
q-3 -88 47.5 -130t147.5 -42q94 0 152 41t89 131h144z" />
    <glyph glyph-name="gbreve" unicode="&#x11f;" horiz-adv-x="1159" 
d="M453 -23q-76 0 -141.5 28.5t-113.5 85t-75 140.5t-27 195q0 155 39.5 279.5t107 211.5t156.5 134t187 47q52 0 94 -9.5t80.5 -29t64.5 -40t49 -46.5l17 102h211l-164 -940q-23 -130 -64 -228t-114 -165t-185 -103t-276 -42l-31 176q121 1 201 21.5t130 58t76 92t40 125.5
l4 20q-54 -53 -120 -83t-146 -30zM311 438q0 -130 55 -198t152 -68q41 0 78.5 13.5t68.5 33t55 40t38 34.5l82 467q-14 22 -39 47t-57.5 46.5t-71 35.5t-78.5 14q-68 0 -121 -39.5t-89 -104.5t-54.5 -149t-18.5 -172zM1100 1546q-38 -156 -140 -241.5t-266 -85.5
q-77 0 -139 22t-104.5 64t-62.5 102.5t-13 138.5h145q-3 -88 47.5 -130t147.5 -42q94 0 152 41t89 131h144z" />
    <glyph glyph-name="Gdotaccent" unicode="&#x120;" horiz-adv-x="1380" 
d="M1114 1040q-27 56 -50.5 88.5t-59.5 60.5t-81 42t-98 14q-95 0 -181 -47.5t-151 -134t-103 -206.5t-38 -265q0 -101 25.5 -177t70.5 -127t106 -76.5t132 -25.5q139 0 227.5 83t122.5 239l2 12h-237l35 207h454l-24 -135q-27 -161 -80.5 -277t-130.5 -192t-175.5 -112
t-215.5 -36q-118 0 -215.5 40t-167.5 117.5t-109 191t-39 260.5q0 131 26.5 246.5t74 212.5t113.5 173.5t145.5 130t169.5 81.5t186 28q176 0 294.5 -82t176.5 -244zM1045 1663q0 -28 -11 -53t-30 -43.5t-44 -29.5t-53 -11t-53.5 11t-44.5 29.5t-30 43.5t-11 53t11 53.5
t30 44.5t44.5 30t53.5 11t53 -11t44 -30t30 -44.5t11 -53.5z" />
    <glyph glyph-name="gdotaccent" unicode="&#x121;" horiz-adv-x="1159" 
d="M453 -23q-76 0 -141.5 28.5t-113.5 85t-75 140.5t-27 195q0 155 39.5 279.5t107 211.5t156.5 134t187 47q52 0 94 -9.5t80.5 -29t64.5 -40t49 -46.5l17 102h211l-164 -940q-23 -130 -64 -228t-114 -165t-185 -103t-276 -42l-31 176q121 1 201 21.5t130 58t76 92t40 125.5
l4 20q-54 -53 -120 -83t-146 -30zM311 438q0 -130 55 -198t152 -68q41 0 78.5 13.5t68.5 33t55 40t38 34.5l82 467q-14 22 -39 47t-57.5 46.5t-71 35.5t-78.5 14q-68 0 -121 -39.5t-89 -104.5t-54.5 -149t-18.5 -172zM846 1356q0 -28 -11 -53t-30 -43.5t-44 -29.5t-53 -11
t-53.5 11t-44.5 29.5t-30 43.5t-11 53t11 53.5t30 44.5t44.5 30t53.5 11t53 -11t44 -30t30 -44.5t11 -53.5z" />
    <glyph glyph-name="Gcommaaccent" unicode="&#x122;" horiz-adv-x="1380" 
d="M1114 1040q-27 56 -50.5 88.5t-59.5 60.5t-81 42t-98 14q-95 0 -181 -47.5t-151 -134t-103 -206.5t-38 -265q0 -101 25.5 -177t70.5 -127t106 -76.5t132 -25.5q139 0 227.5 83t122.5 239l2 12h-237l35 207h454l-24 -135q-27 -161 -80.5 -277t-130.5 -192t-175.5 -112
t-215.5 -36q-118 0 -215.5 40t-167.5 117.5t-109 191t-39 260.5q0 131 26.5 246.5t74 212.5t113.5 173.5t145.5 130t169.5 81.5t186 28q176 0 294.5 -82t176.5 -244zM509 -491h-125l91 393h216z" />
    <glyph glyph-name="gcommaaccent" unicode="&#x123;" horiz-adv-x="1159" 
d="M453 -23q-76 0 -141.5 28.5t-113.5 85t-75 140.5t-27 195q0 155 39.5 279.5t107 211.5t156.5 134t187 47q52 0 94 -9.5t80.5 -29t64.5 -40t49 -46.5l17 102h211l-164 -940q-23 -130 -64 -228t-114 -165t-185 -103t-276 -42l-31 176q121 1 201 21.5t130 58t76 92t40 125.5
l4 20q-54 -53 -120 -83t-146 -30zM311 438q0 -130 55 -198t152 -68q41 0 78.5 13.5t68.5 33t55 40t38 34.5l82 467q-14 22 -39 47t-57.5 46.5t-71 35.5t-78.5 14q-68 0 -121 -39.5t-89 -104.5t-54.5 -149t-18.5 -172zM777.017 1619.91h124.977l-90.9834 -392.928h-215.96z
" />
    <glyph glyph-name="Hcircumflex" unicode="&#x124;" horiz-adv-x="1454" 
d="M1174 0h-216l113 639h-651l-113 -639h-215l252 1434h215l-102 -580h651l102 580h215zM1106 1526l-163 180l-226 -180h-174l297 327h246l182 -327h-162z" />
    <glyph glyph-name="hcircumflex" unicode="&#x125;" horiz-adv-x="1159" 
d="M1040 764q0 -31 -4 -66.5t-10 -70.5l-111 -627h-210l104 600q5 28 7.5 55t2.5 50q0 102 -40 150t-134 48q-50 0 -93 -19.5t-77.5 -57.5t-60 -95t-39.5 -133l-105 -598h-211l244 1382l232 111l-91 -510q51 53 118 84t149 31t143.5 -22.5t103 -65t62 -106.5t20.5 -140z
M955 1512l-163 180l-226 -180h-174l297 327h246l182 -327h-162z" />
    <glyph glyph-name="Hbar" unicode="&#x126;" horiz-adv-x="1454" 
d="M213 1260h100l31 174h215l-31 -174h652l30 174h215l-30 -174h102l-39 -216h-102l-182 -1044h-216l113 639h-651l-113 -639h-215l182 1044h-100zM1108 854l33 190h-652l-32 -190h651z" />
    <glyph glyph-name="hbar" unicode="&#x127;" horiz-adv-x="1159" 
d="M653 1153h-179l-30 -170q26 27 57 49t66.5 37.5t72 22t71.5 6.5q82 0 143.5 -22.5t103 -65t62 -106.5t20.5 -140q0 -31 -4 -66.5t-10 -70.5l-111 -627h-210l104 600q5 28 7.5 55t2.5 50q0 102 -40 150t-134 48q-50 0 -93 -19.5t-77.5 -57.5t-60 -95t-39.5 -133l-105 -598
h-211l203 1153h-182l24 141h183l16 88l232 111l-36 -199h179z" />
    <glyph glyph-name="Itilde" unicode="&#x128;" horiz-adv-x="608" 
d="M317 0h-215l254 1434h215zM910 1798q-16 -85 -37 -131t-50.5 -79t-68 -51t-88.5 -18q-52 0 -96.5 18t-83.5 41t-75 41.5t-64 18.5q-34 0 -58 -24.5t-43 -87.5h-145q14 76 37 126t52.5 83.5t68.5 51t86 17.5q48 0 93 -17.5t84 -39.5q41 -24 78 -43t66 -19q34 0 57 25
t42 88h145z" />
    <glyph glyph-name="itilde" unicode="&#x129;" horiz-adv-x="543" 
d="M283 0h-211l188 1075h211zM823 1491q-16 -85 -37 -131t-50.5 -79t-68 -51t-88.5 -18q-52 0 -96.5 18t-83.5 41t-75 41.5t-64 18.5q-34 0 -58 -24.5t-43 -87.5h-145q14 76 37 126t52.5 83.5t68.5 51t86 17.5q48 0 93 -17.5t84 -39.5q41 -24 78 -43t66 -19q34 0 57 25
t42 88h145z" />
    <glyph glyph-name="Imacron" unicode="&#x12a;" horiz-adv-x="608" 
d="M317 0h-215l254 1434h215zM772 1556h-574l31 185h573z" />
    <glyph glyph-name="imacron" unicode="&#x12b;" horiz-adv-x="543" 
d="M283 0h-211l188 1075h211zM684 1249h-574l31 185h573z" />
    <glyph glyph-name="Ibreve" unicode="&#x12c;" horiz-adv-x="608" 
d="M317 0h-215l254 1434h215zM878 1853q-38 -156 -140 -241.5t-266 -85.5q-77 0 -139 22t-104.5 64t-62.5 102.5t-13 138.5h145q-3 -88 47.5 -130t147.5 -42q94 0 152 41t89 131h144z" />
    <glyph glyph-name="ibreve" unicode="&#x12d;" horiz-adv-x="543" 
d="M283 0h-211l188 1075h211zM811 1546q-38 -156 -140 -241.5t-266 -85.5q-77 0 -139 22t-104.5 64t-62.5 102.5t-13 138.5h145q-3 -88 47.5 -130t147.5 -42q94 0 152 41t89 131h144z" />
    <glyph glyph-name="Iogonek" unicode="&#x12e;" horiz-adv-x="608" 
d="M317 0h-215l254 1434h215zM315 0q-21 -5 -59.5 -24t-76.5 -46.5t-66 -60t-28 -64.5q0 -17 9.5 -29t29.5 -12q17 0 32 10.5t26 22.5l94 -73q-36 -60 -89 -97t-126 -37q-71 0 -121 40t-50 113q0 45 20.5 84t52 71.5t69 58t72.5 43.5h211z" />
    <glyph glyph-name="iogonek" unicode="&#x12f;" horiz-adv-x="543" 
d="M541 1350q0 -28 -10.5 -52.5t-28.5 -43t-41.5 -29.5t-50.5 -11q-28 0 -52.5 11t-42.5 29.5t-28.5 43t-10.5 52.5t10.5 53t28.5 43.5t42.5 29.5t52.5 11q27 0 50.5 -11t41.5 -29.5t28.5 -43.5t10.5 -53zM283 0h-211l188 1075h211zM285 0q-21 -5 -59.5 -24t-76.5 -46.5
t-66 -60t-28 -64.5q0 -17 9.5 -29t29.5 -12q17 0 32 10.5t26 22.5l94 -73q-36 -60 -89 -97t-126 -37q-71 0 -121 40t-50 113q0 45 20.5 84t52 71.5t69 58t72.5 43.5h211z" />
    <glyph glyph-name="Idotaccent" unicode="&#x130;" horiz-adv-x="608" 
d="M317 0h-215l254 1434h215zM644 1663q0 -28 -11 -53t-30 -43.5t-44 -29.5t-53 -11t-53.5 11t-44.5 29.5t-30 43.5t-11 53t11 53.5t30 44.5t44.5 30t53.5 11t53 -11t44 -30t30 -44.5t11 -53.5z" />
    <glyph glyph-name="dotlessi" unicode="&#x131;" horiz-adv-x="543" 
d="M283 0h-211l188 1075h211z" />
    <glyph glyph-name="IJ" unicode="&#x132;" horiz-adv-x="1847" 
d="M317 0h-215l254 1434h215zM1665 565q-36 -204 -104.5 -333t-180.5 -192q-115 -63 -274 -63q-112 0 -195 31.5t-140.5 86.5t-91 128t-46.5 156l206 53q12 -55 34 -100t55 -77t79 -49.5t107 -17.5q70 0 125 21.5t96 68.5t70 120t47 177l151 859h215z" />
    <glyph glyph-name="ij" unicode="&#x133;" horiz-adv-x="1085" 
d="M541 1350q0 -28 -10.5 -52.5t-28.5 -43t-41.5 -29.5t-50.5 -11q-28 0 -52.5 11t-42.5 29.5t-28.5 43t-10.5 52.5t10.5 53t28.5 43.5t42.5 29.5t52.5 11q27 0 50.5 -11t41.5 -29.5t28.5 -43.5t10.5 -53zM283 0h-211l188 1075h211zM1086 1350q0 -28 -11 -52.5t-29 -43
t-41.5 -29.5t-49.5 -11q-28 0 -52.5 11t-43 29.5t-29.5 43t-11 52.5t11 53t29.5 43.5t43 29.5t52.5 11q26 0 49.5 -11t41.5 -29.5t29 -43.5t11 -53zM832 39q-18 -103 -47 -178t-79.5 -127t-128 -83t-192.5 -46l-47 182q72 14 121 30.5t81.5 44.5t51.5 72t31 113l180 1028
h211z" />
    <glyph glyph-name="Jcircumflex" unicode="&#x134;" horiz-adv-x="1239" 
d="M1057 565q-36 -204 -104.5 -333t-180.5 -192q-115 -63 -274 -63q-112 0 -195 31.5t-140.5 86.5t-91 128t-46.5 156l206 53q12 -55 34 -100t55 -77t79 -49.5t107 -17.5q70 0 125 21.5t96 68.5t70 120t47 177l151 859h215zM1304 1512l-163 180l-226 -180h-174l297 327h246
l182 -327h-162z" />
    <glyph glyph-name="jcircumflex" unicode="&#x135;" horiz-adv-x="543" 
d="M289 39q-18 -103 -47 -178t-79.5 -127t-128 -83t-192.5 -46l-47 182q72 14 121 30.5t81.5 44.5t51.5 72t31 113l180 1028h211zM590 1219l-164 180l-225 -180h-174l297 327h245l183 -327h-162z" />
    <glyph glyph-name="Kcommaaccent" unicode="&#x136;" horiz-adv-x="1395" 
d="M870 913l344 -913h-227l-280 741l-336 -340l-70 -401h-209l252 1434h209l-125 -725l692 725h254zM548 -491h-125l91 393h216z" />
    <glyph glyph-name="kcommaaccent" unicode="&#x137;" horiz-adv-x="1075" 
d="M707 717l190 -717h-213l-143 541l-211 -224l-58 -317h-211l244 1382l232 111l-155 -873l419 455h243zM415 -491h-125l91 393h216z" />
    <glyph glyph-name="kgreenlandic" unicode="&#x138;" horiz-adv-x="1075" 
d="M707 717l190 -717h-213l-143 541l-211 -224l-58 -317h-211l190 1076h212l-81 -456l419 455h243z" />
    <glyph glyph-name="Lacute" unicode="&#x139;" horiz-adv-x="1210" 
d="M1014 0h-922l252 1434h215l-215 -1223h707zM528 1526h-168l277 327h286z" />
    <glyph glyph-name="lacute" unicode="&#x13a;" horiz-adv-x="543" 
d="M283 0h-211l243 1382l232 111zM500 1526h-168l277 327h286z" />
    <glyph glyph-name="Lcommaaccent" unicode="&#x13b;" horiz-adv-x="1210" 
d="M1014 0h-922l252 1434h215l-215 -1223h707zM449 -491h-125l91 393h216z" />
    <glyph glyph-name="lcommaaccent" unicode="&#x13c;" horiz-adv-x="543" 
d="M283 0h-211l243 1382l232 111zM89 -491h-125l91 393h216z" />
    <glyph glyph-name="Lcaron" unicode="&#x13d;" horiz-adv-x="1210" 
d="M1014 0h-922l252 1434h215l-215 -1223h707zM797 1125h-141l120 514h269z" />
    <glyph glyph-name="lcaron" unicode="&#x13e;" horiz-adv-x="686" 
d="M283 0h-211l243 1382l232 111zM705.182 974.653h-126.146l107.358 460.73h240.662z" />
    <glyph glyph-name="Ldot" unicode="&#x13f;" horiz-adv-x="1210" 
d="M1014 0h-922l252 1434h215l-215 -1223h707zM1000 752q0 -33 -13 -62.5t-35 -51.5t-51.5 -35t-62.5 -13t-62.5 13t-51.5 35t-35 51.5t-13 62.5t13 62.5t35 52t51.5 35.5t62.5 13t62.5 -13t51.5 -35.5t35 -52t13 -62.5z" />
    <glyph glyph-name="ldot" unicode="&#x140;" horiz-adv-x="1063" 
d="M283 0h-211l243 1382l232 111zM920 752q0 -33 -13 -62.5t-35 -51.5t-51.5 -35t-62.5 -13t-62.5 13t-51.5 35t-35 51.5t-13 62.5t13 62.5t35 52t51.5 35.5t62.5 13t62.5 -13t51.5 -35.5t35 -52t13 -62.5z" />
    <glyph glyph-name="Lslash" unicode="&#x141;" horiz-adv-x="1241" 
d="M1044 0h-921l86 479l-156 -106l43 235l154 107l127 719h211l-101 -572l328 236l-41 -236l-330 -235l-73 -416h710z" />
    <glyph glyph-name="lslash" unicode="&#x142;" horiz-adv-x="584" 
d="M457 877l121 90l-41 -236l-123 -92l-113 -639h-207l86 487l-121 -79l43 235l121 82l115 659l227 109z" />
    <glyph glyph-name="Nacute" unicode="&#x143;" horiz-adv-x="1454" 
d="M1174 0h-197l-488 1071l-186 -1071h-211l254 1434h207l478 -1066l186 1066h210zM876 1526h-168l277 327h286z" />
    <glyph glyph-name="nacute" unicode="&#x144;" horiz-adv-x="1159" 
d="M1040 764q0 -31 -4 -66.5t-10 -70.5l-111 -627h-210l104 600q5 28 7.5 55t2.5 50q0 102 -40 150t-134 48q-47 0 -90 -18.5t-77 -54.5t-60 -90t-43 -142l-105 -598h-211l191 1075h211l-17 -92q55 56 120.5 85.5t146.5 29.5q159 0 244 -84.5t85 -249.5zM668 1219h-168
l277 327h286z" />
    <glyph glyph-name="Ncommaaccent" unicode="&#x145;" horiz-adv-x="1454" 
d="M1174 0h-197l-488 1071l-186 -1071h-211l254 1434h207l478 -1066l186 1066h210zM605 -491h-125l91 393h216z" />
    <glyph glyph-name="ncommaaccent" unicode="&#x146;" horiz-adv-x="1159" 
d="M1040 764q0 -31 -4 -66.5t-10 -70.5l-111 -627h-210l104 600q5 28 7.5 55t2.5 50q0 102 -40 150t-134 48q-47 0 -90 -18.5t-77 -54.5t-60 -90t-43 -142l-105 -598h-211l191 1075h211l-17 -92q55 56 120.5 85.5t146.5 29.5q159 0 244 -84.5t85 -249.5zM458 -491h-125
l91 393h216z" />
    <glyph glyph-name="Ncaron" unicode="&#x147;" horiz-adv-x="1454" 
d="M1174 0h-197l-488 1071l-186 -1071h-211l254 1434h207l478 -1066l186 1066h210zM1037 1526h-246l-182 327h161l164 -180l226 180h174z" />
    <glyph glyph-name="ncaron" unicode="&#x148;" horiz-adv-x="1159" 
d="M1040 764q0 -31 -4 -66.5t-10 -70.5l-111 -627h-210l104 600q5 28 7.5 55t2.5 50q0 102 -40 150t-134 48q-47 0 -90 -18.5t-77 -54.5t-60 -90t-43 -142l-105 -598h-211l191 1075h211l-17 -92q55 56 120.5 85.5t146.5 29.5q159 0 244 -84.5t85 -249.5zM822 1219h-246
l-182 327h161l164 -180l226 180h174z" />
    <glyph glyph-name="napostrophe" unicode="&#x149;" horiz-adv-x="1620" 
d="M1501 764q0 -31 -4 -66.5t-10 -70.5l-111 -627h-210l104 600q5 28 7.5 55t2.5 50q0 102 -40 150t-134 48q-47 0 -90 -18.5t-77 -54.5t-60 -90t-43 -142l-105 -598h-211l191 1075h211l-17 -92q55 56 120.5 85.5t146.5 29.5q159 0 244 -84.5t85 -249.5zM340 920h-141
l120 514h269z" />
    <glyph glyph-name="Eng" unicode="&#x14a;" horiz-adv-x="1454" 
d="M1174 0q-20 -93 -50.5 -160.5t-81 -115t-125.5 -76t-184 -43.5l-47 182q69 13 116.5 29t79.5 41.5t51.5 65t32.5 100.5l-477 1048l-186 -1071h-211l254 1434h207l478 -1066l186 1066h210z" />
    <glyph glyph-name="eng" unicode="&#x14b;" horiz-adv-x="1159" 
d="M1040 764q0 -31 -4 -66.5t-10 -70.5l-104 -588q-19 -103 -48 -178t-79 -127t-127.5 -83t-192.5 -46l-47 182q70 13 118.5 29.5t81 43t51.5 67t30 102.5l100 571q5 28 7.5 55t2.5 50q0 102 -40 150t-134 48q-46 0 -89.5 -18.5t-78 -55t-61 -93.5t-41.5 -138l-105 -598
h-211l191 1075h211l-17 -92q22 23 49.5 44t60.5 36.5t72 25t85 9.5q83 0 144.5 -23t103 -66t61.5 -105.5t20 -139.5z" />
    <glyph glyph-name="Omacron" unicode="&#x14c;" horiz-adv-x="1448" 
d="M1382 875q0 -115 -25.5 -237t-70.5 -220t-101 -172.5t-134 -136.5t-174.5 -97t-204.5 -35q-147 0 -258.5 57t-180.5 160t-85.5 207t-16.5 174q1 97 26 218t70 220t99 170.5t128 132.5t177 100.5t221 39.5q144 0 253 -57.5t170.5 -150.5t83.5 -188.5t23 -184.5zM1158 810
q2 76 -10.5 145.5t-52 139t-110.5 112t-166 42.5q-97 0 -185.5 -52.5t-154.5 -156t-94 -223t-30 -197.5q-2 -53 9 -130t52.5 -150t110.5 -114.5t159 -41.5q101 0 191 51.5t155.5 151.5t95.5 222t30 201zM1135 1556h-574l31 185h573z" />
    <glyph glyph-name="omacron" unicode="&#x14d;" horiz-adv-x="1159" 
d="M92 451q0 136 47 265t128 214.5t174 126.5t188 41q106 0 191.5 -39.5t141 -108t80 -151.5t24.5 -164q0 -158 -48 -283t-128.5 -209.5t-174 -125t-191.5 -40.5q-104 0 -187.5 39t-140.5 109t-80.5 154.5t-23.5 171.5zM306 470q-1 -60 11.5 -111t42 -92.5t75.5 -65
t108 -23.5q64 0 118.5 30.5t97 87t68.5 139.5t26 179q0 51 -11.5 101t-42 92.5t-78 66t-111.5 23.5q-61 0 -115 -29.5t-97 -87.5t-67.5 -141t-24.5 -169zM992 1249h-574l31 185h573z" />
    <glyph glyph-name="Obreve" unicode="&#x14e;" horiz-adv-x="1448" 
d="M1382 875q0 -115 -25.5 -237t-70.5 -220t-101 -172.5t-134 -136.5t-174.5 -97t-204.5 -35q-147 0 -258.5 57t-180.5 160t-85.5 207t-16.5 174q1 97 26 218t70 220t99 170.5t128 132.5t177 100.5t221 39.5q144 0 253 -57.5t170.5 -150.5t83.5 -188.5t23 -184.5zM1158 810
q2 76 -10.5 145.5t-52 139t-110.5 112t-166 42.5q-97 0 -185.5 -52.5t-154.5 -156t-94 -223t-30 -197.5q-2 -53 9 -130t52.5 -150t110.5 -114.5t159 -41.5q101 0 191 51.5t155.5 151.5t95.5 222t30 201zM1262 1853q-38 -156 -140 -241.5t-266 -85.5q-77 0 -139 22t-104.5 64
t-62.5 102.5t-13 138.5h145q-3 -88 47.5 -130t147.5 -42q94 0 152 41t89 131h144z" />
    <glyph glyph-name="obreve" unicode="&#x14f;" horiz-adv-x="1159" 
d="M92 451q0 136 47 265t128 214.5t174 126.5t188 41q106 0 191.5 -39.5t141 -108t80 -151.5t24.5 -164q0 -158 -48 -283t-128.5 -209.5t-174 -125t-191.5 -40.5q-104 0 -187.5 39t-140.5 109t-80.5 154.5t-23.5 171.5zM306 470q-1 -60 11.5 -111t42 -92.5t75.5 -65
t108 -23.5q64 0 118.5 30.5t97 87t68.5 139.5t26 179q0 51 -11.5 101t-42 92.5t-78 66t-111.5 23.5q-61 0 -115 -29.5t-97 -87.5t-67.5 -141t-24.5 -169zM1119 1546q-38 -156 -140 -241.5t-266 -85.5q-77 0 -139 22t-104.5 64t-62.5 102.5t-13 138.5h145q-3 -88 47.5 -130
t147.5 -42q94 0 152 41t89 131h144z" />
    <glyph glyph-name="Ohungarumlaut" unicode="&#x150;" horiz-adv-x="1448" 
d="M1382 875q0 -115 -25.5 -237t-70.5 -220t-101 -172.5t-134 -136.5t-174.5 -97t-204.5 -35q-147 0 -258.5 57t-180.5 160t-85.5 207t-16.5 174q1 97 26 218t70 220t99 170.5t128 132.5t177 100.5t221 39.5q144 0 253 -57.5t170.5 -150.5t83.5 -188.5t23 -184.5zM1158 810
q2 76 -10.5 145.5t-52 139t-110.5 112t-166 42.5q-97 0 -185.5 -52.5t-154.5 -156t-94 -223t-30 -197.5q-2 -53 9 -130t52.5 -150t110.5 -114.5t159 -41.5q101 0 191 51.5t155.5 151.5t95.5 222t30 201zM1143 1526h-168l277 327h286zM723 1526h-168l277 327h286z" />
    <glyph glyph-name="ohungarumlaut" unicode="&#x151;" horiz-adv-x="1159" 
d="M92 451q0 136 47 265t128 214.5t174 126.5t188 41q106 0 191.5 -39.5t141 -108t80 -151.5t24.5 -164q0 -158 -48 -283t-128.5 -209.5t-174 -125t-191.5 -40.5q-104 0 -187.5 39t-140.5 109t-80.5 154.5t-23.5 171.5zM306 470q-1 -60 11.5 -111t42 -92.5t75.5 -65
t108 -23.5q64 0 118.5 30.5t97 87t68.5 139.5t26 179q0 51 -11.5 101t-42 92.5t-78 66t-111.5 23.5q-61 0 -115 -29.5t-97 -87.5t-67.5 -141t-24.5 -169zM918 1219h-168l277 327h286zM498 1219h-168l277 327h286z" />
    <glyph glyph-name="OE" unicode="&#x152;" horiz-adv-x="2167" 
d="M1158 810q2 76 -10.5 145.5t-52 139t-110.5 112t-166 42.5q-97 0 -185.5 -52.5t-154.5 -156t-94 -223t-30 -197.5q-2 -53 9 -130t52.5 -150t110.5 -114.5t159 -41.5q101 0 191 51.5t155.5 151.5t95.5 222t30 201zM1260 209h731l-17 -209h-946l27 156q-34 -42 -73 -75
t-85.5 -56t-102 -35.5t-122.5 -12.5q-147 0 -258.5 57t-180.5 160t-85.5 207t-16.5 174q1 97 26 218t70 220t99 170.5t128 132.5t177 100.5t221 39.5q66 0 126 -13t109 -37.5t89.5 -60t72.5 -81.5l31 170h895l-37 -209h-700l-62 -355h565l-37 -208h-565z" />
    <glyph glyph-name="oe" unicode="&#x153;" horiz-adv-x="1872" 
d="M1053 465q-6 -70 9.5 -125t48.5 -93.5t81.5 -58.5t107.5 -20q67 0 124.5 23.5t117.5 60.5l92 -148q-83 -63 -171 -95t-191 -32q-130 0 -219.5 55.5t-137.5 157.5q-72 -103 -174.5 -158t-218.5 -55q-102 0 -185.5 39t-140.5 109t-81.5 160.5t-24.5 165.5q0 136 46 264
t128 214.5t174.5 127.5t190.5 41q125 0 217.5 -57t140.5 -158q36 53 78 92.5t95 69t108 41.5t104 12q97 0 169.5 -33t121.5 -91t73.5 -137.5t24.5 -172.5q0 -53 -7 -103.5t-19 -95.5h-682zM1561 635q5 58 -5 108t-36 86.5t-68 57t-102 20.5q-54 0 -97.5 -20.5t-77.5 -56.5
t-57.5 -86t-38.5 -109h482zM304 470q-1 -58 12.5 -110.5t42.5 -94t75.5 -64.5t108.5 -23q64 0 118.5 30.5t97 87t67.5 139.5t25 179q0 51 -12.5 101t-42.5 92.5t-78 66t-108 23.5q-61 0 -116.5 -29.5t-98 -87.5t-67 -141t-24.5 -169z" />
    <glyph glyph-name="Racute" unicode="&#x154;" horiz-adv-x="1413" 
d="M1360 1051q0 -89 -24 -164.5t-72.5 -134.5t-121 -100.5t-169.5 -63.5l198 -588h-229l-192 567h-347l-100 -567h-211l254 1434h549q109 0 195.5 -23.5t146.5 -71t91.5 -119.5t31.5 -169zM1137 1036q0 91 -62 143t-196 52h-359l-80 -461h400q138 0 217.5 65.5t79.5 200.5z
M795 1526h-168l277 327h286z" />
    <glyph glyph-name="racute" unicode="&#x155;" horiz-adv-x="848" 
d="M791 834q-25 20 -63 35.5t-89 15.5q-48 0 -90 -14.5t-76 -49t-58.5 -91.5t-39.5 -142l-103 -588h-211l191 1075h211l-19 -98q47 54 111 87.5t141 33.5q65 0 110 -17.5t73 -42.5zM614 1219h-168l277 327h286z" />
    <glyph glyph-name="Rcommaaccent" unicode="&#x156;" horiz-adv-x="1413" 
d="M1360 1051q0 -89 -24 -164.5t-72.5 -134.5t-121 -100.5t-169.5 -63.5l198 -588h-229l-192 567h-347l-100 -567h-211l254 1434h549q109 0 195.5 -23.5t146.5 -71t91.5 -119.5t31.5 -169zM1137 1036q0 91 -62 143t-196 52h-359l-80 -461h400q138 0 217.5 65.5t79.5 200.5z
M535 -491h-125l91 393h216z" />
    <glyph glyph-name="rcommaaccent" unicode="&#x157;" horiz-adv-x="848" 
d="M791 834q-25 20 -63 35.5t-89 15.5q-48 0 -90 -14.5t-76 -49t-58.5 -91.5t-39.5 -142l-103 -588h-211l191 1075h211l-19 -98q47 54 111 87.5t141 33.5q65 0 110 -17.5t73 -42.5zM82 -491h-125l91 393h216z" />
    <glyph glyph-name="Rcaron" unicode="&#x158;" horiz-adv-x="1413" 
d="M1360 1051q0 -89 -24 -164.5t-72.5 -134.5t-121 -100.5t-169.5 -63.5l198 -588h-229l-192 567h-347l-100 -567h-211l254 1434h549q109 0 195.5 -23.5t146.5 -71t91.5 -119.5t31.5 -169zM1137 1036q0 91 -62 143t-196 52h-359l-80 -461h400q138 0 217.5 65.5t79.5 200.5z
M949 1526h-246l-182 327h161l164 -180l226 180h174z" />
    <glyph glyph-name="rcaron" unicode="&#x159;" horiz-adv-x="848" 
d="M791 834q-25 20 -63 35.5t-89 15.5q-48 0 -90 -14.5t-76 -49t-58.5 -91.5t-39.5 -142l-103 -588h-211l191 1075h211l-19 -98q47 54 111 87.5t141 33.5q65 0 110 -17.5t73 -42.5zM668 1219h-246l-182 327h161l164 -180l226 180h174z" />
    <glyph glyph-name="Sacute" unicode="&#x15a;" horiz-adv-x="1282" 
d="M1051 1087q-32 36 -67 66t-77.5 51.5t-93.5 34t-113 12.5q-60 0 -104.5 -14.5t-74.5 -39t-47.5 -60.5t-17.5 -75q0 -33 10.5 -59t40.5 -53t86 -55.5t146 -63.5q89 -35 163 -75t125.5 -93t73 -113.5t21.5 -134.5q0 -93 -39 -179.5t-114.5 -145t-170 -86t-204.5 -27.5
q-101 0 -185 21.5t-151.5 58t-119 84t-85.5 99.5l172 139q39 -50 76.5 -82.5t92.5 -60t111 -40t118 -12.5q56 0 105.5 13.5t88 40t61.5 67t23 89.5q1 43 -14.5 75.5t-48 61t-91.5 58.5t-147 64q-94 36 -163.5 75t-109.5 80.5t-63.5 95.5t-23.5 141q0 103 43 183t110 129
t154 74t188 25q86 0 158 -16.5t131.5 -45.5t108 -70t88.5 -89zM729 1526h-168l277 327h286z" />
    <glyph glyph-name="sacute" unicode="&#x15b;" horiz-adv-x="1014" 
d="M836 801q-33 25 -64 43t-70 34t-81.5 24.5t-88.5 8.5q-70 0 -108.5 -28t-38.5 -79q0 -26 7.5 -41.5t26 -32t58.5 -38.5t107 -53q70 -32 125 -64.5t91.5 -72t53 -89t10.5 -116.5q-7 -91 -44.5 -152t-93.5 -98.5t-124.5 -53.5t-136.5 -16q-125 0 -234.5 40.5t-197.5 119.5
l112 156q68 -57 150 -93t188 -36q79 0 125.5 32t48.5 101q0 23 -8 40t-26 34t-54.5 37.5t-93.5 44.5q-80 34 -139 68t-95.5 73t-50.5 81.5t-14 87.5q0 157 99 246t276 89q66 0 123.5 -11t106.5 -29t90 -41.5t73 -47.5zM596 1219h-168l277 327h286z" />
    <glyph glyph-name="Scircumflex" unicode="&#x15c;" horiz-adv-x="1282" 
d="M1051 1087q-32 36 -67 66t-77.5 51.5t-93.5 34t-113 12.5q-60 0 -104.5 -14.5t-74.5 -39t-47.5 -60.5t-17.5 -75q0 -33 10.5 -59t40.5 -53t86 -55.5t146 -63.5q89 -35 163 -75t125.5 -93t73 -113.5t21.5 -134.5q0 -93 -39 -179.5t-114.5 -145t-170 -86t-204.5 -27.5
q-101 0 -185 21.5t-151.5 58t-119 84t-85.5 99.5l172 139q39 -50 76.5 -82.5t92.5 -60t111 -40t118 -12.5q56 0 105.5 13.5t88 40t61.5 67t23 89.5q1 43 -14.5 75.5t-48 61t-91.5 58.5t-147 64q-94 36 -163.5 75t-109.5 80.5t-63.5 95.5t-23.5 141q0 103 43 183t110 129
t154 74t188 25q86 0 158 -16.5t131.5 -45.5t108 -70t88.5 -89zM960 1526l-163 180l-226 -180h-174l297 327h246l182 -327h-162z" />
    <glyph glyph-name="scircumflex" unicode="&#x15d;" horiz-adv-x="1014" 
d="M836 801q-33 25 -64 43t-70 34t-81.5 24.5t-88.5 8.5q-70 0 -108.5 -28t-38.5 -79q0 -26 7.5 -41.5t26 -32t58.5 -38.5t107 -53q70 -32 125 -64.5t91.5 -72t53 -89t10.5 -116.5q-7 -91 -44.5 -152t-93.5 -98.5t-124.5 -53.5t-136.5 -16q-125 0 -234.5 40.5t-197.5 119.5
l112 156q68 -57 150 -93t188 -36q79 0 125.5 32t48.5 101q0 23 -8 40t-26 34t-54.5 37.5t-93.5 44.5q-80 34 -139 68t-95.5 73t-50.5 81.5t-14 87.5q0 157 99 246t276 89q66 0 123.5 -11t106.5 -29t90 -41.5t73 -47.5zM815 1219l-163 180l-226 -180h-174l297 327h246
l182 -327h-162z" />
    <glyph glyph-name="Scedilla" unicode="&#x15e;" horiz-adv-x="1282" 
d="M1051 1087q-32 36 -67 66t-77.5 51.5t-93.5 34t-113 12.5q-60 0 -104.5 -14.5t-74.5 -39t-47.5 -60.5t-17.5 -75q0 -33 10.5 -59t40.5 -53t86 -55.5t146 -63.5q89 -35 163 -75t125.5 -93t73 -113.5t21.5 -134.5q0 -93 -39 -179.5t-114.5 -145t-170 -86t-204.5 -27.5
q-101 0 -185 21.5t-151.5 58t-119 84t-85.5 99.5l172 139q39 -50 76.5 -82.5t92.5 -60t111 -40t118 -12.5q56 0 105.5 13.5t88 40t61.5 67t23 89.5q1 43 -14.5 75.5t-48 61t-91.5 58.5t-147 64q-94 36 -163.5 75t-109.5 80.5t-63.5 95.5t-23.5 141q0 103 43 183t110 129
t154 74t188 25q86 0 158 -16.5t131.5 -45.5t108 -70t88.5 -89zM762 -208q0 -47 -20 -83t-51.5 -58.5t-74.5 -34t-94 -11.5q-86 0 -157.5 27t-120.5 65l55 67q43 -30 91.5 -47.5t107.5 -17.5q51 0 82.5 17.5t33.5 56.5q3 30 -12 45.5t-49 15.5q-23 0 -41 -5.5t-37 -16.5
l-70 28l89 199h100l-57 -133q17 8 37.5 13t48.5 5q65 0 102 -35t37 -97z" />
    <glyph glyph-name="scedilla" unicode="&#x15f;" horiz-adv-x="1014" 
d="M836 801q-33 25 -64 43t-70 34t-81.5 24.5t-88.5 8.5q-70 0 -108.5 -28t-38.5 -79q0 -26 7.5 -41.5t26 -32t58.5 -38.5t107 -53q70 -32 125 -64.5t91.5 -72t53 -89t10.5 -116.5q-7 -91 -44.5 -152t-93.5 -98.5t-124.5 -53.5t-136.5 -16q-125 0 -234.5 40.5t-197.5 119.5
l112 156q68 -57 150 -93t188 -36q79 0 125.5 32t48.5 101q0 23 -8 40t-26 34t-54.5 37.5t-93.5 44.5q-80 34 -139 68t-95.5 73t-50.5 81.5t-14 87.5q0 157 99 246t276 89q66 0 123.5 -11t106.5 -29t90 -41.5t73 -47.5zM629 -208q0 -47 -20 -83t-51.5 -58.5t-74.5 -34
t-94 -11.5q-86 0 -157.5 27t-120.5 65l55 67q43 -30 91.5 -47.5t107.5 -17.5q51 0 82.5 17.5t33.5 56.5q3 30 -12 45.5t-49 15.5q-23 0 -41 -5.5t-37 -16.5l-70 28l89 199h100l-57 -133q17 8 37.5 13t48.5 5q65 0 102 -35t37 -97z" />
    <glyph glyph-name="Scaron" unicode="&#x160;" horiz-adv-x="1282" 
d="M1051 1087q-32 36 -67 66t-77.5 51.5t-93.5 34t-113 12.5q-60 0 -104.5 -14.5t-74.5 -39t-47.5 -60.5t-17.5 -75q0 -33 10.5 -59t40.5 -53t86 -55.5t146 -63.5q89 -35 163 -75t125.5 -93t73 -113.5t21.5 -134.5q0 -93 -39 -179.5t-114.5 -145t-170 -86t-204.5 -27.5
q-101 0 -185 21.5t-151.5 58t-119 84t-85.5 99.5l172 139q39 -50 76.5 -82.5t92.5 -60t111 -40t118 -12.5q56 0 105.5 13.5t88 40t61.5 67t23 89.5q1 43 -14.5 75.5t-48 61t-91.5 58.5t-147 64q-94 36 -163.5 75t-109.5 80.5t-63.5 95.5t-23.5 141q0 103 43 183t110 129
t154 74t188 25q86 0 158 -16.5t131.5 -45.5t108 -70t88.5 -89zM914 1541h-246l-182 327h161l164 -180l226 180h174z" />
    <glyph glyph-name="scaron" unicode="&#x161;" horiz-adv-x="1014" 
d="M836 801q-33 25 -64 43t-70 34t-81.5 24.5t-88.5 8.5q-70 0 -108.5 -28t-38.5 -79q0 -26 7.5 -41.5t26 -32t58.5 -38.5t107 -53q70 -32 125 -64.5t91.5 -72t53 -89t10.5 -116.5q-7 -91 -44.5 -152t-93.5 -98.5t-124.5 -53.5t-136.5 -16q-125 0 -234.5 40.5t-197.5 119.5
l112 156q68 -57 150 -93t188 -36q79 0 125.5 32t48.5 101q0 23 -8 40t-26 34t-54.5 37.5t-93.5 44.5q-80 34 -139 68t-95.5 73t-50.5 81.5t-14 87.5q0 157 99 246t276 89q66 0 123.5 -11t106.5 -29t90 -41.5t73 -47.5zM740 1219h-246l-182 327h161l164 -180l226 180h174z
" />
    <glyph glyph-name="Tcedilla" unicode="&#x162;" horiz-adv-x="1235" 
d="M1260 1223h-414l-215 -1223h-215l215 1223h-414l37 211h1042zM754 -208q0 -47 -20 -83t-51.5 -58.5t-74.5 -34t-94 -11.5q-86 0 -157.5 27t-120.5 65l55 67q43 -30 91.5 -47.5t107.5 -17.5q51 0 82.5 17.5t33.5 56.5q3 30 -12 45.5t-49 15.5q-23 0 -41 -5.5t-37 -16.5
l-70 28l89 199h100l-57 -133q17 8 37.5 13t48.5 5q65 0 102 -35t37 -97z" />
    <glyph glyph-name="tcedilla" unicode="&#x163;" horiz-adv-x="817" 
d="M743 883h-254l-100 -576q-3 -15 -4.5 -30t-1.5 -27q0 -42 25 -60t71 -18q50 0 85 12t69 35l-62 -201q-40 -21 -85.5 -31t-84.5 -10q-117 0 -176 56.5t-59 159.5q0 22 8 73l109 617h-154l35 192h153l54 303l227 115l-74 -418h254zM531 -208q0 -47 -20 -83t-51.5 -58.5
t-74.5 -34t-94 -11.5q-86 0 -157.5 27t-120.5 65l55 67q43 -30 91.5 -47.5t107.5 -17.5q51 0 82.5 17.5t33.5 56.5q3 30 -12 45.5t-49 15.5q-23 0 -41 -5.5t-37 -16.5l-70 28l89 199h100l-57 -133q17 8 37.5 13t48.5 5q65 0 102 -35t37 -97z" />
    <glyph glyph-name="Tcaron" unicode="&#x164;" horiz-adv-x="1235" 
d="M1260 1223h-414l-215 -1223h-215l215 1223h-414l37 211h1042zM899 1526h-246l-182 327h161l164 -180l226 180h174z" />
    <glyph glyph-name="tcaron" unicode="&#x165;" horiz-adv-x="817" 
d="M743 883h-254l-100 -576q-3 -15 -4.5 -30t-1.5 -27q0 -42 25 -60t71 -18q50 0 85 12t69 35l-62 -201q-40 -21 -85.5 -31t-84.5 -10q-117 0 -176 56.5t-59 159.5q0 22 8 73l109 617h-154l35 192h153l54 303l227 115l-74 -418h254zM785.565 1145.07h-114.278
l97.2578 415.712h218.021z" />
    <glyph glyph-name="Tbar" unicode="&#x166;" horiz-adv-x="1235" 
d="M201 598l37 211h319l74 414h-414l37 211h1042l-36 -211h-414l-74 -414h318l-37 -211h-318l-104 -598h-215l104 598h-319z" />
    <glyph glyph-name="tbar" unicode="&#x167;" horiz-adv-x="817" 
d="M678 510h-254l-35 -203q-3 -15 -4.5 -30t-1.5 -27q0 -42 25 -60t71 -18q50 0 84.5 12t69.5 35l-62 -201q-40 -21 -85.5 -31t-84.5 -10q-117 0 -176 56.5t-59 159.5q0 17 2.5 35t5.5 38l43 244h-154l35 192h152l33 181h-154l35 192h153l54 303l227 115l-74 -418h254
l-35 -192h-254l-30 -181h254z" />
    <glyph glyph-name="Utilde" unicode="&#x168;" horiz-adv-x="1434" 
d="M1266 580q-26 -144 -71.5 -256t-117.5 -189t-172.5 -117.5t-234.5 -40.5q-117 0 -209 31.5t-156 92t-97.5 149.5t-33.5 205q2 35 6.5 79t12.5 89l143 811h215l-143 -811q-7 -38 -11 -73.5t-4 -66.5q0 -147 75.5 -222t219.5 -75q83 0 143 27t104 79t70.5 119.5t49.5 184.5
l147 838h215zM1272 1798q-16 -85 -37 -131t-50.5 -79t-68 -51t-88.5 -18q-52 0 -96.5 18t-83.5 41t-75 41.5t-64 18.5q-34 0 -58 -24.5t-43 -87.5h-145q14 76 37 126t52.5 83.5t68.5 51t86 17.5q48 0 93 -17.5t84 -39.5q41 -24 78 -43t66 -19q34 0 57 25t42 88h145z" />
    <glyph glyph-name="utilde" unicode="&#x169;" horiz-adv-x="1159" 
d="M117 311q0 31 4 66.5t10 71.5l111 626h211l-105 -600q-5 -28 -7.5 -54.5t-2.5 -49.5q0 -102 40 -150.5t134 -48.5q49 0 92.5 19t79 57t60.5 95t38 134l105 598h211l-191 -1075h-211l17 92q-66 -65 -129 -90t-138 -25q-158 0 -243.5 84.5t-85.5 249.5zM1130 1491
q-16 -85 -37 -131t-50.5 -79t-68 -51t-88.5 -18q-52 0 -96.5 18t-83.5 41t-75 41.5t-64 18.5q-34 0 -58 -24.5t-43 -87.5h-145q14 76 37 126t52.5 83.5t68.5 51t86 17.5q48 0 93 -17.5t84 -39.5q41 -24 78 -43t66 -19q34 0 57 25t42 88h145z" />
    <glyph glyph-name="Umacron" unicode="&#x16a;" horiz-adv-x="1434" 
d="M1266 580q-26 -144 -71.5 -256t-117.5 -189t-172.5 -117.5t-234.5 -40.5q-117 0 -209 31.5t-156 92t-97.5 149.5t-33.5 205q2 35 6.5 79t12.5 89l143 811h215l-143 -811q-7 -38 -11 -73.5t-4 -66.5q0 -147 75.5 -222t219.5 -75q83 0 143 27t104 79t70.5 119.5t49.5 184.5
l147 838h215zM1184 1556h-574l31 185h573z" />
    <glyph glyph-name="umacron" unicode="&#x16b;" horiz-adv-x="1159" 
d="M117 311q0 31 4 66.5t10 71.5l111 626h211l-105 -600q-5 -28 -7.5 -54.5t-2.5 -49.5q0 -102 40 -150.5t134 -48.5q49 0 92.5 19t79 57t60.5 95t38 134l105 598h211l-191 -1075h-211l17 92q-66 -65 -129 -90t-138 -25q-158 0 -243.5 84.5t-85.5 249.5zM992 1249h-574
l31 185h573z" />
    <glyph glyph-name="Ubreve" unicode="&#x16c;" horiz-adv-x="1434" 
d="M1266 580q-26 -144 -71.5 -256t-117.5 -189t-172.5 -117.5t-234.5 -40.5q-117 0 -209 31.5t-156 92t-97.5 149.5t-33.5 205q2 35 6.5 79t12.5 89l143 811h215l-143 -811q-7 -38 -11 -73.5t-4 -66.5q0 -147 75.5 -222t219.5 -75q83 0 143 27t104 79t70.5 119.5t49.5 184.5
l147 838h215zM1256 1853q-38 -156 -140 -241.5t-266 -85.5q-77 0 -139 22t-104.5 64t-62.5 102.5t-13 138.5h145q-3 -88 47.5 -130t147.5 -42q94 0 152 41t89 131h144z" />
    <glyph glyph-name="ubreve" unicode="&#x16d;" horiz-adv-x="1159" 
d="M117 311q0 31 4 66.5t10 71.5l111 626h211l-105 -600q-5 -28 -7.5 -54.5t-2.5 -49.5q0 -102 40 -150.5t134 -48.5q49 0 92.5 19t79 57t60.5 95t38 134l105 598h211l-191 -1075h-211l17 92q-66 -65 -129 -90t-138 -25q-158 0 -243.5 84.5t-85.5 249.5zM1121 1546
q-38 -156 -140 -241.5t-266 -85.5q-77 0 -139 22t-104.5 64t-62.5 102.5t-13 138.5h145q-3 -88 47.5 -130t147.5 -42q94 0 152 41t89 131h144z" />
    <glyph glyph-name="Uring" unicode="&#x16e;" horiz-adv-x="1434" 
d="M1266 580q-26 -144 -71.5 -256t-117.5 -189t-172.5 -117.5t-234.5 -40.5q-117 0 -209 31.5t-156 92t-97.5 149.5t-33.5 205q2 35 6.5 79t12.5 89l143 811h215l-143 -811q-7 -38 -11 -73.5t-4 -66.5q0 -147 75.5 -222t219.5 -75q83 0 143 27t104 79t70.5 119.5t49.5 184.5
l147 838h215zM1161 1782q0 -56 -19.5 -102.5t-54 -81t-82 -53.5t-102.5 -19q-56 0 -103 19t-81.5 53.5t-54 81t-19.5 102.5q0 55 19.5 102.5t54 82t81.5 54t103 19.5q55 0 102.5 -19.5t82 -54t54 -82t19.5 -102.5zM1028 1782q0 27 -9.5 50.5t-26.5 40.5t-39.5 26.5
t-49.5 9.5t-50 -9.5t-39.5 -26.5t-26 -40.5t-9.5 -50.5q0 -28 9.5 -51t26 -40t39.5 -26.5t50 -9.5t49.5 9.5t39.5 26.5t26.5 40t9.5 51z" />
    <glyph glyph-name="uring" unicode="&#x16f;" horiz-adv-x="1159" 
d="M117 311q0 31 4 66.5t10 71.5l111 626h211l-105 -600q-5 -28 -7.5 -54.5t-2.5 -49.5q0 -102 40 -150.5t134 -48.5q49 0 92.5 19t79 57t60.5 95t38 134l105 598h211l-191 -1075h-211l17 92q-66 -65 -129 -90t-138 -25q-158 0 -243.5 84.5t-85.5 249.5zM1000 1475
q0 -56 -19.5 -102.5t-54 -81t-82 -53.5t-102.5 -19q-56 0 -103 19t-81.5 53.5t-54 81t-19.5 102.5q0 55 19.5 102.5t54 82t81.5 54t103 19.5q55 0 102.5 -19.5t82 -54t54 -82t19.5 -102.5zM867 1475q0 27 -9.5 50.5t-26.5 40.5t-39.5 26.5t-49.5 9.5t-50 -9.5t-39.5 -26.5
t-26 -40.5t-9.5 -50.5q0 -28 9.5 -51t26 -40t39.5 -26.5t50 -9.5t49.5 9.5t39.5 26.5t26.5 40t9.5 51z" />
    <glyph glyph-name="Uhungarumlaut" unicode="&#x170;" horiz-adv-x="1434" 
d="M1266 580q-26 -144 -71.5 -256t-117.5 -189t-172.5 -117.5t-234.5 -40.5q-117 0 -209 31.5t-156 92t-97.5 149.5t-33.5 205q2 35 6.5 79t12.5 89l143 811h215l-143 -811q-7 -38 -11 -73.5t-4 -66.5q0 -147 75.5 -222t219.5 -75q83 0 143 27t104 79t70.5 119.5t49.5 184.5
l147 838h215zM1161 1526h-168l277 327h286zM741 1526h-168l277 327h286z" />
    <glyph glyph-name="uhungarumlaut" unicode="&#x171;" horiz-adv-x="1159" 
d="M117 311q0 31 4 66.5t10 71.5l111 626h211l-105 -600q-5 -28 -7.5 -54.5t-2.5 -49.5q0 -102 40 -150.5t134 -48.5q49 0 92.5 19t79 57t60.5 95t38 134l105 598h211l-191 -1075h-211l17 92q-66 -65 -129 -90t-138 -25q-158 0 -243.5 84.5t-85.5 249.5zM963 1219h-168
l277 327h286zM543 1219h-168l277 327h286z" />
    <glyph glyph-name="Uogonek" unicode="&#x172;" horiz-adv-x="1434" 
d="M623 -195q0 -17 9.5 -29t29.5 -12q17 0 31.5 10.5t25.5 22.5l94 -73q-35 -60 -90 -97t-125 -37q-36 0 -67 10.5t-54 30t-36.5 48t-13.5 64.5q0 39 16.5 74t43 65t58 55t61.5 43q-102 8 -182.5 43t-136 95.5t-84.5 145t-29 191.5q2 35 6.5 79t12.5 89l143 811h215
l-143 -811q-7 -38 -11 -73.5t-4 -66.5q0 -68 17 -122.5t53 -93.5t91.5 -60t133.5 -21q82 0 143 27.5t104 79t70.5 118.5t49.5 185l147 838h215l-151 -854q-21 -118 -55.5 -214.5t-85 -169.5t-119 -122.5t-158.5 -73.5q-28 -13 -66.5 -32.5t-74 -44t-60 -55.5t-24.5 -63z" />
    <glyph glyph-name="uogonek" unicode="&#x173;" horiz-adv-x="1159" 
d="M117 311q0 31 4 66.5t10 71.5l111 626h211l-105 -600q-5 -28 -7.5 -54.5t-2.5 -49.5q0 -102 40 -150.5t134 -48.5q49 0 92.5 19t79 57t60.5 95t38 134l105 598h211l-191 -1075h-211l17 92q-66 -65 -129 -90t-138 -25q-158 0 -243.5 84.5t-85.5 249.5zM907 0
q-21 -5 -59.5 -24t-76.5 -46.5t-66 -60t-28 -64.5q0 -17 9.5 -29t29.5 -12q17 0 32 10.5t26 22.5l94 -73q-36 -60 -89 -97t-126 -37q-71 0 -121 40t-50 113q0 45 20.5 84t52 71.5t69 58t72.5 43.5h211z" />
    <glyph glyph-name="Wcircumflex" unicode="&#x174;" horiz-adv-x="1759" 
d="M1278 0h-229l-69 1077l-456 -1077h-219l-39 1434h219l5 -1059l448 1059h205l70 -1060l384 1060h220zM1228 1506l-163 180l-226 -180h-174l297 327h246l182 -327h-162z" />
    <glyph glyph-name="wcircumflex" unicode="&#x175;" horiz-adv-x="1509" 
d="M1049 0h-193l-63 745l-330 -745h-193l-96 1075h213l42 -724l329 724h180l66 -724l305 724h217zM1073 1219l-163 180l-226 -180h-174l297 327h246l182 -327h-162z" />
    <glyph glyph-name="Ycircumflex" unicode="&#x176;" horiz-adv-x="1403" 
d="M813 565l-98 -565h-215l100 567l-356 867h239l258 -651l488 651h250zM1062 1526l-163 180l-226 -180h-174l297 327h246l182 -327h-162z" />
    <glyph glyph-name="ycircumflex" unicode="&#x177;" horiz-adv-x="1128" 
d="M381 -379h-225l211 385l-205 1069h223l128 -801l417 801h225zM880 1219l-163 180l-226 -180h-174l297 327h246l182 -327h-162z" />
    <glyph glyph-name="Ydieresis" unicode="&#x178;" horiz-adv-x="1403" 
d="M813 565l-98 -565h-215l100 567l-356 867h239l258 -651l488 651h250zM1210 1643q0 -28 -11 -53t-30 -43.5t-43.5 -29.5t-52.5 -11q-29 0 -54 11t-44 29.5t-30 43.5t-11 53t11 53.5t30 44.5t44 30t54 11q28 0 52.5 -11t43.5 -30t30 -44.5t11 -53.5zM811 1643
q0 -28 -11 -53t-30 -43.5t-44 -29.5t-52 -11q-29 0 -54 11t-44.5 29.5t-30.5 43.5t-11 53t11 53.5t30.5 44.5t44.5 30t54 11q27 0 52 -11t44 -30t30 -44.5t11 -53.5z" />
    <glyph glyph-name="Zacute" unicode="&#x179;" horiz-adv-x="1352" 
d="M1309 1237l-975 -1038h813l-35 -199h-1081l32 195l981 1040h-753l35 199h1015zM764 1526h-168l277 327h286z" />
    <glyph glyph-name="zacute" unicode="&#x17a;" horiz-adv-x="1055" 
d="M989 915l-661 -731h551l-33 -184h-819l26 160l671 731h-509l29 184h772zM614 1219h-168l277 327h286z" />
    <glyph glyph-name="Zdotaccent" unicode="&#x17b;" horiz-adv-x="1352" 
d="M1309 1237l-975 -1038h813l-35 -199h-1081l32 195l981 1040h-753l35 199h1015zM957 1663q0 -28 -11 -53t-30 -43.5t-44 -29.5t-53 -11t-53.5 11t-44.5 29.5t-30 43.5t-11 53t11 53.5t30 44.5t44.5 30t53.5 11t53 -11t44 -30t30 -44.5t11 -53.5z" />
    <glyph glyph-name="zdotaccent" unicode="&#x17c;" horiz-adv-x="1055" 
d="M989 915l-661 -731h551l-33 -184h-819l26 160l671 731h-509l29 184h772zM807 1356q0 -28 -11 -53t-30 -43.5t-44 -29.5t-53 -11t-53.5 11t-44.5 29.5t-30 43.5t-11 53t11 53.5t30 44.5t44.5 30t53.5 11t53 -11t44 -30t30 -44.5t11 -53.5z" />
    <glyph glyph-name="Zcaron" unicode="&#x17d;" horiz-adv-x="1352" 
d="M1309 1237l-975 -1038h813l-35 -199h-1081l32 195l981 1040h-753l35 199h1015zM955 1526h-246l-182 327h161l164 -180l226 180h174z" />
    <glyph glyph-name="zcaron" unicode="&#x17e;" horiz-adv-x="1055" 
d="M989 915l-661 -731h551l-33 -184h-819l26 160l671 731h-509l29 184h772zM785 1219h-246l-182 327h161l164 -180l226 180h174z" />
    <glyph glyph-name="longs" unicode="&#x17f;" horiz-adv-x="733" 
d="M346 1212q12 76 37 128.5t62.5 85t88 47t113.5 14.5q28 0 54 -3t47 -8t38 -11t31 -13l-31 -176q-20 11 -49.5 19t-66.5 8q-57 0 -82 -27.5t-35 -85.5l-211 -1190h-211z" />
    <glyph glyph-name="uni018F" unicode="&#x18f;" horiz-adv-x="1448" 
d="M168 848h993q-2 94 -24.5 168t-63.5 125t-98 77.5t-127 26.5q-105 0 -186.5 -50t-153.5 -138l-156 135q47 63 102.5 112.5t120 84t135 51t150.5 16.5q115 0 210 -38t165 -111.5t108.5 -184t38.5 -248.5q0 -114 -25.5 -236t-70.5 -220.5t-101.5 -173t-134 -136t-174 -96.5
t-204.5 -35q-148 0 -259.5 56.5t-180 160t-85 208t-16.5 173.5q0 97 27 218zM1128 608q5 17 7 31h-781v-18q-2 -54 9.5 -130.5t53.5 -150.5t110.5 -115t158.5 -41q100 0 190.5 51.5t156 151.5t95.5 221z" />
    <glyph glyph-name="florin" unicode="&#x192;" 
d="M1138 1260q-28 11 -76 17.5t-108 6.5q-81 0 -127.5 -34t-63.5 -109l-16 -82h309l-37 -174h-307l-190 -885h-213l190 885h-239l36 174h238l18 84q17 84 50.5 143.5t83.5 97t116 55t148 17.5q74 0 132 -7.5t93 -18.5z" />
    <glyph glyph-name="Aringacute" unicode="&#x1fa;" horiz-adv-x="1448" 
d="M1030 0l-59 342h-557l-178 -342h-234l729 1358q-42 34 -65 84.5t-23 111.5q0 55 19.5 102.5t54 82t82 54t102.5 19.5t102.5 -19.5t82 -54t54 -82t19.5 -102.5q0 -80 -39.5 -141t-105.5 -92l246 -1321h-230zM837 1145l-329 -613h434zM1026 1554q0 28 -9.5 51t-26 40
t-39.5 26.5t-50 9.5t-50 -9.5t-39.5 -26.5t-26 -40t-9.5 -51q0 -27 9.5 -50.5t26 -40.5t39.5 -26.5t50 -9.5t50 9.5t39.5 26.5t26 40.5t9.5 50.5zM909 1854h-168l277 327h286z" />
    <glyph glyph-name="aringacute" unicode="&#x1fb;" horiz-adv-x="1110" 
d="M1012 803q0 -22 -2.5 -43.5t-5.5 -44.5l-125 -715h-207l16 96q-50 -49 -121.5 -84t-163.5 -35q-74 0 -138.5 22t-111.5 65.5t-68 101t-21 124.5q1 113 44.5 192t106.5 123t140 65.5t161 21.5q67 0 138.5 -13t127.5 -40l15 78q3 15 4.5 32t1.5 29q0 69 -47.5 100
t-149.5 31q-75 0 -143.5 -18t-130.5 -49l-60 168q82 41 177.5 64.5t181.5 23.5q87 0 157 -17.5t120 -53.5t77 -91.5t27 -132.5zM754 465q-42 23 -104.5 38t-143.5 15q-47 0 -89.5 -11.5t-75 -36t-52 -63t-19.5 -91.5q0 -75 49 -115.5t138 -40.5q40 0 78.5 11t73 29
t63.5 41.5t51 49.5zM975 1475q0 -56 -19.5 -102.5t-54 -81t-82 -53.5t-102.5 -19q-56 0 -103 19t-81.5 53.5t-54 81t-19.5 102.5q0 55 19.5 102.5t54 82t81.5 54t103 19.5q55 0 102.5 -19.5t82 -54t54 -82t19.5 -102.5zM842 1475q0 27 -9.5 50.5t-26.5 40.5t-39.5 26.5
t-49.5 9.5t-50 -9.5t-39.5 -26.5t-26 -40.5t-9.5 -50.5q0 -28 9.5 -51t26 -40t39.5 -26.5t50 -9.5t49.5 9.5t39.5 26.5t26.5 40t9.5 51zM739 1803h-168l277 327h286z" />
    <glyph glyph-name="AEacute" unicode="&#x1fc;" horiz-adv-x="2085" 
d="M1178 209h731l-37 -209h-948l55 309h-537l-260 -309h-254l1205 1434h960l-37 -209h-700l-62 -355h566l-37 -208h-566zM600 508h414l108 622zM1130 1526h-168l277 327h286z" />
    <glyph glyph-name="aeacute" unicode="&#x1fd;" horiz-adv-x="1747" 
d="M1636 662q0 -57 -7 -108t-19 -89h-674q-6 -69 9.5 -122.5t48 -90t80 -55.5t106.5 -19q58 0 114 20t113 58l102 -152q-85 -66 -173.5 -96.5t-178.5 -30.5q-121 0 -209 48t-141 127q-92 -84 -191 -129.5t-210 -45.5q-78 0 -143.5 23t-111.5 67.5t-68.5 110.5t-16.5 152
q7 93 46 161t101.5 113t142.5 66.5t168 21.5q67 0 130.5 -14.5t113.5 -38.5l16 90q2 11 3 23.5t1 23.5q0 66 -43 102.5t-133 36.5q-75 0 -142.5 -16.5t-135.5 -50.5l-60 162q76 39 172 63.5t189 24.5q115 0 192 -34t115 -110q60 66 138.5 105t172.5 39q100 0 172.5 -35.5
t119 -95.5t69 -139t22.5 -166zM1436 635q5 57 -4.5 107t-35 86.5t-67 57.5t-100.5 21q-52 0 -95 -20.5t-76 -57t-56.5 -86.5t-36.5 -108h471zM737 299q-2 7 -4.5 35.5t0.5 68.5l6 62q-43 23 -97.5 38t-135.5 15q-46 0 -87 -11t-73 -36t-49.5 -60t-20.5 -83q-2 -79 43 -123.5
t138 -44.5q73 0 146.5 38t133.5 101zM981 1219h-168l277 327h286z" />
    <glyph glyph-name="Oslashacute" unicode="&#x1fe;" horiz-adv-x="1448" 
d="M289 125q-81 83 -119 196t-38 237q0 126 25.5 242t70.5 214.5t101 173t136 137t179.5 97t207.5 34.5q138 0 244 -53l84 133h200l-147 -236q71 -77 109.5 -188t38.5 -237t-25 -242.5t-70 -214.5t-101 -172.5t-134 -136.5t-174.5 -97t-204.5 -35q-144 1 -244 50l-82 -129
h-201zM975 1212q-69 37 -149 37q-100 0 -185 -48t-152 -146t-100.5 -224.5t-33.5 -235.5q-1 -148 65 -261zM547 215q64 -31 139 -31q98 0 184 47t154 144t101.5 224.5t33.5 236.5q1 144 -59 254zM811 1526h-168l277 327h286z" />
    <glyph glyph-name="oslashacute" unicode="&#x1ff;" horiz-adv-x="1159" 
d="M205 113q-59 70 -85.5 154t-26.5 177q0 155 47 277.5t124 206t172 127t193 43.5q54 0 103.5 -10.5t105.5 -36.5l86 127h188l-151 -226q53 -64 79 -148t26 -169q0 -158 -48 -283t-128.5 -209.5t-174 -125t-191.5 -40.5q-54 0 -102.5 10.5t-91.5 30.5l-82 -120h-189z
M723 883q-24 12 -51 18.5t-58 7.5q-66 0 -120.5 -32.5t-97 -93t-66.5 -144.5t-24 -177t28 -157zM442 186q52 -20 101 -20q64 0 118.5 32.5t98 93t68.5 142.5t25 175q0 84 -26 149zM723 1219h-168l277 327h286z" />
    <glyph glyph-name="Scommaaccent" unicode="&#x218;" horiz-adv-x="1282" 
d="M1051 1087q-32 36 -67 66t-77.5 51.5t-93.5 34t-113 12.5q-60 0 -104.5 -14.5t-74.5 -39t-47.5 -60.5t-17.5 -75q0 -33 10.5 -59t40.5 -53t86 -55.5t146 -63.5q89 -35 163 -75t125.5 -93t73 -113.5t21.5 -134.5q0 -93 -39 -179.5t-114.5 -145t-170 -86t-204.5 -27.5
q-101 0 -185 21.5t-151.5 58t-119 84t-85.5 99.5l172 139q39 -50 76.5 -82.5t92.5 -60t111 -40t118 -12.5q56 0 105.5 13.5t88 40t61.5 67t23 89.5q1 43 -14.5 75.5t-48 61t-91.5 58.5t-147 64q-94 36 -163.5 75t-109.5 80.5t-63.5 95.5t-23.5 141q0 103 43 183t110 129
t154 74t188 25q86 0 158 -16.5t131.5 -45.5t108 -70t88.5 -89zM489 -491h-125l91 393h216z" />
    <glyph glyph-name="scommaaccent" unicode="&#x219;" horiz-adv-x="1014" 
d="M836 801q-33 25 -64 43t-70 34t-81.5 24.5t-88.5 8.5q-70 0 -108.5 -28t-38.5 -79q0 -26 7.5 -41.5t26 -32t58.5 -38.5t107 -53q70 -32 125 -64.5t91.5 -72t53 -89t10.5 -116.5q-7 -91 -44.5 -152t-93.5 -98.5t-124.5 -53.5t-136.5 -16q-125 0 -234.5 40.5t-197.5 119.5
l112 156q68 -57 150 -93t188 -36q79 0 125.5 32t48.5 101q0 23 -8 40t-26 34t-54.5 37.5t-93.5 44.5q-80 34 -139 68t-95.5 73t-50.5 81.5t-14 87.5q0 157 99 246t276 89q66 0 123.5 -11t106.5 -29t90 -41.5t73 -47.5zM342 -491h-125l91 393h216z" />
    <glyph glyph-name="Tcommaaccent" unicode="&#x21a;" horiz-adv-x="1235" 
d="M1260 1223h-414l-215 -1223h-215l215 1223h-414l37 211h1042zM433 -491h-125l91 393h216z" />
    <glyph glyph-name="tcommaaccent" unicode="&#x21b;" horiz-adv-x="817" 
d="M743 883h-254l-100 -576q-3 -15 -4.5 -30t-1.5 -27q0 -42 25 -60t71 -18q50 0 85 12t69 35l-62 -201q-40 -21 -85.5 -31t-84.5 -10q-117 0 -176 56.5t-59 159.5q0 22 8 73l109 617h-154l35 192h153l54 303l227 115l-74 -418h254zM259 -491h-125l91 393h216z" />
    <glyph glyph-name="afii10846" unicode="&#x259;" horiz-adv-x="1116" 
d="M92 412q0 53 7 103t20 95h682q6 70 -10.5 125.5t-49 93t-81 58t-107.5 20.5q-66 0 -123 -23.5t-119 -60.5l-92 148q84 63 172 95t191 32q104 0 187 -37t138.5 -105.5t77 -153.5t21.5 -171q0 -144 -45.5 -274t-122 -216t-167.5 -125t-190 -39q-96 0 -168.5 33t-122 91.5
t-74 137t-24.5 173.5zM293 440q-4 -57 5 -107t34.5 -87t68.5 -57.5t103 -20.5q53 0 97 20.5t78 56.5t57.5 86t37.5 109h-481z" />
    <glyph glyph-name="circumflex" unicode="&#x2c6;" horiz-adv-x="1024" 
d="M831 1219l-163 180l-226 -180h-174l297 327h246l182 -327h-162z" />
    <glyph glyph-name="caron" unicode="&#x2c7;" horiz-adv-x="1024" 
d="M754 1219h-246l-182 327h161l164 -180l226 180h174z" />
    <glyph glyph-name="breve" unicode="&#x2d8;" horiz-adv-x="1024" 
d="M1051 1546q-38 -156 -140 -241.5t-266 -85.5q-77 0 -139 22t-104.5 64t-62.5 102.5t-13 138.5h145q-3 -88 47.5 -130t147.5 -42q94 0 152 41t89 131h144z" />
    <glyph glyph-name="dotaccent" unicode="&#x2d9;" horiz-adv-x="1024" 
d="M793 1356q0 -28 -11 -53t-30 -43.5t-44 -29.5t-53 -11t-53.5 11t-44.5 29.5t-30 43.5t-11 53t11 53.5t30 44.5t44.5 30t53.5 11t53 -11t44 -30t30 -44.5t11 -53.5z" />
    <glyph glyph-name="ring" unicode="&#x2da;" horiz-adv-x="1024" 
d="M932 1475q0 -56 -19.5 -102.5t-54 -81t-82 -53.5t-102.5 -19q-56 0 -103 19t-81.5 53.5t-54 81t-19.5 102.5q0 55 19.5 102.5t54 82t81.5 54t103 19.5q55 0 102.5 -19.5t82 -54t54 -82t19.5 -102.5zM799 1475q0 27 -9.5 50.5t-26.5 40.5t-39.5 26.5t-49.5 9.5t-50 -9.5
t-39.5 -26.5t-26 -40.5t-9.5 -50.5q0 -28 9.5 -51t26 -40t39.5 -26.5t50 -9.5t49.5 9.5t39.5 26.5t26.5 40t9.5 51z" />
    <glyph glyph-name="ogonek" unicode="&#x2db;" horiz-adv-x="1024" 
d="M737 0q-21 -5 -59.5 -24t-76.5 -46.5t-66 -60t-28 -64.5q0 -17 9.5 -29t29.5 -12q17 0 32 10.5t26 22.5l94 -73q-36 -60 -89 -97t-126 -37q-71 0 -121 40t-50 113q0 45 20.5 84t52 71.5t69 58t72.5 43.5h211z" />
    <glyph glyph-name="tilde" unicode="&#x2dc;" horiz-adv-x="1024" 
d="M1067 1491q-16 -85 -37 -131t-50.5 -79t-68 -51t-88.5 -18q-52 0 -96.5 18t-83.5 41t-75 41.5t-64 18.5q-34 0 -58 -24.5t-43 -87.5h-145q14 76 37 126t52.5 83.5t68.5 51t86 17.5q48 0 93 -17.5t84 -39.5q41 -24 78 -43t66 -19q34 0 57 25t42 88h145z" />
    <glyph glyph-name="hungarumlaut" unicode="&#x2dd;" horiz-adv-x="1024" 
d="M809 1219h-168l277 327h286zM389 1219h-168l277 327h286z" />
    <glyph glyph-name="commaaccent" unicode="&#x326;" horiz-adv-x="543" 
d="M89 -491h-125l91 393h216z" />
    <glyph glyph-name="tonos" unicode="&#x384;" horiz-adv-x="1024" 
d="M600 1219h-168l277 327h286z" />
    <glyph glyph-name="dieresistonos" unicode="&#x385;" horiz-adv-x="1290" 
d="M1116 1335q0 -27 -11 -52t-30 -44t-43.5 -30t-52.5 -11q-29 0 -54 11t-44 30t-30 44t-11 52q0 28 11 53.5t30 45t44 30.5t54 11q28 0 52.5 -11t43.5 -30.5t30 -45t11 -53.5zM451 1333q0 -27 -11 -52t-30 -44t-44 -30t-53 -11t-53.5 11t-44.5 30t-30 44t-11 52
q0 28 11 53.5t30 45t44.5 30.5t53.5 11t53 -11t44 -30.5t30 -45t11 -53.5zM618 1219h-149l207 327h258z" />
    <glyph glyph-name="Alphatonos" unicode="&#x386;" horiz-adv-x="1448" 
d="M1030 0l-59 342h-557l-178 -342h-234l770 1434h217l266 -1434h-225zM837 1145l-329 -613h434zM192 1109h-168l277 327h286z" />
    <glyph glyph-name="Epsilontonos" unicode="&#x388;" horiz-adv-x="1251" 
d="M92 0l252 1434h916l-37 -209h-701l-61 -355h565l-37 -208h-565l-80 -453h731l-37 -209h-946zM-135 1109h-168l277 327h286z" />
    <glyph glyph-name="Etatonos" unicode="&#x389;" horiz-adv-x="1454" 
d="M1174 0h-216l113 639h-651l-113 -639h-215l252 1434h215l-102 -580h651l102 580h215zM-135 1109h-168l277 327h286z" />
    <glyph glyph-name="Iotatonos" unicode="&#x38a;" horiz-adv-x="608" 
d="M317 0h-215l254 1434h215zM-135 1109h-168l277 327h286z" />
    <glyph glyph-name="Omicrontonos" unicode="&#x38c;" horiz-adv-x="1448" 
d="M1382 875q0 -115 -25.5 -237t-70.5 -220t-101 -172.5t-134 -136.5t-174.5 -97t-204.5 -35q-147 0 -258.5 57t-180.5 160t-85.5 207t-16.5 174q1 97 26 218t70 220t99 170.5t128 132.5t177 100.5t221 39.5q144 0 253 -57.5t170.5 -150.5t83.5 -188.5t23 -184.5zM1158 810
q2 76 -10.5 145.5t-52 139t-110.5 112t-166 42.5q-97 0 -185.5 -52.5t-154.5 -156t-94 -223t-30 -197.5q-2 -53 9 -130t52.5 -150t110.5 -114.5t159 -41.5q101 0 191 51.5t155.5 151.5t95.5 222t30 201zM-53 1109h-168l277 327h286z" />
    <glyph glyph-name="Upsilontonos" unicode="&#x38e;" horiz-adv-x="1403" 
d="M813 565l-98 -565h-215l100 567l-356 867h239l258 -651l488 651h250zM-176 1109h-168l277 327h286z" />
    <glyph glyph-name="Omegatonos" unicode="&#x38f;" horiz-adv-x="1491" 
d="M827 207q87 70 155.5 140t116 147t72.5 164.5t25 193.5q0 91 -26 164t-73.5 125t-113 80t-143.5 28q-100 0 -185 -45t-147.5 -122.5t-97.5 -181t-35 -220.5q0 -72 15.5 -134t45 -118.5t72 -110t96.5 -110.5l-37 -207h-491l37 209h237q-54 46 -91.5 99t-61 111
t-34.5 118.5t-11 121.5q0 102 23.5 200.5t67.5 187.5t107.5 163.5t143 129.5t174.5 85.5t202 30.5q135 0 237.5 -46.5t171.5 -126t104.5 -186t35.5 -227.5q0 -91 -18 -180t-58.5 -173t-104.5 -161.5t-155 -146.5h240l-37 -209h-495zM-53 1109h-168l277 327h286z" />
    <glyph glyph-name="iotadieresistonos" unicode="&#x390;" horiz-adv-x="543" 
d="M283 0h-211l188 1075h211zM946 1335q0 -27 -11 -52t-30 -44t-43.5 -30t-52.5 -11q-29 0 -54 11t-44 30t-30 44t-11 52q0 28 11 53.5t30 45t44 30.5t54 11q28 0 52.5 -11t43.5 -30.5t30 -45t11 -53.5zM281 1333q0 -27 -11 -52t-30 -44t-44 -30t-53 -11t-53.5 11t-44.5 30
t-30 44t-11 52q0 28 11 53.5t30 45t44.5 30.5t53.5 11t53 -11t44 -30.5t30 -45t11 -53.5zM448 1219h-149l207 327h258z" />
    <glyph glyph-name="Alpha" unicode="&#x391;" horiz-adv-x="1448" 
d="M1030 0l-59 342h-557l-178 -342h-234l770 1434h217l266 -1434h-225zM837 1145l-329 -613h434z" />
    <glyph glyph-name="Beta" unicode="&#x392;" horiz-adv-x="1374" 
d="M1282 1108q0 -69 -17 -123.5t-48.5 -97t-75.5 -73.5t-97 -52q90 -40 138.5 -114t48.5 -177q0 -114 -40 -201.5t-113 -147.5t-174 -91t-222 -31h-590l254 1434h500q101 0 182 -22t137.5 -64t86.5 -102.5t30 -137.5zM1061 1075q0 74 -55.5 118t-178.5 44h-313l-65 -371h374
q114 0 176 57t62 152zM1010 465q0 99 -62 153t-190 54h-344l-84 -475h385q67 0 122 18t93 52.5t59 84.5t21 113z" />
    <glyph glyph-name="Gamma" unicode="&#x393;" horiz-adv-x="1122" 
d="M524 1219l-215 -1219h-215l252 1434h856l-35 -215h-643z" />
    <glyph glyph-name="uni0394" unicode="&#x394;" horiz-adv-x="1477" 
d="M-10 0l794 1434h217l299 -1434h-1310zM853 1158l-517 -949h698z" />
    <glyph glyph-name="Epsilon" unicode="&#x395;" horiz-adv-x="1251" 
d="M92 0l252 1434h916l-37 -209h-701l-61 -355h565l-37 -208h-565l-80 -453h731l-37 -209h-946z" />
    <glyph glyph-name="Zeta" unicode="&#x396;" horiz-adv-x="1352" 
d="M1309 1237l-975 -1038h813l-35 -199h-1081l32 195l981 1040h-753l35 199h1015z" />
    <glyph glyph-name="Eta" unicode="&#x397;" horiz-adv-x="1454" 
d="M1174 0h-216l113 639h-651l-113 -639h-215l252 1434h215l-102 -580h651l102 580h215z" />
    <glyph glyph-name="Theta" unicode="&#x398;" horiz-adv-x="1477" 
d="M1411 850q0 -118 -24.5 -229t-70 -208t-110.5 -177t-146 -137.5t-177 -89.5t-203 -32q-128 0 -229.5 42.5t-172.5 121.5t-109 191.5t-38 251.5q0 121 24.5 233t70 209t110.5 176t146 135.5t176 87.5t202 31q127 0 229.5 -43t173.5 -122t109.5 -191t38.5 -250zM1190 817
q0 97 -26 177t-73 136.5t-113.5 87.5t-148.5 31q-78 0 -139 -24.5t-111 -63.5t-87.5 -90t-66.5 -111.5t-50 -150t-21 -195.5q0 -98 23.5 -177.5t68 -135.5t109 -86.5t145.5 -30.5q65 0 125 19.5t115 59.5t95 88.5t74 113.5t57.5 155.5t23.5 196.5zM565 858h457l-37 -209
h-457z" />
    <glyph glyph-name="Iota" unicode="&#x399;" horiz-adv-x="608" 
d="M317 0h-215l254 1434h215z" />
    <glyph glyph-name="Kappa" unicode="&#x39a;" horiz-adv-x="1395" 
d="M870 913l344 -913h-227l-280 741l-336 -340l-70 -401h-209l252 1434h209l-125 -725l692 725h254z" />
    <glyph glyph-name="Lambda" unicode="&#x39b;" horiz-adv-x="1415" 
d="M818 1126l-558 -1126h-248l742 1434h217l241 -1434h-235z" />
    <glyph glyph-name="Mu" unicode="&#x39c;" horiz-adv-x="1647" 
d="M1366 0h-211l174 954l-606 -989l-249 989l-171 -954h-211l252 1434h221l235 -995l593 995h225z" />
    <glyph glyph-name="Nu" unicode="&#x39d;" horiz-adv-x="1454" 
d="M1174 0h-197l-488 1071l-186 -1071h-211l254 1434h207l478 -1066l186 1066h210z" />
    <glyph glyph-name="Xi" unicode="&#x39e;" horiz-adv-x="1292" 
d="M33 0l37 209h399l80 453h-260l37 208h260l61 355h-389l37 209h989l-37 -209h-385l-61 -355h260l-37 -208h-260l-80 -453h403l-36 -209h-1018z" />
    <glyph glyph-name="Omicron" unicode="&#x39f;" horiz-adv-x="1448" 
d="M1382 875q0 -115 -25.5 -237t-70.5 -220t-101 -172.5t-134 -136.5t-174.5 -97t-204.5 -35q-147 0 -258.5 57t-180.5 160t-85.5 207t-16.5 174q1 97 26 218t70 220t99 170.5t128 132.5t177 100.5t221 39.5q144 0 253 -57.5t170.5 -150.5t83.5 -188.5t23 -184.5zM1158 810
q2 76 -10.5 145.5t-52 139t-110.5 112t-166 42.5q-97 0 -185.5 -52.5t-154.5 -156t-94 -223t-30 -197.5q-2 -53 9 -130t52.5 -150t110.5 -114.5t159 -41.5q101 0 191 51.5t155.5 151.5t95.5 222t30 201z" />
    <glyph glyph-name="Pi" unicode="&#x3a0;" horiz-adv-x="1415" 
d="M920 0l215 1221h-613l-215 -1221h-215l252 1434h1042l-251 -1434h-215z" />
    <glyph glyph-name="Rho" unicode="&#x3a1;" horiz-adv-x="1329" 
d="M1307 1044q0 -111 -44 -218t-129 -172.5t-184 -92t-211 -26.5h-342l-94 -535h-211l254 1434h488q107 0 197.5 -27.5t153 -80.5t92.5 -123t30 -159zM1084 1015q0 42 -14 83.5t-48 71t-86 45.5t-121 16h-295l-86 -494h324q72 0 130.5 17.5t103 53.5t68.5 90.5t24 116.5z
" />
    <glyph glyph-name="Sigma" unicode="&#x3a3;" horiz-adv-x="1323" 
d="M547 1235l356 -487l-568 -539h820l-37 -209h-1087l35 203l563 542l-359 486l37 203h1028l-35 -199h-753z" />
    <glyph glyph-name="Tau" unicode="&#x3a4;" horiz-adv-x="1235" 
d="M1260 1223h-414l-215 -1223h-215l215 1223h-414l37 211h1042z" />
    <glyph glyph-name="Upsilon" unicode="&#x3a5;" horiz-adv-x="1403" 
d="M813 565l-98 -565h-215l100 567l-356 867h239l258 -651l488 651h250z" />
    <glyph glyph-name="Phi" unicode="&#x3a6;" horiz-adv-x="1665" 
d="M1071 1309q119 -6 216.5 -44.5t166.5 -103.5t107 -154t38 -196q0 -145 -58 -265t-157.5 -205.5t-232.5 -133t-283 -47.5l-28 -160h-215l28 162q-116 9 -212 45.5t-165 99t-107 150t-38 198.5q0 93 24.5 177.5t70.5 156.5t111 131t145.5 101t174.5 64.5t199 23.5l23 125
h215zM1376 784q0 73 -26.5 131t-72.5 99.5t-108 66t-133 31.5l-133 -758q95 5 181 37.5t151 89t103 133.5t38 170zM354 686q0 -71 25 -130t69.5 -102.5t105.5 -69.5t132 -30l135 762q-94 -1 -178.5 -34t-148.5 -90.5t-102 -136t-38 -169.5z" />
    <glyph glyph-name="Chi" unicode="&#x3a7;" horiz-adv-x="1341" 
d="M262 0h-244l580 750l-295 684h232l212 -491l377 491h244l-534 -695l317 -739h-229l-236 550z" />
    <glyph glyph-name="Psi" unicode="&#x3a8;" horiz-adv-x="1513" 
d="M553 0l61 350q-106 9 -188 41.5t-138.5 87.5t-86 130.5t-29.5 170.5q0 34 1.5 54.5t8.5 60.5l90 539h217l-94 -547q-3 -19 -4.5 -40t-1.5 -38q0 -59 18 -104.5t52 -78t82 -52.5t108 -27l156 887h217l-156 -889q88 9 151.5 35.5t110.5 71t74.5 106.5t38.5 127l96 549h215
l-96 -547q-15 -120 -63.5 -219t-128 -170.5t-189 -110.5t-244.5 -39l-61 -348h-217z" />
    <glyph glyph-name="uni03A9" unicode="&#x3a9;" horiz-adv-x="1491" 
d="M827 207q87 70 155.5 140t116 147t72.5 164.5t25 193.5q0 91 -26 164t-73.5 125t-113 80t-143.5 28q-100 0 -185 -45t-147.5 -122.5t-97.5 -181t-35 -220.5q0 -72 15.5 -134t45 -118.5t72 -110t96.5 -110.5l-37 -207h-491l37 209h237q-54 46 -91.5 99t-61 111
t-34.5 118.5t-11 121.5q0 102 23.5 200.5t67.5 187.5t107.5 163.5t143 129.5t174.5 85.5t202 30.5q135 0 237.5 -46.5t171.5 -126t104.5 -186t35.5 -227.5q0 -91 -18 -180t-58.5 -173t-104.5 -161.5t-155 -146.5h240l-37 -209h-495z" />
    <glyph glyph-name="Iotadieresis" unicode="&#x3aa;" horiz-adv-x="608" 
d="M317 0h-215l254 1434h215zM864 1714q0 -28 -11 -53t-30 -43.5t-43.5 -29.5t-52.5 -11q-29 0 -54 11t-44 29.5t-30 43.5t-11 53t11 53.5t30 44.5t44 30t54 11q28 0 52.5 -11t43.5 -30t30 -44.5t11 -53.5zM465 1714q0 -28 -11 -53t-30 -43.5t-44 -29.5t-52 -11
q-29 0 -54 11t-44.5 29.5t-30.5 43.5t-11 53t11 53.5t30.5 44.5t44.5 30t54 11q27 0 52 -11t44 -30t30 -44.5t11 -53.5z" />
    <glyph glyph-name="Upsilondieresis" unicode="&#x3ab;" horiz-adv-x="1403" 
d="M813 565l-98 -565h-215l100 567l-356 867h239l258 -651l488 651h250zM1239 1714q0 -28 -11 -53t-30 -43.5t-43.5 -29.5t-52.5 -11q-29 0 -54 11t-44 29.5t-30 43.5t-11 53t11 53.5t30 44.5t44 30t54 11q28 0 52.5 -11t43.5 -30t30 -44.5t11 -53.5zM840 1714
q0 -28 -11 -53t-30 -43.5t-44 -29.5t-52 -11q-29 0 -54 11t-44.5 29.5t-30.5 43.5t-11 53t11 53.5t30.5 44.5t44.5 30t54 11q27 0 52 -11t44 -30t30 -44.5t11 -53.5z" />
    <glyph glyph-name="alphatonos" unicode="&#x3ac;" horiz-adv-x="1159" 
d="M584 1098q98 0 170 -36t118 -89l17 102h211l-191 -1075h-207l15 90q-54 -53 -120 -83t-146 -30q-76 0 -141.5 28.5t-113.5 85t-75 140.5t-27 195q0 155 39.5 279.5t107 211.5t156.5 134t187 47zM838 760q-14 22 -39 47t-57.5 46.5t-71 35.5t-78.5 14q-68 0 -121 -39.5
t-89 -104.5t-54.5 -149t-18.5 -172q0 -130 55 -198t152 -68q41 0 78.5 13.5t68.5 33t55 40t38 34.5zM762 1219h-168l277 327h286z" />
    <glyph glyph-name="epsilontonos" unicode="&#x3ad;" horiz-adv-x="1092" 
d="M952 135q-88 -73 -209 -116.5t-260 -43.5q-196 0 -300.5 68.5t-104.5 198.5q0 60 19.5 112.5t55 95t85 74t110.5 49.5q-38 9 -69.5 28t-52 45t-30.5 57t-10 65q0 84 40.5 146.5t105.5 103t147 60.5t166 20q66 0 121.5 -10.5t102 -29.5t84 -42t77.5 -60l-139 -147
q-58 54 -118.5 76t-158.5 22q-43 0 -82.5 -8.5t-70 -26t-48.5 -45t-18 -65.5q0 -21 10.5 -41t32 -35t54.5 -24t77 -9h215l-30 -174h-217q-56 0 -100 -13t-75.5 -36t-48 -56t-16.5 -73q0 -65 54.5 -99t174.5 -34q74 0 161 28.5t161 77.5zM758 1219h-168l277 327h286z" />
    <glyph glyph-name="etatonos" unicode="&#x3ae;" horiz-adv-x="1159" 
d="M864 -287l-228 -108l173 995q5 28 7.5 55t2.5 50q0 102 -40 150t-134 48q-47 0 -90 -18.5t-77 -54.5t-60 -90t-43 -142l-105 -598h-211l191 1075h211l-17 -92q55 56 120.5 85.5t146.5 29.5q159 0 244 -84.5t85 -249.5q0 -31 -4 -66.5t-10 -70.5zM791 1219h-168l277 327
h286z" />
    <glyph glyph-name="iotatonos" unicode="&#x3af;" horiz-adv-x="543" 
d="M283 0h-211l188 1075h211zM461 1219h-168l277 327h286z" />
    <glyph glyph-name="upsilondieresistonos" unicode="&#x3b0;" horiz-adv-x="1151" 
d="M981 445q-19 -106 -52.5 -193t-89 -148t-137.5 -94t-198 -33q-111 0 -184.5 28t-117.5 77.5t-62.5 116t-18.5 143.5q0 42 4 84.5t12 87.5l99 561h210l-98 -571q-6 -33 -9 -65.5t-3 -63.5q0 -42 8.5 -78t30 -62.5t58 -41.5t91.5 -15t96 16.5t71 51.5t50 89.5t33 131.5
l107 608h211zM1200 1335q0 -27 -11 -52t-30 -44t-43.5 -30t-52.5 -11q-29 0 -54 11t-44 30t-30 44t-11 52q0 28 11 53.5t30 45t44 30.5t54 11q28 0 52.5 -11t43.5 -30.5t30 -45t11 -53.5zM535 1333q0 -27 -11 -52t-30 -44t-44 -30t-53 -11t-53.5 11t-44.5 30t-30 44t-11 52
q0 28 11 53.5t30 45t44.5 30.5t53.5 11t53 -11t44 -30.5t30 -45t11 -53.5zM702 1219h-149l207 327h258z" />
    <glyph glyph-name="alpha" unicode="&#x3b1;" horiz-adv-x="1159" 
d="M584 1098q98 0 170 -36t118 -89l17 102h211l-191 -1075h-207l15 90q-54 -53 -120 -83t-146 -30q-76 0 -141.5 28.5t-113.5 85t-75 140.5t-27 195q0 155 39.5 279.5t107 211.5t156.5 134t187 47zM838 760q-14 22 -39 47t-57.5 46.5t-71 35.5t-78.5 14q-68 0 -121 -39.5
t-89 -104.5t-54.5 -149t-18.5 -172q0 -130 55 -198t152 -68q41 0 78.5 13.5t68.5 33t55 40t38 34.5z" />
    <glyph glyph-name="beta" unicode="&#x3b2;" horiz-adv-x="1155" 
d="M563 -23q-80 0 -153.5 26t-124.5 69l-64 -355l-229 -112l258 1470q21 122 68.5 202t109.5 126.5t133 65t139 18.5q85 0 149 -24t107.5 -66.5t65.5 -100.5t22 -127q0 -63 -19.5 -121t-52.5 -105.5t-75.5 -80.5t-87.5 -45q59 -15 106.5 -43.5t80.5 -69.5t51 -94t18 -116
q0 -112 -38.5 -211t-115.5 -170.5t-169.5 -103.5t-178.5 -32zM315 252q48 -39 111 -59.5t133 -20.5q72 0 127 23t92 64t55.5 97t18.5 121q0 112 -77.5 168.5t-217.5 56.5h-27l33 189h19q54 0 100 18t79 51t51.5 79t18.5 102q0 35 -9 65t-28 51.5t-48.5 33.5t-69.5 12
q-37 0 -71 -12.5t-62.5 -39.5t-50 -70t-31.5 -104z" />
    <glyph glyph-name="gamma" unicode="&#x3b3;" horiz-adv-x="1083" 
d="M559 0l-49 -287l-229 -108l69 395l-184 1075h221l108 -845l388 845h227z" />
    <glyph glyph-name="delta" unicode="&#x3b4;" horiz-adv-x="1159" 
d="M670 874q-66 0 -117 -16t-88 -41.5t-64.5 -58t-48.5 -72.5t-35 -100t-14 -129q0 -67 17 -119t48 -87.5t73.5 -54t93.5 -18.5q47 0 90 18t74.5 45t59.5 66t46 81.5t29.5 89.5t11.5 108q0 48 -10.5 88t-27 74t-38 62t-51.5 58q-9 3 -23.5 4.5t-25.5 1.5zM626 1280l226 -256
q31 -35 67 -77.5t67 -95.5t52 -116.5t21 -138.5q0 -137 -31 -216.5t-55.5 -126t-69 -95t-88 -80.5t-118.5 -66.5t-183 -34.5q-88 0 -165.5 31.5t-135 91t-90.5 143.5t-33 189q0 114 34.5 218.5t98.5 185.5t153 131.5t199 56.5l-231 262l33 178h708l-32 -184h-427z" />
    <glyph glyph-name="epsilon" unicode="&#x3b5;" horiz-adv-x="1092" 
d="M952 135q-88 -73 -209 -116.5t-260 -43.5q-196 0 -300.5 68.5t-104.5 198.5q0 60 19.5 112.5t55 95t85 74t110.5 49.5q-38 9 -69.5 28t-52 45t-30.5 57t-10 65q0 84 40.5 146.5t105.5 103t147 60.5t166 20q66 0 121.5 -10.5t102 -29.5t84 -42t77.5 -60l-139 -147
q-58 54 -118.5 76t-158.5 22q-43 0 -82.5 -8.5t-70 -26t-48.5 -45t-18 -65.5q0 -21 10.5 -41t32 -35t54.5 -24t77 -9h215l-30 -174h-217q-56 0 -100 -13t-75.5 -36t-48 -56t-16.5 -73q0 -65 54.5 -99t174.5 -34q74 0 161 28.5t161 77.5z" />
    <glyph glyph-name="zeta" unicode="&#x3b6;" horiz-adv-x="1012" 
d="M797 1280h-514l34 184h768l-36 -196q-200 -131 -341 -248t-230.5 -226t-131 -211.5t-41.5 -205.5q0 -51 13.5 -84.5t45 -53t83 -27t126.5 -7.5h80q119 0 181.5 -47.5t62.5 -137.5q0 -51 -15.5 -97.5t-44 -90t-70 -85.5t-93.5 -85l-109 98q57 47 95 91.5t38 89.5
q0 34 -23 46.5t-61 12.5h-127q-87 0 -160.5 17t-127 55.5t-83.5 100.5t-30 151q0 101 30.5 197t82.5 185t122.5 170.5t150 154.5t164.5 136.5t161 112.5z" />
    <glyph glyph-name="eta" unicode="&#x3b7;" horiz-adv-x="1159" 
d="M864 -287l-228 -108l173 995q5 28 7.5 55t2.5 50q0 102 -40 150t-134 48q-47 0 -90 -18.5t-77 -54.5t-60 -90t-43 -142l-105 -598h-211l191 1075h211l-17 -92q55 56 120.5 85.5t146.5 29.5q159 0 244 -84.5t85 -249.5q0 -31 -4 -66.5t-10 -70.5z" />
    <glyph glyph-name="theta" unicode="&#x3b8;" horiz-adv-x="1165" 
d="M700 1487q96 0 167 -31.5t117.5 -91t69.5 -145.5t23 -195q0 -112 -7 -188.5t-13 -112.5q-27 -166 -71 -303t-111 -235.5t-159.5 -153t-215.5 -54.5q-95 0 -165.5 30.5t-116.5 88.5t-68.5 142t-22.5 192q0 101 8.5 185t14.5 122q26 165 68.5 302.5t108 237t157.5 155
t216 55.5zM690 1303q-70 0 -119.5 -36t-85 -98t-60 -147t-44.5 -182h483q6 46 9.5 90t3.5 84q0 64 -9.5 117.5t-31 91.5t-57.5 59t-89 21zM350 647q-8 -57 -12 -109t-4 -100q0 -62 9 -113t30.5 -87t56.5 -56t86 -20q72 0 124 37.5t88.5 103t61.5 154t44 190.5h-484z" />
    <glyph glyph-name="iota" unicode="&#x3b9;" horiz-adv-x="543" 
d="M283 0h-211l188 1075h211z" />
    <glyph glyph-name="kappa" unicode="&#x3ba;" horiz-adv-x="1122" 
d="M840 1075h247l-387 -393l248 -682h-229l-184 514l-211 -213l-54 -301h-211l191 1075h211l-88 -495z" />
    <glyph glyph-name="lambda" unicode="&#x3bb;" horiz-adv-x="1085" 
d="M612 817l-424 -817h-221l592 1028l-37 186q-8 41 -32.5 65t-75.5 24q-26 0 -56.5 -8.5t-64.5 -20.5l33 182q34 11 73.5 21t81.5 10q64 0 105.5 -18t67.5 -54.5t42 -92.5t31 -132l225 -1190h-211z" />
    <glyph glyph-name="uni03BC" unicode="&#x3bc;" horiz-adv-x="1167" 
d="M915 0h-210l16 92q-22 -23 -49 -44t-60 -36.5t-72 -25t-85 -9.5q-58 0 -103.5 10.5t-79.5 29.5l-53 -304l-229 -108l260 1470h211l-105 -600q-5 -28 -7.5 -54.5t-2.5 -49.5q0 -102 40 -150.5t134 -48.5q49 0 92.5 19t79 57t61 95t38.5 134l104 598h211z" />
    <glyph glyph-name="nu" unicode="&#x3bd;" horiz-adv-x="1098" 
d="M551 0h-199l-190 1075h219l115 -794l401 794h227z" />
    <glyph glyph-name="xi" unicode="&#x3be;" horiz-adv-x="1018" 
d="M453 1282h-158l33 182h768l-35 -184h-240q-75 0 -139 -14.5t-111 -44.5t-73.5 -76.5t-26.5 -110.5q0 -39 14 -70t40 -53t62 -33.5t81 -11.5h235l-33 -188h-233q-73 0 -133.5 -23t-103.5 -64.5t-67 -97.5t-24 -122q0 -81 52.5 -123.5t146.5 -42.5h149q119 0 181.5 -47.5
t62.5 -137.5q0 -51 -15.5 -97.5t-44 -90t-70 -85.5t-93.5 -85l-109 98q57 47 95 91.5t38 89.5q0 34 -23 46.5t-61 12.5h-124q-89 0 -163 20t-127.5 61.5t-83.5 105t-30 149.5q0 84 26 158t72.5 132t110.5 98t141 58q-38 13 -70.5 35.5t-56.5 52t-37.5 66t-13.5 78.5
q0 51 15 94t41.5 77.5t62 59.5t72.5 37z" />
    <glyph glyph-name="omicron" unicode="&#x3bf;" horiz-adv-x="1159" 
d="M92 451q0 136 47 265t128 214.5t174 126.5t188 41q106 0 191.5 -39.5t141 -108t80 -151.5t24.5 -164q0 -158 -48 -283t-128.5 -209.5t-174 -125t-191.5 -40.5q-104 0 -187.5 39t-140.5 109t-80.5 154.5t-23.5 171.5zM306 470q-1 -60 11.5 -111t42 -92.5t75.5 -65
t108 -23.5q64 0 118.5 30.5t97 87t68.5 139.5t26 179q0 51 -11.5 101t-42 92.5t-78 66t-111.5 23.5q-61 0 -115 -29.5t-97 -87.5t-67.5 -141t-24.5 -169z" />
    <glyph glyph-name="pi" unicode="&#x3c0;" horiz-adv-x="1268" 
d="M154 1075h1097l-32 -184h-127l-158 -891h-211l158 891h-422l-158 -891h-211l158 891h-127z" />
    <glyph glyph-name="rho" unicode="&#x3c1;" horiz-adv-x="1126" 
d="M1034 651q0 -69 -11 -146t-35 -152t-62.5 -143t-94 -120t-129 -82.5t-167.5 -30.5q-45 0 -85 12.5t-74.5 33.5t-63 48t-50.5 56l-74 -414l-229 -108l174 981q21 119 64 214t105 161t144 101.5t181 35.5q93 0 168 -27t128 -82.5t82 -139.5t29 -198zM825 645
q0 135 -56 197.5t-151 62.5q-104 0 -178.5 -84t-105.5 -262l-43 -244q14 -22 36.5 -47t53.5 -46.5t70 -35.5t86 -14q62 0 107 24.5t77 64t52.5 90.5t32 103.5t15.5 102.5t4 88z" />
    <glyph glyph-name="sigma1" unicode="&#x3c2;" horiz-adv-x="1061" 
d="M438 -240q56 47 93.5 89.5t37.5 82.5q0 21 -16 39t-43 34.5t-63 32t-76 30.5q-56 21 -107 57.5t-89.5 89t-61.5 121t-23 153.5q0 144 46 257t121.5 191t173 119.5t200.5 41.5q58 0 111 -10.5t100.5 -35t90 -64.5t79.5 -99l-156 -141q-19 30 -43.5 57t-55 47.5t-67 32.5
t-80.5 12q-59 0 -114.5 -26t-98 -75t-68.5 -118t-26 -154q0 -58 14 -102.5t39.5 -79t60.5 -60t77 -46.5q43 -22 91 -41.5t87.5 -45t65.5 -60.5t26 -87q0 -51 -17.5 -96t-47 -87t-69 -81t-83.5 -76z" />
    <glyph glyph-name="sigma" unicode="&#x3c3;" horiz-adv-x="1184" 
d="M655 891q-73 0 -137 -29.5t-112 -85t-75.5 -134.5t-27.5 -179q0 -72 18.5 -125.5t50.5 -89t75.5 -53t93.5 -17.5q61 0 117 30.5t99 88.5t68 140.5t25 187.5q0 77 -23.5 145t-72.5 121h-99zM970 891q42 -47 66.5 -116t24.5 -154q0 -144 -43.5 -262.5t-117.5 -203
t-172 -131.5t-208 -47q-84 0 -161.5 30t-137 89t-95.5 145.5t-36 200.5q0 151 46.5 268.5t126 198.5t183.5 123.5t220 42.5h501l-30 -184h-167z" />
    <glyph glyph-name="tau" unicode="&#x3c4;" horiz-adv-x="950" 
d="M621 883l-103 -580q-2 -12 -3 -24t-1 -21q0 -48 24 -67t72 -19q45 0 79 11t75 36l-62 -201q-25 -11 -47 -19t-43 -13t-43.5 -7t-48.5 -2q-41 0 -81 12t-71 37.5t-50 66t-19 97.5q0 17 1.5 34.5t4.5 35.5l109 623h-301l34 192h818l-35 -192h-309z" />
    <glyph glyph-name="upsilon" unicode="&#x3c5;" horiz-adv-x="1151" 
d="M981 445q-19 -106 -52.5 -193t-89 -148t-137.5 -94t-198 -33q-111 0 -184.5 28t-117.5 77.5t-62.5 116t-18.5 143.5q0 42 4 84.5t12 87.5l99 561h210l-98 -571q-6 -33 -9 -65.5t-3 -63.5q0 -42 8.5 -78t30 -62.5t58 -41.5t91.5 -15t96 16.5t71 51.5t50 89.5t33 131.5
l107 608h211z" />
    <glyph glyph-name="phi" unicode="&#x3c6;" horiz-adv-x="1466" 
d="M532 -14q-91 10 -171.5 45t-140.5 93.5t-95 141t-35 187.5q0 130 42 243t123 198.5t200 137.5t274 60l35 198l229 109l-55 -309q88 -12 167.5 -47t139 -94t94.5 -141t35 -187q0 -129 -39.5 -241.5t-118.5 -197.5t-197.5 -137t-275.5 -61l-47 -269l-229 -110zM305 469
q0 -73 22 -127.5t58 -92t83 -59t97 -28.5l131 751q-83 -7 -154.5 -42t-124 -93.5t-82.5 -137t-30 -171.5zM1163 606q0 72 -22.5 125.5t-58.5 91t-82 59t-93 29.5l-133 -749q85 4 156.5 41t123 97t80.5 139t29 167z" />
    <glyph glyph-name="chi" unicode="&#x3c7;" horiz-adv-x="1141" 
d="M574 707l276 368h250l-430 -518l266 -557h-242l-179 402l-312 -402h-236l465 557l-256 518h236z" />
    <glyph glyph-name="psi" unicode="&#x3c8;" horiz-adv-x="1470" 
d="M463 -395l65 381q-96 10 -172 42t-128.5 83.5t-80.5 122.5t-28 161q0 26 2.5 56t7.5 59l97 565h212l-100 -569q-3 -19 -4.5 -39t-1.5 -37q0 -53 15 -94.5t44.5 -75t73 -54.5t98.5 -30l197 1114l229 109l-217 -1225q83 6 142.5 32t100 68t64 98.5t35.5 123.5l103 579h210
l-100 -573q-22 -127 -68 -221t-118 -158t-172 -99t-230 -42l-47 -267z" />
    <glyph glyph-name="omega" unicode="&#x3c9;" horiz-adv-x="1522" 
d="M911 737l-63 -360q-3 -17 -4.5 -32.5t-1.5 -29.5q0 -38 10 -64.5t28.5 -42.5t44 -23t56.5 -7q53 0 95 29.5t71.5 82t45 125t15.5 158.5q0 78 -14 143t-41 124.5t-65.5 116.5t-86.5 118h236q90 -105 137 -230t47 -267q0 -130 -31.5 -240t-89.5 -190.5t-140.5 -125.5
t-184.5 -45q-58 0 -101.5 17t-75 43.5t-51.5 58.5t-30 62q-18 -33 -46 -65.5t-64.5 -58t-81.5 -41.5t-97 -16q-89 0 -154 30.5t-107 84t-62.5 125t-20.5 152.5q0 106 27.5 203t75.5 184.5t112.5 167t138.5 151.5h238q-79 -70 -148 -146t-120 -162t-80 -182.5t-29 -207.5
q0 -108 40.5 -153.5t113.5 -45.5q68 0 116.5 48.5t67.5 150.5l63 360h211z" />
    <glyph glyph-name="iotadieresis" unicode="&#x3ca;" horiz-adv-x="543" 
d="M283 0h-211l188 1075h211zM761 1356q0 -28 -11 -53t-30 -43.5t-43.5 -29.5t-52.5 -11q-29 0 -54 11t-44 29.5t-30 43.5t-11 53t11 53.5t30 44.5t44 30t54 11q28 0 52.5 -11t43.5 -30t30 -44.5t11 -53.5zM362 1356q0 -28 -11 -53t-30 -43.5t-44 -29.5t-52 -11
q-29 0 -54 11t-44.5 29.5t-30.5 43.5t-11 53t11 53.5t30.5 44.5t44.5 30t54 11q27 0 52 -11t44 -30t30 -44.5t11 -53.5z" />
    <glyph glyph-name="upsilondieresis" unicode="&#x3cb;" horiz-adv-x="1151" 
d="M981 445q-19 -106 -52.5 -193t-89 -148t-137.5 -94t-198 -33q-111 0 -184.5 28t-117.5 77.5t-62.5 116t-18.5 143.5q0 42 4 84.5t12 87.5l99 561h210l-98 -571q-6 -33 -9 -65.5t-3 -63.5q0 -42 8.5 -78t30 -62.5t58 -41.5t91.5 -15t96 16.5t71 51.5t50 89.5t33 131.5
l107 608h211zM1050 1356q0 -28 -11 -53t-30 -43.5t-43.5 -29.5t-52.5 -11q-29 0 -54 11t-44 29.5t-30 43.5t-11 53t11 53.5t30 44.5t44 30t54 11q28 0 52.5 -11t43.5 -30t30 -44.5t11 -53.5zM651 1356q0 -28 -11 -53t-30 -43.5t-44 -29.5t-52 -11q-29 0 -54 11t-44.5 29.5
t-30.5 43.5t-11 53t11 53.5t30.5 44.5t44.5 30t54 11q27 0 52 -11t44 -30t30 -44.5t11 -53.5z" />
    <glyph glyph-name="omicrontonos" unicode="&#x3cc;" horiz-adv-x="1159" 
d="M92 451q0 136 47 265t128 214.5t174 126.5t188 41q106 0 191.5 -39.5t141 -108t80 -151.5t24.5 -164q0 -158 -48 -283t-128.5 -209.5t-174 -125t-191.5 -40.5q-104 0 -187.5 39t-140.5 109t-80.5 154.5t-23.5 171.5zM306 470q-1 -60 11.5 -111t42 -92.5t75.5 -65
t108 -23.5q64 0 118.5 30.5t97 87t68.5 139.5t26 179q0 51 -11.5 101t-42 92.5t-78 66t-111.5 23.5q-61 0 -115 -29.5t-97 -87.5t-67.5 -141t-24.5 -169zM731 1219h-168l277 327h286z" />
    <glyph glyph-name="upsilontonos" unicode="&#x3cd;" horiz-adv-x="1151" 
d="M981 445q-19 -106 -52.5 -193t-89 -148t-137.5 -94t-198 -33q-111 0 -184.5 28t-117.5 77.5t-62.5 116t-18.5 143.5q0 42 4 84.5t12 87.5l99 561h210l-98 -571q-6 -33 -9 -65.5t-3 -63.5q0 -42 8.5 -78t30 -62.5t58 -41.5t91.5 -15t96 16.5t71 51.5t50 89.5t33 131.5
l107 608h211zM733 1219h-168l277 327h286z" />
    <glyph glyph-name="omegatonos" unicode="&#x3ce;" horiz-adv-x="1522" 
d="M911 737l-63 -360q-3 -17 -4.5 -32.5t-1.5 -29.5q0 -38 10 -64.5t28.5 -42.5t44 -23t56.5 -7q53 0 95 29.5t71.5 82t45 125t15.5 158.5q0 78 -14 143t-41 124.5t-65.5 116.5t-86.5 118h236q90 -105 137 -230t47 -267q0 -130 -31.5 -240t-89.5 -190.5t-140.5 -125.5
t-184.5 -45q-58 0 -101.5 17t-75 43.5t-51.5 58.5t-30 62q-18 -33 -46 -65.5t-64.5 -58t-81.5 -41.5t-97 -16q-89 0 -154 30.5t-107 84t-62.5 125t-20.5 152.5q0 106 27.5 203t75.5 184.5t112.5 167t138.5 151.5h238q-79 -70 -148 -146t-120 -162t-80 -182.5t-29 -207.5
q0 -108 40.5 -153.5t113.5 -45.5q68 0 116.5 48.5t67.5 150.5l63 360h211zM944 1219h-168l277 327h286z" />
    <glyph glyph-name="afii10023" unicode="&#x401;" horiz-adv-x="1251" 
d="M92 0l252 1434h916l-37 -209h-701l-61 -355h565l-37 -208h-565l-80 -453h731l-37 -209h-946zM1165 1663q0 -28 -11 -53t-30 -43.5t-43.5 -29.5t-52.5 -11q-29 0 -54 11t-44 29.5t-30 43.5t-11 53t11 53.5t30 44.5t44 30t54 11q28 0 52.5 -11t43.5 -30t30 -44.5t11 -53.5z
M766 1663q0 -28 -11 -53t-30 -43.5t-44 -29.5t-52 -11q-29 0 -54 11t-44.5 29.5t-30.5 43.5t-11 53t11 53.5t30.5 44.5t44.5 30t54 11q27 0 52 -11t44 -30t30 -44.5t11 -53.5z" />
    <glyph glyph-name="afii10051" unicode="&#x402;" horiz-adv-x="1679" 
d="M1520 553q0 -107 -27.5 -205t-92 -173t-154 -124t-216.5 -74l-24 209q68 12 123.5 37t94.5 64.5t60 93.5t21 125q0 100 -66 147t-186 47q-79 0 -179.5 -17t-179.5 -52l-110 -631h-215l215 1223h-367l37 211h1051l-37 -211h-469l-68 -383q79 28 177 46.5t212 18.5
q199 0 299.5 -92.5t100.5 -259.5z" />
    <glyph glyph-name="afii10052" unicode="&#x403;" horiz-adv-x="1155" 
d="M1212 1223h-688l-217 -1223h-215l254 1434h903zM848 1526h-168l277 327h286z" />
    <glyph glyph-name="afii10053" unicode="&#x404;" horiz-adv-x="1341" 
d="M1110 1073q-37 81 -100 127.5t-166 46.5q-91 0 -163.5 -28t-128.5 -79.5t-96.5 -125.5t-66.5 -166h504l-37 -209h-508v-66q0 -85 19 -156t57 -122.5t96 -80t135 -28.5q60 0 110.5 11t95 33.5t83.5 57t76 81.5l156 -117q-53 -70 -112.5 -121.5t-128 -85.5t-146.5 -51
t-168 -17q-119 0 -210 45t-152.5 123.5t-93.5 185.5t-32 232q0 108 21.5 216t64.5 207.5t106 185t146.5 149t186.5 99.5t225 36q149 0 267 -72.5t165 -195.5z" />
    <glyph glyph-name="afii10054" unicode="&#x405;" horiz-adv-x="1282" 
d="M1051 1087q-32 36 -67 66t-77.5 51.5t-93.5 34t-113 12.5q-60 0 -104.5 -14.5t-74.5 -39t-47.5 -60.5t-17.5 -75q0 -33 10.5 -59t40.5 -53t86 -55.5t146 -63.5q89 -35 163 -75t125.5 -93t73 -113.5t21.5 -134.5q0 -93 -39 -179.5t-114.5 -145t-170 -86t-204.5 -27.5
q-101 0 -185 21.5t-151.5 58t-119 84t-85.5 99.5l172 139q39 -50 76.5 -82.5t92.5 -60t111 -40t118 -12.5q56 0 105.5 13.5t88 40t61.5 67t23 89.5q1 43 -14.5 75.5t-48 61t-91.5 58.5t-147 64q-94 36 -163.5 75t-109.5 80.5t-63.5 95.5t-23.5 141q0 103 43 183t110 129
t154 74t188 25q86 0 158 -16.5t131.5 -45.5t108 -70t88.5 -89z" />
    <glyph glyph-name="afii10055" unicode="&#x406;" horiz-adv-x="608" 
d="M317 0h-215l254 1434h215z" />
    <glyph glyph-name="afii10056" unicode="&#x407;" horiz-adv-x="608" 
d="M317 0h-215l254 1434h215zM837 1661q0 -28 -11 -53t-30 -43.5t-43.5 -29.5t-52.5 -11q-29 0 -54 11t-44 29.5t-30 43.5t-11 53t11 53.5t30 44.5t44 30t54 11q28 0 52.5 -11t43.5 -30t30 -44.5t11 -53.5zM438 1661q0 -28 -11 -53t-30 -43.5t-44 -29.5t-52 -11
q-29 0 -54 11t-44.5 29.5t-30.5 43.5t-11 53t11 53.5t30.5 44.5t44.5 30t54 11q27 0 52 -11t44 -30t30 -44.5t11 -53.5z" />
    <glyph glyph-name="afii10057" unicode="&#x408;" horiz-adv-x="1239" 
d="M1057 565q-36 -204 -104.5 -333t-180.5 -192q-115 -63 -274 -63q-112 0 -195 31.5t-140.5 86.5t-91 128t-46.5 156l206 53q12 -55 34 -100t55 -77t79 -49.5t107 -17.5q70 0 125 21.5t96 68.5t70 120t47 177l151 859h215z" />
    <glyph glyph-name="afii10058" unicode="&#x409;" horiz-adv-x="2111" 
d="M2021 543q0 -128 -40.5 -228.5t-114.5 -170.5t-177.5 -107t-228.5 -37h-573l217 1225h-475l-127 -600q-35 -167 -87.5 -282.5t-119.5 -190.5t-148.5 -116t-175.5 -59l-24 209q65 9 119 35.5t97.5 77.5t77 130.5t58.5 195.5l174 809h883l-94 -535h372q85 0 156.5 -24
t122.5 -69.5t79.5 -112t28.5 -150.5zM1802 502q0 91 -56 142.5t-153 51.5h-368l-86 -493h368q69 0 124 22t93 61.5t58 94.5t20 121z" />
    <glyph glyph-name="afii10059" unicode="&#x40a;" horiz-adv-x="2181" 
d="M2091 543q0 -128 -40.5 -228.5t-114.5 -170.5t-177.5 -107t-228.5 -37h-574l115 639h-651l-113 -639h-215l252 1434h215l-102 -580h651l102 580h215l-94 -535h373q85 0 156 -24t122.5 -69.5t80 -112t28.5 -150.5zM1872 502q0 91 -56 142.5t-153 51.5h-369l-86 -493h369
q69 0 123.5 22t93 61.5t58.5 94.5t20 121z" />
    <glyph glyph-name="afii10060" unicode="&#x40b;" horiz-adv-x="1679" 
d="M1499 545q0 -34 -1.5 -57.5t-6.5 -57.5l-76 -430h-215l76 430q2 11 4 31t2 39q0 103 -58 151.5t-167 48.5q-51 0 -101.5 -5.5t-97.5 -14.5t-88.5 -21.5t-75.5 -27.5l-112 -631h-215l217 1223h-367l37 211h1051l-37 -211h-469l-68 -383q81 28 178.5 46.5t212.5 18.5
q94 0 164.5 -24.5t117.5 -71t71 -113.5t24 -151z" />
    <glyph glyph-name="afii10061" unicode="&#x40c;" horiz-adv-x="1395" 
d="M870 913l344 -913h-227l-280 741l-336 -340l-70 -401h-209l252 1434h209l-125 -725l692 725h254zM876 1526h-168l277 327h286z" />
    <glyph glyph-name="afii10062" unicode="&#x40e;" horiz-adv-x="1343" 
d="M707 660l467 774h260l-926 -1434h-242l293 432l-362 1002h247zM1214 1735q-12 -36 -44 -73t-81.5 -67t-117.5 -49.5t-152 -19.5q-82 0 -142.5 19.5t-100.5 49.5t-59.5 67t-19.5 73l203 47q2 -28 12 -47t27 -34t42.5 -23.5t62.5 -8.5q34 0 63 8.5t52 24t39.5 36t25.5 44.5
z" />
    <glyph glyph-name="afii10145" unicode="&#x40f;" horiz-adv-x="1462" 
d="M1182 0h-434l-77 -352h-204l62 352h-437l253 1434h215l-216 -1225h660l216 1225h215z" />
    <glyph glyph-name="afii10017" unicode="&#x410;" horiz-adv-x="1448" 
d="M1030 0l-59 342h-557l-178 -342h-234l770 1434h217l266 -1434h-225zM837 1145l-329 -613h434z" />
    <glyph glyph-name="afii10018" unicode="&#x411;" horiz-adv-x="1403" 
d="M1270 1225h-750l-61 -346h389q97 0 171.5 -25.5t124.5 -72t75.5 -112t25.5 -145.5q0 -130 -42 -228t-117.5 -164t-181.5 -99t-234 -33h-578l254 1434h961zM1028 489q0 88 -56.5 141.5t-164.5 53.5h-383l-86 -487h377q73 0 131 18.5t98.5 55.5t62 91.5t21.5 126.5z" />
    <glyph glyph-name="afii10019" unicode="&#x412;" horiz-adv-x="1374" 
d="M1282 1108q0 -69 -17 -123.5t-48.5 -97t-75.5 -73.5t-97 -52q90 -40 138.5 -114t48.5 -177q0 -114 -40 -201.5t-113 -147.5t-174 -91t-222 -31h-590l254 1434h500q101 0 182 -22t137.5 -64t86.5 -102.5t30 -137.5zM1061 1075q0 74 -55.5 118t-178.5 44h-313l-65 -371h374
q114 0 176 57t62 152zM1010 465q0 99 -62 153t-190 54h-344l-84 -475h385q67 0 122 18t93 52.5t59 84.5t21 113z" />
    <glyph glyph-name="afii10020" unicode="&#x413;" horiz-adv-x="1155" 
d="M1212 1223h-688l-217 -1223h-215l254 1434h903z" />
    <glyph glyph-name="afii10021" unicode="&#x414;" horiz-adv-x="1450" 
d="M1163 209h175l-99 -561h-205l48 352h-931l-76 -352h-204l99 561h118q43 69 82 140.5t74 153t66 177.5t59 213l129 541h882zM653 1225l-80 -332q-30 -123 -59 -220.5t-60.5 -178.5t-66 -150t-74.5 -135h635l180 1016h-475z" />
    <glyph glyph-name="afii10022" unicode="&#x415;" horiz-adv-x="1251" 
d="M92 0l252 1434h916l-37 -209h-701l-61 -355h565l-37 -208h-565l-80 -453h731l-37 -209h-946z" />
    <glyph glyph-name="afii10024" unicode="&#x416;" horiz-adv-x="2007" 
d="M1260 1434l-108 -629l598 629h254l-504 -521l344 -913h-227l-280 741l-240 -241l-89 -500h-209l87 493l-160 242l-534 -735h-238l660 906l-328 528h250l402 -644l113 644h209z" />
    <glyph glyph-name="afii10025" unicode="&#x417;" horiz-adv-x="1227" 
d="M1137 1122q0 -65 -16 -118t-47 -100t-76.5 -83t-102.5 -61q34 -10 69 -31.5t63 -54.5t45.5 -78.5t17.5 -103.5q0 -133 -50 -230t-135.5 -160.5t-199 -94t-240.5 -30.5q-78 0 -145.5 17.5t-125 48t-105.5 73t-87 93.5l176 145q28 -38 67 -70t84 -55t93.5 -36t95.5 -13
q69 0 132.5 16t112.5 50.5t78 89t29 131.5q0 84 -58.5 132t-156.5 48h-284l35 195h264q54 0 98.5 17t76.5 48.5t50 75.5t18 98q0 36 -12 67t-37 54.5t-64.5 37t-94.5 13.5q-109 0 -195.5 -35t-167.5 -106l-121 150q59 48 118 83.5t122.5 61.5t130 37.5t135.5 11.5
q108 0 186 -26.5t127.5 -72.5t73 -106.5t23.5 -128.5z" />
    <glyph glyph-name="afii10026" unicode="&#x418;" horiz-adv-x="1462" 
d="M1155 1063l-850 -1063h-213l254 1434h215l-187 -1062l849 1062h213l-254 -1434h-215z" />
    <glyph glyph-name="afii10027" unicode="&#x419;" horiz-adv-x="1462" 
d="M1155 1063l-850 -1063h-213l254 1434h215l-187 -1062l849 1062h213l-254 -1434h-215zM1290 1735q-12 -36 -44 -73t-81.5 -67t-117.5 -49.5t-152 -19.5q-82 0 -142.5 19.5t-100.5 49.5t-59.5 67t-19.5 73l203 47q2 -28 12 -47t27 -34t42.5 -23.5t62.5 -8.5q34 0 63 8.5
t52 24t39.5 36t25.5 44.5z" />
    <glyph glyph-name="afii10028" unicode="&#x41a;" horiz-adv-x="1395" 
d="M870 913l344 -913h-227l-280 741l-336 -340l-70 -401h-209l252 1434h209l-125 -725l692 725h254z" />
    <glyph glyph-name="afii10029" unicode="&#x41b;" horiz-adv-x="1384" 
d="M1102 0h-215l217 1225h-475l-127 -600q-35 -167 -87.5 -282.5t-119.5 -190.5t-148.5 -116t-175.5 -59l-24 209q65 9 119 35.5t97.5 77.5t77 130.5t58.5 195.5l174 809h883z" />
    <glyph glyph-name="afii10030" unicode="&#x41c;" horiz-adv-x="1647" 
d="M1366 0h-211l174 954l-606 -989l-249 989l-171 -954h-211l252 1434h221l235 -995l593 995h225z" />
    <glyph glyph-name="afii10031" unicode="&#x41d;" horiz-adv-x="1454" 
d="M1174 0h-216l113 639h-651l-113 -639h-215l252 1434h215l-102 -580h651l102 580h215z" />
    <glyph glyph-name="afii10032" unicode="&#x41e;" horiz-adv-x="1448" 
d="M1382 875q0 -115 -25.5 -237t-70.5 -220t-101 -172.5t-134 -136.5t-174.5 -97t-204.5 -35q-147 0 -258.5 57t-180.5 160t-85.5 207t-16.5 174q1 97 26 218t70 220t99 170.5t128 132.5t177 100.5t221 39.5q144 0 253 -57.5t170.5 -150.5t83.5 -188.5t23 -184.5zM1158 810
q2 76 -10.5 145.5t-52 139t-110.5 112t-166 42.5q-97 0 -185.5 -52.5t-154.5 -156t-94 -223t-30 -197.5q-2 -53 9 -130t52.5 -150t110.5 -114.5t159 -41.5q101 0 191 51.5t155.5 151.5t95.5 222t30 201z" />
    <glyph glyph-name="afii10033" unicode="&#x41f;" horiz-adv-x="1454" 
d="M1174 0h-216l218 1225h-652l-217 -1225h-215l254 1434h1081z" />
    <glyph glyph-name="afii10034" unicode="&#x420;" horiz-adv-x="1329" 
d="M1307 1044q0 -111 -44 -218t-129 -172.5t-184 -92t-211 -26.5h-342l-94 -535h-211l254 1434h488q107 0 197.5 -27.5t153 -80.5t92.5 -123t30 -159zM1084 1015q0 42 -14 83.5t-48 71t-86 45.5t-121 16h-295l-86 -494h324q72 0 130.5 17.5t103 53.5t68.5 90.5t24 116.5z
" />
    <glyph glyph-name="afii10035" unicode="&#x421;" horiz-adv-x="1333" 
d="M1112 1057q-23 46 -47.5 77.5t-59.5 57t-79.5 39.5t-102.5 14q-96 0 -181.5 -48.5t-149 -134.5t-101 -204.5t-37.5 -259.5q0 -98 22 -174t63 -128.5t99 -80t130 -27.5q103 0 185 50.5t155 138.5l155 -135q-47 -63 -97.5 -109t-117.5 -83t-139 -55t-154 -18
q-114 0 -209.5 37.5t-165 111.5t-108.5 184.5t-39 256.5q0 134 26 251.5t73 216.5t112.5 177t145 132.5t170.5 83t188 28.5q88 0 161.5 -21t132 -60.5t102 -95.5t71.5 -126z" />
    <glyph glyph-name="afii10036" unicode="&#x422;" horiz-adv-x="1235" 
d="M1260 1223h-414l-215 -1223h-215l215 1223h-414l37 211h1042z" />
    <glyph glyph-name="afii10037" unicode="&#x423;" horiz-adv-x="1343" 
d="M707 660l467 774h260l-926 -1434h-242l293 432l-362 1002h247z" />
    <glyph glyph-name="afii10038" unicode="&#x424;" horiz-adv-x="1841" 
d="M1755 825q0 -178 -64 -309.5t-174 -217.5t-257 -128.5t-314 -42.5l-33 -176h-211l33 176q-126 0 -236 29.5t-192 89.5t-129 150.5t-47 213.5q0 177 65 308t176 217.5t258.5 129t311.5 42.5l31 168h211l-31 -168q129 0 239 -29.5t191 -89.5t126.5 -150.5t45.5 -212.5z
M1532 791q0 68 -23 125.5t-73 99t-128.5 65t-189.5 23.5l-137 -774q114 0 214.5 25.5t175.5 80.5t118 142.5t43 212.5zM907 1104q-114 0 -214.5 -25.5t-176.5 -80.5t-120 -142t-44 -209q0 -71 23.5 -129t74 -100t130 -65t190.5 -23z" />
    <glyph glyph-name="afii10039" unicode="&#x425;" horiz-adv-x="1341" 
d="M262 0h-244l580 750l-295 684h232l212 -491l377 491h244l-534 -695l317 -739h-229l-236 550z" />
    <glyph glyph-name="afii10040" unicode="&#x426;" horiz-adv-x="1495" 
d="M1210 209h174l-99 -561h-205l48 352h-1036l254 1434h215l-217 -1225h651l217 1225h215z" />
    <glyph glyph-name="afii10041" unicode="&#x427;" horiz-adv-x="1401" 
d="M1118 0h-215l113 635q-82 -31 -180 -48.5t-213 -17.5q-189 0 -283 95t-94 266q0 32 1.5 56.5t6.5 57.5l70 390h215l-70 -390q-3 -14 -4.5 -36.5t-1.5 -34.5q0 -103 59 -151t168 -48q51 0 101.5 5t97.5 14.5t88.5 22.5t75.5 28l104 590h215z" />
    <glyph glyph-name="afii10042" unicode="&#x428;" horiz-adv-x="1980" 
d="M1700 0h-1608l254 1434h215l-217 -1225h481l217 1225h215l-217 -1225h482l217 1225h215z" />
    <glyph glyph-name="afii10043" unicode="&#x429;" horiz-adv-x="2021" 
d="M1737 209h174l-99 -561h-205l48 352h-1563l254 1434h215l-217 -1225h481l217 1225h215l-217 -1225h482l217 1225h215z" />
    <glyph glyph-name="afii10044" unicode="&#x42a;" horiz-adv-x="1454" 
d="M1364 543q0 -128 -40.5 -228.5t-114.5 -170.5t-177.5 -107t-228.5 -37h-574l217 1225h-319l37 209h534l-94 -535h373q85 0 156 -24t122.5 -69.5t80 -112t28.5 -150.5zM1145 502q0 91 -56 142.5t-153 51.5h-369l-86 -493h369q69 0 123.5 22t93 61.5t58.5 94.5t20 121z" />
    <glyph glyph-name="afii10045" unicode="&#x42b;" horiz-adv-x="1761" 
d="M1481 0h-215l254 1434h215zM1167 543q0 -128 -40.5 -228.5t-114.5 -170.5t-177.5 -107t-228.5 -37h-514l254 1434h215l-94 -535h313q85 0 156.5 -24t122.5 -69.5t79.5 -112t28.5 -150.5zM948 502q0 91 -56 142.5t-153 51.5h-309l-86 -493h309q69 0 124 22t93 61.5
t58 94.5t20 121z" />
    <glyph glyph-name="afii10046" unicode="&#x42c;" horiz-adv-x="1317" 
d="M1227 543q0 -128 -41 -228.5t-115 -170.5t-177 -107t-228 -37h-574l254 1434h215l-94 -535h373q85 0 156 -24t122.5 -69.5t80 -112t28.5 -150.5zM1008 502q0 91 -56 142.5t-153 51.5h-369l-86 -493h369q69 0 123.5 22t93 61.5t58.5 94.5t20 121z" />
    <glyph glyph-name="afii10047" unicode="&#x42d;" horiz-adv-x="1341" 
d="M1239 866q0 -133 -26 -251t-73 -217t-112.5 -177t-145 -132t-170.5 -83t-188 -29q-88 0 -161.5 21t-132 60.5t-102 96t-71.5 126.5l203 96q44 -89 113 -139t176 -50q78 0 149.5 32.5t130.5 91.5t102.5 142.5t65.5 184.5h-489l37 209h473q-2 94 -24.5 168t-63 125
t-98 77.5t-127.5 26.5q-104 0 -186 -50t-154 -138l-156 135q48 64 103 112.5t119.5 83.5t135.5 51.5t150 16.5q114 0 209.5 -37.5t165 -111.5t108.5 -184.5t39 -256.5z" />
    <glyph glyph-name="afii10048" unicode="&#x42e;" horiz-adv-x="1925" 
d="M1853 879q0 -108 -21.5 -217t-63.5 -209.5t-105 -187t-145.5 -151t-185 -101t-224.5 -36.5q-117 0 -203.5 43t-143.5 119.5t-85.5 182.5t-28.5 231q0 17 2 86h-229l-113 -639h-215l254 1434h215l-104 -590h231q39 138 100.5 251t147 193t195 124t243.5 44
q114 0 203 -42.5t150.5 -119t93.5 -182.5t32 -233zM1632 844q0 88 -20.5 161.5t-58.5 126t-92.5 82t-123.5 29.5q-81 0 -147.5 -29t-118.5 -78t-90.5 -114t-63.5 -137.5t-37 -148.5t-12 -146q0 -89 20 -162.5t58 -126t92.5 -82t122.5 -29.5q81 0 148 29t119 78t90.5 114
t64 137.5t37.5 148.5t12 147z" />
    <glyph glyph-name="afii10049" unicode="&#x42f;" horiz-adv-x="1350" 
d="M1067 0h-211l100 567h-309l-387 -567h-264l416 586q-105 25 -165.5 110t-60.5 207q0 115 39.5 212.5t110 168t169 110.5t216.5 40h600zM692 1231q-64 0 -116 -21t-89 -59t-57 -90t-20 -113q0 -78 50.5 -128t151.5 -50h381l80 461h-381z" />
    <glyph glyph-name="afii10065" unicode="&#x430;" horiz-adv-x="1110" 
d="M1012 803q0 -22 -2.5 -43.5t-5.5 -44.5l-125 -715h-207l16 96q-50 -49 -121.5 -84t-163.5 -35q-74 0 -138.5 22t-111.5 65.5t-68 101t-21 124.5q1 113 44.5 192t106.5 123t140 65.5t161 21.5q67 0 138.5 -13t127.5 -40l15 78q3 15 4.5 32t1.5 29q0 69 -47.5 100
t-149.5 31q-75 0 -143.5 -18t-130.5 -49l-60 168q82 41 177.5 64.5t181.5 23.5q87 0 157 -17.5t120 -53.5t77 -91.5t27 -132.5zM754 465q-42 23 -104.5 38t-143.5 15q-47 0 -89.5 -11.5t-75 -36t-52 -63t-19.5 -91.5q0 -75 49 -115.5t138 -40.5q40 0 78.5 11t73 29
t63.5 41.5t51 49.5z" />
    <glyph glyph-name="afii10066" unicode="&#x431;" horiz-adv-x="1167" 
d="M1079 1329q-45 -9 -98 -14.5t-107 -5.5q-121 0 -211 -31.5t-152 -87.5t-99.5 -132.5t-53.5 -166.5q39 52 78 87.5t80.5 57t86 30.5t95.5 9q81 0 145 -32t108.5 -89t67.5 -135t23 -170q0 -83 -17 -165.5t-50 -157t-82 -138.5t-113 -111t-143 -73.5t-172 -26.5
q-84 0 -153 32t-118 89.5t-75.5 137.5t-26.5 176q0 9 1.5 39.5t8.5 74.5l56 318q28 162 93.5 283.5t161.5 203t220 122t270 40.5q45 0 94 4.5t111 15.5zM827 616q0 57 -12 105.5t-35 84t-58 55.5t-81 20q-75 -1 -123 -21t-85.5 -54t-63.5 -78.5t-40.5 -94t-21 -100
t-6.5 -97.5q0 -61 14 -109.5t40.5 -83t64.5 -53t86 -18.5q54 0 99 20t80.5 54t62 78.5t44.5 94t26.5 100t8.5 97.5z" />
    <glyph glyph-name="afii10067" unicode="&#x432;" horiz-adv-x="1110" 
d="M1028 848q0 -99 -48 -164.5t-134 -103.5q25 -7 50 -23.5t44.5 -41t32 -57.5t12.5 -73q0 -77 -25 -146.5t-77.5 -122.5t-134 -84.5t-193.5 -31.5h-496l189 1075h516q61 0 109.5 -15.5t83 -44.5t53 -71t18.5 -96zM811 801q0 46 -29.5 73t-85.5 27h-272l-43 -248h272
q34 0 63 10.5t50 30t33 46.5t12 61zM770 354q0 54 -34.5 89.5t-102.5 35.5h-283l-53 -305h278q47 0 82 11.5t61.5 33.5t39 56.5t12.5 78.5z" />
    <glyph glyph-name="afii10068" unicode="&#x433;" horiz-adv-x="889" 
d="M930 891h-504l-156 -891h-211l189 1075h715z" />
    <glyph glyph-name="afii10069" unicode="&#x434;" horiz-adv-x="1180" 
d="M934 184h141l-84 -471h-198l51 287h-721l-54 -287h-196l84 471h94q66 102 118.5 220.5t86.5 259.5l100 411h734zM516 891l-55 -227q-23 -89 -46.5 -161t-47.5 -130.5t-48 -104.5t-47 -84h451l123 707h-330z" />
    <glyph glyph-name="afii10070" unicode="&#x435;" horiz-adv-x="1116" 
d="M1006 664q0 -53 -7.5 -103.5t-19.5 -95.5h-682q-6 -70 10 -125t49 -93.5t81.5 -58.5t107.5 -20q66 0 123.5 23.5t117.5 60.5l93 -148q-84 -63 -172 -95t-191 -32q-104 0 -187 37.5t-138.5 106t-77 153.5t-21.5 170q0 144 45 273.5t122 215.5t168.5 125.5t188.5 39.5
t170 -33t122 -91t73.5 -137.5t24.5 -172.5zM805 635q5 58 -4.5 108t-35.5 86.5t-68.5 57t-102.5 20.5q-54 0 -97.5 -20.5t-77 -56.5t-57.5 -86t-38 -109h481z" />
    <glyph glyph-name="afii10072" unicode="&#x436;" horiz-adv-x="1597" 
d="M632 317l-129 218l-328 -535h-225l445 709l-213 366h244l258 -477l84 477l229 111l-104 -588l424 477h239l-335 -360l197 -715h-229l-143 535l-203 -218l-55 -317h-211z" />
    <glyph glyph-name="afii10073" unicode="&#x437;" horiz-adv-x="954" 
d="M872 846q0 -94 -51.5 -163t-161.5 -112q30 -8 59.5 -25.5t53.5 -44.5t38.5 -63.5t14.5 -81.5q0 -103 -44 -175t-115.5 -117.5t-161 -66t-180.5 -20.5q-50 0 -101 10.5t-98 28.5t-89 43.5t-75 55.5l121 159q63 -57 135 -85.5t148 -28.5q44 0 89 10t81 32.5t58.5 57.5
t22.5 86q0 58 -41 95.5t-118 37.5h-150l31 174h139q34 0 67.5 10t59.5 29t42 46.5t16 62.5q0 22 -9.5 42.5t-29 36.5t-49.5 25.5t-72 9.5q-79 0 -151.5 -24t-149.5 -74l-70 162q41 26 88 48t97.5 37.5t102.5 24.5t103 9q91 0 157.5 -20t109 -54.5t63 -80.5t20.5 -97z" />
    <glyph glyph-name="afii10074" unicode="&#x438;" horiz-adv-x="1188" 
d="M851 716l-581 -716h-211l191 1075h211l-123 -713l577 713h211l-190 -1075h-211z" />
    <glyph glyph-name="afii10075" unicode="&#x439;" horiz-adv-x="1188" 
d="M851 716l-581 -716h-211l191 1075h211l-123 -713l577 713h211l-190 -1075h-211zM1065 1386q-12 -35 -41.5 -72t-75.5 -67t-109 -49.5t-143 -19.5q-78 0 -135 19.5t-95 49.5t-56.5 67t-18.5 72l184 48q0 -53 37.5 -87t106.5 -34q68 0 113.5 34t64.5 87z" />
    <glyph glyph-name="afii10076" unicode="&#x43a;" horiz-adv-x="1085" 
d="M250 1075l229 111l-104 -588l424 477h239l-335 -360l197 -715h-229l-143 535l-203 -218l-55 -317h-211z" />
    <glyph glyph-name="afii10077" unicode="&#x43b;" horiz-adv-x="1147" 
d="M895 0h-211l156 891h-330l-78 -361q-31 -143 -75.5 -241.5t-102 -163t-127.5 -99t-152 -49.5l-20 185q50 7 91.5 29t75 64.5t61 109.5t48.5 165l119 545h733z" />
    <glyph glyph-name="afii10078" unicode="&#x43c;" horiz-adv-x="1370" 
d="M1038 734l-460 -750l-191 750l-129 -734h-201l191 1075h219l177 -689l423 689h240l-191 -1075h-209z" />
    <glyph glyph-name="afii10079" unicode="&#x43d;" horiz-adv-x="1176" 
d="M924 0h-211l84 479h-443l-84 -479h-211l189 1075h211l-72 -411h442l72 411h211z" />
    <glyph glyph-name="afii10080" unicode="&#x43e;" horiz-adv-x="1159" 
d="M92 451q0 136 47 265t128 214.5t174 126.5t188 41q106 0 191.5 -39.5t141 -108t80 -151.5t24.5 -164q0 -158 -48 -283t-128.5 -209.5t-174 -125t-191.5 -40.5q-104 0 -187.5 39t-140.5 109t-80.5 154.5t-23.5 171.5zM306 470q-1 -60 11.5 -111t42 -92.5t75.5 -65
t108 -23.5q64 0 118.5 30.5t97 87t68.5 139.5t26 179q0 51 -11.5 101t-42 92.5t-78 66t-111.5 23.5q-61 0 -115 -29.5t-97 -87.5t-67.5 -141t-24.5 -169z" />
    <glyph glyph-name="afii10081" unicode="&#x43f;" horiz-adv-x="1167" 
d="M924 0h-211l155 891h-442l-156 -891h-211l189 1075h864z" />
    <glyph glyph-name="afii10082" unicode="&#x440;" horiz-adv-x="1159" 
d="M1065 649q0 -155 -39.5 -279.5t-107 -211.5t-156 -134t-187.5 -47q-41 0 -84.5 8t-82.5 26t-68.5 41t-52.5 50l-68 -389l-229 -108l260 1470h209l-17 -90q54 53 120 83t147 30q76 0 141 -28.5t113 -85t75 -140.5t27 -195zM850 637q0 130 -55 198t-152 68q-41 0 -78 -13.5
t-68.5 -33t-55.5 -40t-38 -34.5l-81 -467q13 -22 38 -47t57.5 -46.5t70.5 -35.5t79 -14q69 0 121.5 39.5t88.5 104.5t54.5 148.5t18.5 172.5z" />
    <glyph glyph-name="afii10083" unicode="&#x441;" horiz-adv-x="1061" 
d="M856 748q-46 72 -105 110.5t-135 38.5q-58 0 -111 -25.5t-98 -80.5t-73 -142t-28 -194q0 -127 63 -202t178 -75q65 0 122 29.5t117 85.5l113 -143q-87 -85 -180.5 -129t-198.5 -44q-104 0 -187 38.5t-138.5 107.5t-79 153t-23.5 167q0 151 46 278t127 213t176.5 125
t191.5 39q77 0 136 -17.5t104 -46.5t79 -67t60 -78z" />
    <glyph glyph-name="afii10084" unicode="&#x442;" horiz-adv-x="942" 
d="M944 891h-328l-155 -891h-211l156 891h-326l33 184h864z" />
    <glyph glyph-name="afii10085" unicode="&#x443;" horiz-adv-x="1128" 
d="M381 -379h-225l211 385l-205 1069h223l128 -801l417 801h225z" />
    <glyph glyph-name="afii10086" unicode="&#x444;" horiz-adv-x="1677" 
d="M1579 698q0 -76 -11 -158.5t-35.5 -163t-63 -153t-93.5 -127t-126.5 -87t-162.5 -32.5q-37 0 -70 10t-61.5 27t-51.5 39.5t-38 46.5l-69 -387l-230 -108l88 495q-63 -61 -129 -93t-145 -32q-64 0 -116.5 25.5t-90.5 76t-59 125.5t-21 173q0 76 11 158.5t35.5 163t63 153
t93.5 127t126.5 87t162.5 32.5q37 0 70.5 -10t62.5 -27t52 -39.5t38 -46.5l72 409l231 111l-92 -520q62 60 126.5 92.5t147.5 32.5q64 0 116.5 -25.5t90 -76t58 -125t20.5 -173.5zM772 760q-12 24 -30.5 49t-43 45.5t-53.5 33.5t-61 13q-52 0 -93 -21t-71.5 -56.5t-51.5 -84
t-34 -103t-19 -113t-6 -115.5q0 -113 38 -175.5t114 -62.5q62 0 120.5 36.5t110.5 100.5zM901 311q13 -23 31.5 -48t44 -45t54.5 -33t61 -13q52 0 91.5 20t70 55.5t52.5 84t35 103t19 113t6 115.5q0 116 -38.5 178t-114.5 62q-62 0 -121 -37.5t-111 -101.5z" />
    <glyph glyph-name="afii10087" unicode="&#x445;" horiz-adv-x="1081" 
d="M883 0h-224l-165 383l-295 -383h-232l445 569l-222 506h224l138 -325l251 325h231l-399 -512z" />
    <glyph glyph-name="afii10088" unicode="&#x446;" horiz-adv-x="1208" 
d="M956 184h142l-68 -377l-215 -94l51 287h-807l191 1075h211l-158 -891h442l158 891h211z" />
    <glyph glyph-name="afii10089" unicode="&#x447;" horiz-adv-x="1098" 
d="M854 0h-211l80 459q-62 -31 -133 -48.5t-156 -17.5q-143 0 -215 74.5t-72 208.5q0 35 2.5 60.5t4.5 35.5l53 303h211l-53 -312q-5 -28 -5 -50q0 -72 40.5 -103.5t115.5 -31.5q69 0 130.5 16.5t109.5 48.5l75 432h211z" />
    <glyph glyph-name="afii10090" unicode="&#x448;" horiz-adv-x="1690" 
d="M1438 0h-1379l189 1075h211l-156 -891h373l155 891h211l-155 -891h373l155 891h211z" />
    <glyph glyph-name="afii10091" unicode="&#x449;" horiz-adv-x="1722" 
d="M1470 184h142l-68 -377l-215 -94l51 287h-1321l191 1075h211l-158 -891h373l158 891h210l-157 -891h373l157 891h211z" />
    <glyph glyph-name="afii10092" unicode="&#x44a;" horiz-adv-x="1212" 
d="M1122 418q0 -95 -32 -172.5t-90 -132t-138 -84t-176 -29.5h-496l158 901h-256l31 174h467l-66 -379h297q67 0 122 -18.5t95 -54.5t62 -87.5t22 -117.5zM909 383q0 65 -39 102t-108 37h-268l-62 -348h268q48 0 87 15t66 42.5t41.5 66t14.5 85.5z" />
    <glyph glyph-name="afii10093" unicode="&#x44b;" horiz-adv-x="1475" 
d="M1223 0h-211l188 1075h211zM922 418q0 -95 -32.5 -172.5t-90 -132t-138 -84t-176.5 -29.5h-426l189 1075h211l-66 -379h228q67 0 122 -18.5t95 -54.5t62 -87.5t22 -117.5zM709 383q0 65 -39.5 102t-108.5 37h-199l-61 -348h199q48 0 87 15t66 42.5t41.5 66t14.5 85.5z
" />
    <glyph glyph-name="afii10094" unicode="&#x44c;" horiz-adv-x="1081" 
d="M991 418q0 -95 -32 -172.5t-90 -132t-138 -84t-176 -29.5h-496l189 1075h211l-66 -379h297q67 0 122 -18.5t95 -54.5t62 -87.5t22 -117.5zM778 383q0 65 -39 102t-108 37h-269l-61 -348h268q48 0 87 15t66 42.5t41.5 66t14.5 85.5z" />
    <glyph glyph-name="afii10095" unicode="&#x44d;" horiz-adv-x="1069" 
d="M975 655q0 -82 -17 -164t-50 -157t-82 -140.5t-112.5 -113.5t-141.5 -75.5t-169 -27.5q-67 0 -120 17t-95 45t-73.5 64.5t-55.5 74.5l154 129q49 -66 98.5 -101.5t118.5 -35.5q118 0 196 79t115 230h-348l31 174h342q-1 55 -15.5 101t-40.5 79.5t-62 52.5t-81 19
q-72 0 -145 -30t-156 -105l-94 145q97 94 200.5 138.5t231.5 44.5q86 0 155 -31.5t117 -89.5t73.5 -140t25.5 -182z" />
    <glyph glyph-name="afii10096" unicode="&#x44e;" horiz-adv-x="1593" 
d="M1499 655q0 -84 -17 -167.5t-51 -158.5t-83.5 -139.5t-114.5 -112t-144.5 -74t-173.5 -26.5q-87 0 -155.5 31.5t-116 88.5t-73 136.5t-25.5 176.5v34.5t2 34.5h-193l-84 -479h-211l189 1075h211l-74 -422h190q26 95 74 176.5t116 141t156.5 93.5t196.5 34q87 0 157.5 -33
t120 -92t76.5 -140t27 -178zM1286 627q0 59 -14 108.5t-41 85.5t-66 56t-90 20q-53 0 -97.5 -19t-79.5 -52t-61.5 -77t-44 -94t-26 -103t-8.5 -103q0 -59 12.5 -109t37 -86t62 -56t88.5 -20q53 0 99 19t80.5 51.5t60 72t43.5 81.5t31.5 103.5t13.5 121.5z" />
    <glyph glyph-name="afii10097" unicode="&#x44f;" horiz-adv-x="1126" 
d="M883 0h-207l74 426h-220l-309 -426h-250l348 455q-81 17 -127.5 77t-46.5 154q0 87 28.5 158.5t81 123t125 79.5t161.5 28h530zM537 901q-42 0 -75 -13.5t-56 -37.5t-35.5 -57.5t-12.5 -73.5q0 -53 31 -86t94 -33h297l54 301h-297z" />
    <glyph glyph-name="afii10071" unicode="&#x451;" horiz-adv-x="1116" 
d="M1006 664q0 -53 -7.5 -103.5t-19.5 -95.5h-682q-6 -70 10 -125t49 -93.5t81.5 -58.5t107.5 -20q66 0 123.5 23.5t117.5 60.5l93 -148q-84 -63 -172 -95t-191 -32q-104 0 -187 37.5t-138.5 106t-77 153.5t-21.5 170q0 144 45 273.5t122 215.5t168.5 125.5t188.5 39.5
t170 -33t122 -91t73.5 -137.5t24.5 -172.5zM805 635q5 58 -4.5 108t-35.5 86.5t-68.5 57t-102.5 20.5q-54 0 -97.5 -20.5t-77 -56.5t-57.5 -86t-38 -109h481zM1038 1348q0 -28 -11 -53t-30 -43.5t-43.5 -29.5t-52.5 -11q-29 0 -54 11t-44 29.5t-30 43.5t-11 53t11 53.5
t30 44.5t44 30t54 11q28 0 52.5 -11t43.5 -30t30 -44.5t11 -53.5zM639 1348q0 -28 -11 -53t-30 -43.5t-44 -29.5t-52 -11q-29 0 -54 11t-44.5 29.5t-30.5 43.5t-11 53t11 53.5t30.5 44.5t44.5 30t54 11q27 0 52 -11t44 -30t30 -44.5t11 -53.5z" />
    <glyph glyph-name="afii10099" unicode="&#x452;" horiz-adv-x="1182" 
d="M1063 641q0 -31 -3.5 -70.5t-8.5 -64.5l-70 -402q-18 -104 -52 -185t-84 -142t-117.5 -103t-152.5 -69l-24 184q48 21 83.5 48t61 62t42.5 81t28 106l74 412q4 30 6 58t2 40q0 102 -46.5 149.5t-131.5 47.5q-107 0 -177.5 -70.5t-93.5 -204.5l-90 -518h-211l203 1149
h-170l23 133h170l18 100l229 111l-36 -211h442l-23 -133h-442l-51 -287q49 60 126 92.5t167 32.5q144 0 226.5 -88t82.5 -258z" />
    <glyph glyph-name="afii10100" unicode="&#x453;" horiz-adv-x="889" 
d="M930 891h-504l-156 -891h-211l189 1075h715zM672 1219h-168l277 327h286z" />
    <glyph glyph-name="afii10101" unicode="&#x454;" horiz-adv-x="1069" 
d="M864 770q-53 70 -108.5 102.5t-124.5 32.5q-100 0 -176 -64t-119 -188h366l-30 -174h-369v-37q0 -58 12.5 -108t37.5 -86.5t63.5 -57t89.5 -20.5q78 0 136 28t144 109l109 -129q-103 -110 -199 -155.5t-229 -45.5q-84 0 -153.5 33t-118.5 92t-76 141.5t-27 180.5
q0 84 17 166t50.5 157t83 139t113.5 111.5t143 74t171 26.5q108 0 196.5 -49t145.5 -134z" />
    <glyph glyph-name="afii10102" unicode="&#x455;" horiz-adv-x="1014" 
d="M836 801q-33 25 -64 43t-70 34t-81.5 24.5t-88.5 8.5q-70 0 -108.5 -28t-38.5 -79q0 -26 7.5 -41.5t26 -32t58.5 -38.5t107 -53q70 -32 125 -64.5t91.5 -72t53 -89t10.5 -116.5q-7 -91 -44.5 -152t-93.5 -98.5t-124.5 -53.5t-136.5 -16q-125 0 -234.5 40.5t-197.5 119.5
l112 156q68 -57 150 -93t188 -36q79 0 125.5 32t48.5 101q0 23 -8 40t-26 34t-54.5 37.5t-93.5 44.5q-80 34 -139 68t-95.5 73t-50.5 81.5t-14 87.5q0 157 99 246t276 89q66 0 123.5 -11t106.5 -29t90 -41.5t73 -47.5z" />
    <glyph glyph-name="afii10103" unicode="&#x456;" horiz-adv-x="543" 
d="M541 1350q0 -28 -10.5 -52.5t-28.5 -43t-41.5 -29.5t-50.5 -11q-28 0 -52.5 11t-42.5 29.5t-28.5 43t-10.5 52.5t10.5 53t28.5 43.5t42.5 29.5t52.5 11q27 0 50.5 -11t41.5 -29.5t28.5 -43.5t10.5 -53zM283 0h-211l188 1075h211z" />
    <glyph glyph-name="afii10104" unicode="&#x457;" horiz-adv-x="543" 
d="M283 0h-211l188 1075h211zM753 1338q0 -28 -11 -53t-30 -43.5t-43.5 -29.5t-52.5 -11q-29 0 -54 11t-44 29.5t-30 43.5t-11 53t11 53.5t30 44.5t44 30t54 11q28 0 52.5 -11t43.5 -30t30 -44.5t11 -53.5zM354 1338q0 -28 -11 -53t-30 -43.5t-44 -29.5t-52 -11
q-29 0 -54 11t-44.5 29.5t-30.5 43.5t-11 53t11 53.5t30.5 44.5t44.5 30t54 11q27 0 52 -11t44 -30t30 -44.5t11 -53.5z" />
    <glyph glyph-name="afii10105" unicode="&#x458;" horiz-adv-x="543" 
d="M543 1350q0 -28 -11 -52.5t-29 -43t-41.5 -29.5t-49.5 -11q-28 0 -52.5 11t-43 29.5t-29.5 43t-11 52.5t11 53t29.5 43.5t43 29.5t52.5 11q26 0 49.5 -11t41.5 -29.5t29 -43.5t11 -53zM289 39q-18 -103 -47 -178t-79.5 -127t-128 -83t-192.5 -46l-47 182q72 14 121 30.5
t81.5 44.5t51.5 72t31 113l180 1028h211z" />
    <glyph glyph-name="afii10106" unicode="&#x459;" horiz-adv-x="1706" 
d="M1616 418q0 -95 -32 -172.5t-90 -132t-138 -84t-176 -29.5h-496l156 891h-330l-78 -361q-31 -143 -75.5 -241.5t-102 -163t-127.5 -99t-152 -49.5l-20 185q50 7 91.5 29t75 64.5t61 109.5t48.5 165l119 545h733l-65 -379h297q67 0 122 -18.5t95 -54.5t62 -87.5t22 -117.5
zM1403 383q0 65 -39 102t-109 37h-268l-61 -348h268q48 0 87 15t66 42.5t41.5 66t14.5 85.5z" />
    <glyph glyph-name="afii10107" unicode="&#x45a;" horiz-adv-x="1735" 
d="M1645 418q0 -95 -32.5 -172.5t-90 -132t-138 -84t-176.5 -29.5h-495l84 479h-443l-84 -479h-211l189 1075h211l-72 -411h442l72 411h211l-65 -379h296q67 0 122.5 -18.5t95.5 -54.5t62 -87.5t22 -117.5zM1432 383q0 65 -39.5 102t-108.5 37h-268l-62 -348h269q48 0 87 15
t66 42.5t41.5 66t14.5 85.5z" />
    <glyph glyph-name="afii10108" unicode="&#x45b;" horiz-adv-x="1182" 
d="M1059 653q0 -31 -4 -66.5t-11 -70.5l-90 -516h-211l84 489q5 29 8 53t3 52q0 101 -40.5 150t-133.5 49q-50 0 -93.5 -19.5t-78.5 -57.5t-60.5 -95.5t-38.5 -133.5l-84 -487h-211l203 1149h-170l23 133h170l18 100l229 111l-36 -211h442l-23 -133h-442l-51 -285
q22 23 49.5 45t60.5 39.5t72.5 28t85.5 10.5q159 0 244.5 -84.5t85.5 -249.5z" />
    <glyph glyph-name="afii10109" unicode="&#x45c;" horiz-adv-x="1085" 
d="M250 1075l229 111l-104 -588l424 477h239l-335 -360l197 -715h-229l-143 535l-203 -218l-55 -317h-211zM692 1219h-168l277 327h286z" />
    <glyph glyph-name="afii10110" unicode="&#x45e;" horiz-adv-x="1128" 
d="M381 -379h-225l211 385l-205 1069h223l128 -801l417 801h225zM1051 1386q-12 -35 -41.5 -72t-75.5 -67t-109 -49.5t-143 -19.5q-78 0 -135 19.5t-95 49.5t-56.5 67t-18.5 72l184 48q0 -53 37.5 -87t106.5 -34q68 0 113.5 34t64.5 87z" />
    <glyph glyph-name="afii10193" unicode="&#x45f;" horiz-adv-x="1167" 
d="M924 0h-330l-51 -289l-224 -106l70 395h-330l189 1075h211l-156 -891h442l156 891h211z" />
    <glyph glyph-name="afii10050" unicode="&#x490;" horiz-adv-x="1206" 
d="M522 1223l-215 -1223h-215l252 1434h700l33 180l223 106l-88 -497h-690z" />
    <glyph glyph-name="afii10098" unicode="&#x491;" horiz-adv-x="889" 
d="M426 891l-156 -891h-211l189 1075h526l33 180l205 99l-82 -463h-504z" />
    <glyph glyph-name="Wgrave" unicode="&#x1e80;" horiz-adv-x="1759" 
d="M1278 0h-229l-69 1077l-456 -1077h-219l-39 1434h219l5 -1059l448 1059h205l70 -1060l384 1060h220zM992 1526l-281 327h287l161 -327h-167z" />
    <glyph glyph-name="wgrave" unicode="&#x1e81;" horiz-adv-x="1509" 
d="M1049 0h-193l-63 745l-330 -745h-193l-96 1075h213l42 -724l329 724h180l66 -724l305 724h217zM836 1219l-281 327h287l161 -327h-167z" />
    <glyph glyph-name="Wacute" unicode="&#x1e82;" horiz-adv-x="1759" 
d="M1278 0h-229l-69 1077l-456 -1077h-219l-39 1434h219l5 -1059l448 1059h205l70 -1060l384 1060h220zM1077 1526h-168l277 327h286z" />
    <glyph glyph-name="wacute" unicode="&#x1e83;" horiz-adv-x="1509" 
d="M1049 0h-193l-63 745l-330 -745h-193l-96 1075h213l42 -724l329 724h180l66 -724l305 724h217zM911 1219h-168l277 327h286z" />
    <glyph glyph-name="Wdieresis" unicode="&#x1e84;" horiz-adv-x="1759" 
d="M1278 0h-229l-69 1077l-456 -1077h-219l-39 1434h219l5 -1059l448 1059h205l70 -1060l384 1060h220zM1409 1663q0 -28 -11 -53t-30 -43.5t-43.5 -29.5t-52.5 -11q-29 0 -54 11t-44 29.5t-30 43.5t-11 53t11 53.5t30 44.5t44 30t54 11q28 0 52.5 -11t43.5 -30t30 -44.5
t11 -53.5zM1010 1663q0 -28 -11 -53t-30 -43.5t-44 -29.5t-52 -11q-29 0 -54 11t-44.5 29.5t-30.5 43.5t-11 53t11 53.5t30.5 44.5t44.5 30t54 11q27 0 52 -11t44 -30t30 -44.5t11 -53.5z" />
    <glyph glyph-name="wdieresis" unicode="&#x1e85;" horiz-adv-x="1509" 
d="M1049 0h-193l-63 745l-330 -745h-193l-96 1075h213l42 -724l329 724h180l66 -724l305 724h217zM1235 1356q0 -28 -11 -53t-30 -43.5t-43.5 -29.5t-52.5 -11q-29 0 -54 11t-44 29.5t-30 43.5t-11 53t11 53.5t30 44.5t44 30t54 11q28 0 52.5 -11t43.5 -30t30 -44.5
t11 -53.5zM836 1356q0 -28 -11 -53t-30 -43.5t-44 -29.5t-52 -11q-29 0 -54 11t-44.5 29.5t-30.5 43.5t-11 53t11 53.5t30.5 44.5t44.5 30t54 11q27 0 52 -11t44 -30t30 -44.5t11 -53.5z" />
    <glyph glyph-name="Ygrave" unicode="&#x1ef2;" horiz-adv-x="1403" 
d="M813 565l-98 -565h-215l100 567l-356 867h239l258 -651l488 651h250zM850 1526l-281 327h287l161 -327h-167z" />
    <glyph glyph-name="ygrave" unicode="&#x1ef3;" horiz-adv-x="1128" 
d="M381 -379h-225l211 385l-205 1069h223l128 -801l417 801h225zM699 1201l-281 327h287l161 -327h-167z" />
    <glyph glyph-name="endash" unicode="&#x2013;" horiz-adv-x="942" 
d="M850 651h-717l35 197h717z" />
    <glyph glyph-name="emdash" unicode="&#x2014;" 
d="M1178 651h-1045l33 197h1044z" />
    <glyph glyph-name="quoteleft" unicode="&#x2018;" horiz-adv-x="543" 
d="M449 920h-269l248 514h141z" />
    <glyph glyph-name="quoteright" unicode="&#x2019;" horiz-adv-x="543" 
d="M340 920h-141l120 514h269z" />
    <glyph glyph-name="quotesinglbase" unicode="&#x201a;" horiz-adv-x="543" 
d="M141 -229h-141l119 514h268z" />
    <glyph glyph-name="quotedblleft" unicode="&#x201c;" horiz-adv-x="1024" 
d="M930 920h-268l245 514h142zM449 920h-269l246 514h141z" />
    <glyph glyph-name="quotedblright" unicode="&#x201d;" horiz-adv-x="1024" 
d="M823 920h-141l119 514h268zM342 920h-141l118 514h269z" />
    <glyph glyph-name="quotedblbase" unicode="&#x201e;" horiz-adv-x="1024" 
d="M618 -229h-141l121 514h268zM137 -229h-141l121 514h268z" />
    <glyph glyph-name="dagger" unicode="&#x2020;" horiz-adv-x="1208" 
d="M1133 778h-381l-174 -983h-209l174 983h-393l34 199h394l81 457h209l-82 -457h381z" />
    <glyph glyph-name="daggerdbl" unicode="&#x2021;" horiz-adv-x="1208" 
d="M1139 778h-387l-58 -327h387l-34 -199h-388l-81 -457h-209l82 457h-388l35 199h387l58 327h-387l34 199h388l81 457h209l-82 -457h388z" />
    <glyph glyph-name="bullet" unicode="&#x2022;" horiz-adv-x="952" 
d="M884 752l-759 -435v871z" />
    <glyph glyph-name="ellipsis" unicode="&#x2026;" horiz-adv-x="1561" 
d="M1391 139q0 -33 -13 -62.5t-35 -51.5t-51.5 -35t-62.5 -13t-62.5 13t-51.5 35t-35 51.5t-13 62.5t13 62.5t35 52t51.5 36t62.5 13.5t62.5 -13.5t51.5 -36t35 -52t13 -62.5zM870 139q0 -33 -13 -62.5t-34.5 -51.5t-51 -35t-62.5 -13t-62.5 13t-51.5 35t-35 51.5t-13 62.5
t13 62.5t35 52t51.5 36t62.5 13.5t62.5 -13.5t51 -36t34.5 -52t13 -62.5zM350 139q0 -33 -13 -62.5t-35 -51.5t-51.5 -35t-62.5 -13t-62.5 13t-51 35t-34.5 51.5t-13 62.5t13 62.5t34.5 52t51 36t62.5 13.5t62.5 -13.5t51.5 -36t35 -52t13 -62.5z" />
    <glyph glyph-name="perthousand" unicode="&#x2030;" horiz-adv-x="2810" 
d="M915 1105q1 -108 -32 -211.5t-94 -178.5t-134.5 -112.5t-157.5 -37.5q-77 0 -136.5 30t-97.5 82t-53 115t-14 124q-1 103 32.5 209t93 181t134.5 112.5t156 37.5q77 0 136.5 -29t98 -82.5t54 -116t14.5 -123.5zM587 0h-207l1133 1434h207zM2723 517q1 -108 -31.5 -211.5
t-93.5 -178.5t-134.5 -112.5t-157.5 -37.5q-77 0 -136 30t-97 82t-53.5 115t-14.5 124q-1 101 32.5 207t93 181.5t134.5 113.5t156 38q77 0 136.5 -29t97.5 -81.5t53.5 -114.5t14.5 -126zM1902 517q1 -108 -32 -211.5t-94 -178.5t-134.5 -112.5t-157.5 -37.5q-77 0 -136 30
t-97 82t-53.5 115t-14.5 124q-1 101 32.5 207t93 181.5t134.5 113.5t156 38q77 0 136.5 -29t98 -81.5t54 -114.5t14.5 -126zM735 1109q-2 93 -37 134t-103 41q-43 0 -81 -21.5t-70 -67.5t-51.5 -122t-18.5 -161q2 -93 37 -134t101 -41q43 0 81 21.5t71 67.5t52.5 122
t18.5 161zM2545 522q-2 88 -37 131t-103 43q-43 0 -81 -21t-70 -67t-51 -121.5t-18 -160.5q1 -94 36 -135t101 -41q43 0 81 21.5t71 67.5t52.5 122t18.5 161zM1724 522q-2 88 -37 131t-103 43q-43 0 -81 -21t-70 -67t-51 -121.5t-18 -160.5q1 -94 36 -135t101 -41
q43 0 81 21.5t71 67.5t52.5 122t18.5 161z" />
    <glyph glyph-name="guilsinglleft" unicode="&#x2039;" horiz-adv-x="750" 
d="M299 539l274 -539h-227l-285 537l474 538h227z" />
    <glyph glyph-name="guilsinglright" unicode="&#x203a;" horiz-adv-x="750" 
d="M215 0h-227l463 537l-275 538h227l285 -536z" />
    <glyph glyph-name="fraction" unicode="&#x2044;" horiz-adv-x="969" 
d="M49 0h-238l1215 1434h237z" />
    <glyph glyph-name="fraction" unicode="&#x2215;" horiz-adv-x="969" 
d="M49 0h-238l1215 1434h237z" />
    <glyph glyph-name="four.superior" unicode="&#x2074;" horiz-adv-x="868" 
d="M513 729h-465l23 129l565 583h168l-98 -559h117l-27 -155h-117l-35 -195h-166zM540 882l57 323l-311 -323h254z" />
    <glyph glyph-name="Euro" unicode="&#x20ac;" 
d="M81 799l27 145h131q37 117 93.5 211.5t131.5 161t166.5 103t198.5 36.5q82 0 144.5 -18t110 -53t81.5 -86.5t59 -118.5l-192 -82q-18 49 -38.5 82.5t-47 53.5t-60.5 29t-80 9q-57 0 -108.5 -23.5t-96 -66t-80.5 -103t-63 -135.5h443l-27 -145h-455q-15 -71 -22 -154h450
l-26 -147h-430v-9q0 -100 19.5 -163.5t52.5 -100t76 -50t89 -13.5q86 0 155 43.5t142 140.5l160 -108q-86 -123 -203 -192t-272 -69q-186 0 -294.5 106t-132.5 300q-2 14 -4 32q-3 30 -3 83h-148l27 147h127q7 72 20 154h-121z" />
    <glyph glyph-name="litre" unicode="&#x2113;" horiz-adv-x="1104" 
d="M847 111q-26 -21 -61 -45.5t-77.5 -46t-90.5 -35t-100 -13.5q-115 0 -169 58t-54 165q0 59 14 137t28 157l-146 -126l-54 96l230 196l80 446q18 104 51 178.5t76 122t95 70t108 22.5q91 0 144 -49.5t53 -137.5q0 -65 -19.5 -129t-52.5 -124.5t-76.5 -118t-91.5 -109.5
t-97 -98t-92 -85q-65 -345 -65 -404q0 -61 27.5 -91t80.5 -30q29 0 58.5 9.5t56.5 24.5t51.5 33.5t44.5 36.5zM575 816q41 41 88 96t86.5 115t65.5 122.5t26 118.5q0 34 -17.5 55t-49.5 21q-26 0 -48 -15.5t-40.5 -44.5t-32 -69t-23.5 -92z" />
    <glyph glyph-name="afii61352" unicode="&#x2116;" horiz-adv-x="2339" 
d="M2257 1133q0 -86 -33.5 -159.5t-91 -128t-134 -85.5t-161.5 -31q-68 0 -122.5 23.5t-92.5 64t-59 95.5t-21 118q0 85 33.5 159t91 128.5t134 85.5t161.5 31q67 0 122 -23.5t93 -64.5t59 -95.5t21 -117.5zM2144 397h-706l37 201h706zM2073 1108q0 31 -10.5 58t-30 47
t-46 31t-57.5 11q-42 0 -79 -16t-64.5 -43t-43.5 -63.5t-16 -77.5q0 -32 10.5 -59t30 -46.5t45.5 -31t58 -11.5q42 0 79 16t64.5 43t43.5 63.5t16 78.5zM1174 0h-197l-488 1071l-186 -1071h-211l254 1434h207l478 -1066l186 1066h210z" />
    <glyph glyph-name="trademark" unicode="&#x2122;" horiz-adv-x="1577" 
d="M770 1298h-229l-119 -671h-137l118 671h-229l23 136h596zM1507 627h-131l88 512l-325 -537l-135 533l-89 -508h-131l142 807h137l134 -519l312 519h140z" />
    <glyph glyph-name="Omega" unicode="&#x2126;" horiz-adv-x="1491" 
d="M827 207q87 70 155.5 140t116 147t72.5 164.5t25 193.5q0 91 -26 164t-73.5 125t-113 80t-143.5 28q-100 0 -185 -45t-147.5 -122.5t-97.5 -181t-35 -220.5q0 -72 15.5 -134t45 -118.5t72 -110t96.5 -110.5l-37 -207h-491l37 209h237q-54 46 -91.5 99t-61 111
t-34.5 118.5t-11 121.5q0 102 23.5 200.5t67.5 187.5t107.5 163.5t143 129.5t174.5 85.5t202 30.5q135 0 237.5 -46.5t171.5 -126t104.5 -186t35.5 -227.5q0 -91 -18 -180t-58.5 -173t-104.5 -161.5t-155 -146.5h240l-37 -209h-495z" />
    <glyph glyph-name="estimated" unicode="&#x212e;" horiz-adv-x="1427" 
d="M356 651v-450q73 -72 161.5 -109t195.5 -37q91 0 163 22.5t130 62t104.5 94t87.5 118.5l76 -47q-48 -73 -102 -133.5t-120.5 -104t-149.5 -68t-189 -24.5q-145 0 -262.5 54t-200 146.5t-127.5 215.5t-45 262q0 141 44 264.5t126.5 215.5t201.5 145t269 53t268 -54
t200 -146.5t126.5 -216t46.5 -263.5h-1004zM1075 1106q-33 31 -74 58t-87 46t-96 30t-101 11q-105 0 -197 -36.5t-164 -108.5v-373h719v373z" />
    <glyph glyph-name="down.arrow" unicode="&#x2193;" horiz-adv-x="840" 
d="M711 420q5 -6 4 -17.5t-10 -25.5l-285 -408l-287 408q-8 14 -8.5 25.5t4.5 17.5q9 14 21 19t30 -1l137 -43v1039h205v-1037l140 41q17 6 28 1t21 -19z" />
    <glyph glyph-name="leftright.arrow" unicode="&#x2194;" horiz-adv-x="1638" 
d="M1190 422q-14 -8 -25.5 -8.5t-17.5 4.5q-14 9 -19.5 20.5t0.5 30.5l43 137h-704l43 -137q6 -19 1 -30.5t-19 -20.5q-7 -5 -19.5 -4.5t-26.5 8.5l-405 287l408 284q14 10 25 10.5t18 -4.5q14 -9 19 -20.5t-1 -28.5l-43 -139h704l-43 139q-6 17 -0.5 28.5t19.5 20.5
q6 5 17.5 4.5t25.5 -10.5l407 -284z" />
    <glyph glyph-name="partialdiff" unicode="&#x2202;" horiz-adv-x="1159" 
d="M500 1288l28 172q150 -22 251 -72.5t165.5 -128.5t102.5 -194.5t38 -282.5q0 -146 -22.5 -262.5t-62.5 -206t-94.5 -153.5t-118 -104.5t-132.5 -59.5t-139 -19q-98 0 -177 31t-135.5 86.5t-87 133.5t-30.5 171q0 134 47 247.5t124.5 188.5t165 110.5t173.5 35.5
q117 0 191.5 -36.5t117.5 -96.5q-9 95 -33.5 167.5t-76.5 131.5t-134.5 94t-160.5 47zM840 553q0 55 -17.5 99t-49.5 75t-77.5 47.5t-101.5 16.5q-63 0 -116.5 -28.5t-92 -79.5t-60.5 -122t-22 -155q0 -112 58.5 -174t173.5 -62q64 0 120 29.5t97 81t64.5 121.5t23.5 151z
" />
    <glyph glyph-name="Delta" unicode="&#x2206;" horiz-adv-x="1477" 
d="M-10 0l794 1434h217l299 -1434h-1310zM851 1159l-515 -950h698z" />
    <glyph glyph-name="product" unicode="&#x220f;" horiz-adv-x="1415" 
d="M867 -300l268 1521h-613l-268 -1521h-215l305 1734h1042l-304 -1734h-215z" />
    <glyph glyph-name="summation" unicode="&#x2211;" horiz-adv-x="1323" 
d="M516 1235l331 -647l-586 -679h819l-36 -209h-1069l35 209l590 686l-330 630l37 209h1028l-35 -199h-784z" />
    <glyph glyph-name="minus" unicode="&#x2212;" 
d="M1157 803v-197h-1004v197h1004z" />
    <glyph glyph-name="radical" unicode="&#x221a;" 
d="M549 0h-236l-209 696h220l130 -474l650 1212h235z" />
    <glyph glyph-name="infinity" unicode="&#x221e;" horiz-adv-x="1911" 
d="M648 1188q98 0 181.5 -36t140.5 -108q57 74 139.5 109t179.5 35q85 0 158.5 -31t127.5 -89t84.5 -141t30.5 -188q0 -104 -31.5 -189.5t-87 -146.5t-130 -94t-160.5 -33q-99 0 -181.5 38t-139.5 113q-57 -77 -140 -114t-180 -37q-84 0 -157 32.5t-127 92t-85 144
t-31 188.5q0 105 31.5 189t86.5 143t129.5 91t160.5 32zM869 735q0 69 -17.5 120t-47 85t-68 51t-80.5 17t-79.5 -14.5t-67.5 -50t-45 -87.5t-15 -121q0 -75 14.5 -125.5t41.5 -85.5t66.5 -51t82.5 -16q39 0 75 13t66 40t49 62t29 83q-4 46 -4 80zM1064 739q0 -69 17 -121.5
t46 -88.5t67.5 -54t80.5 -18q51 0 89 18t66 55t40 80t12 125q0 72 -15 122.5t-45 86t-69.5 50t-83.5 14.5q-38 0 -72 -11.5t-61.5 -34t-47.5 -56.5t-30 -79q3 -22 4.5 -44t1.5 -44z" />
    <glyph glyph-name="integral" unicode="&#x222b;" horiz-adv-x="862" 
d="M848 1243q-25 13 -67.5 21t-84.5 8q-52 0 -80.5 -25t-37.5 -88l-224 -1283q-22 -131 -92.5 -200.5t-209.5 -69.5q-63 0 -117.5 8t-89.5 21l33 184q25 -13 67.5 -21t84.5 -8q52 0 80 25t37 88l226 1283q21 131 91.5 200.5t209.5 69.5q63 0 117.5 -8t89.5 -21z" />
    <glyph glyph-name="approxequal" unicode="&#x2248;" 
d="M820 770q-62 0 -108.5 19.5t-85 43t-71.5 43t-69 19.5q-38 0 -63 -28t-25 -91h-204q0 74 19 134.5t54 103.5t85 66.5t112 23.5q64 0 110.5 -19.5t83.5 -43t70 -43t72 -19.5q38 0 62 28t24 91h207q0 -78 -20 -139t-56.5 -103t-86.5 -64t-110 -22zM820 303
q-62 0 -108.5 19.5t-85 43t-71.5 43t-69 19.5q-38 0 -63 -28t-25 -91h-204q0 74 19 134.5t54 103.5t85 66.5t112 23.5q64 0 110.5 -19.5t83.5 -43t70 -43t72 -19.5q38 0 62 28t24 91h207q0 -78 -20 -139t-56.5 -103t-86.5 -64t-110 -22z" />
    <glyph glyph-name="notequal" unicode="&#x2260;" 
d="M885 1042h213v-204h-287l-94 -267h381v-204h-453l-94 -267h-211l94 267h-223v204h295l94 267h-389v204h463l90 256h211z" />
    <glyph glyph-name="lessequal" unicode="&#x2264;" 
d="M346 717v180l596 416v-266l-377 -238l377 -240v-268zM346 59v189h596v-189h-596z" />
    <glyph glyph-name="greaterequal" unicode="&#x2265;" 
d="M346 301v268l377 240l-377 238v266l596 -416v-180zM346 59v189h596v-189h-596z" />
    <glyph glyph-name="lozenge" unicode="&#x25ca;" horiz-adv-x="1126" 
d="M563 1077l-276 -434l276 -432l277 432zM1067 641l-403 -641h-199l-406 641l404 641h199z" />
    <glyph glyph-name="apple" unicode="&#xf8ff;" horiz-adv-x="1556" 
d="M1174 451q-24 -15 -42 1q-17 13 -8 31l47 135h-301v-305l134 47q20 10 32 -7q18 -16 2 -42l-258 -342l-258 342q-16 28 0 42q16 17 35 7l133 -47v305h-305l47 -135q9 -17 -9 -34q-19 -12 -40 2l-342 258l342 258q26 15 42 1q16 -11 7 -36l-47 -133h305v321l-133 -47
q-22 -8 -34 7q-17 16 -1 42l258 342l258 -342q15 -23 1 -39q-15 -19 -35 -10l-134 47v-321h301l-47 133q-9 21 8 35q15 16 42 0l342 -258z" />
    <glyph glyph-name="DEL" horiz-adv-x="0" 
 />
    <glyph glyph-name="bulletround" horiz-adv-x="881" 
d="M778 750q0 -65 -24 -121t-65 -97.5t-97.5 -65.5t-120.5 -24q-65 0 -121 24t-97 65.5t-65 97.5t-24 121q0 64 24 121t65 99t97 66.5t121 24.5q64 0 120.5 -24.5t97.5 -66.5t65 -99t24 -121z" />
    <glyph glyph-name="quotedbl.lfprop" horiz-adv-x="1004" 
d="M844 764h-154l68 670h256zM391 764h-153l67 670h256z" />
    <glyph glyph-name="numbersign.lfprop" horiz-adv-x="1425" 
d="M1376 911h-246l-69 -389h246l-35 -194h-246l-57 -328h-201l57 328h-327l-58 -328h-200l57 328h-246l35 194h246l69 389h-245l34 195h246l58 328h200l-57 -328h328l57 328h201l-58 -328h246zM602 911l-70 -389h328l70 389h-328z" />
    <glyph glyph-name="dollar.lfprop" horiz-adv-x="1253" 
d="M1028 1071q-70 80 -156 122t-194 42q-107 0 -166 -49.5t-59 -128.5q0 -34 11.5 -61t41.5 -52.5t83 -52.5t136 -60q84 -33 151.5 -69t114 -82t71.5 -105.5t25 -138.5t-22.5 -156t-75.5 -138.5t-141 -101.5t-219 -46l-35 -199h-215l37 213q-73 16 -130.5 44t-102 62
t-78.5 71.5t-60 72.5l174 137q66 -87 163.5 -141.5t229.5 -54.5q117 0 184.5 54t67.5 159q0 35 -14 65.5t-47 59.5t-87.5 57.5t-135.5 60.5q-92 35 -158 71.5t-109 81.5t-63.5 101.5t-20.5 132.5q0 81 27.5 151t83 123t138 85.5t192.5 38.5l35 198h215l-37 -215
q107 -28 185 -83t124 -121z" />
    </font>
</defs>
</svg>
